{
.appVersion = "1141";
DisplayStrings = (
"/lslash",
t
);
copyright = "Copyright © 2017 by Aaron Vince. All rights reserved.";
date = "2017-09-07 02:34:38 +0000";
designer = "Aaron Vince";
designerURL = aaronvince.com;
familyName = "AV Gravity";
featurePrefixes = (
{
automatic = 1;
code = "languagesystem DFLT dflt;\012";
name = Languagesystems;
}
);
features = (
{
automatic = 1;
code = "feature sups;\012feature frac;\012feature ordn;\012";
name = aalt;
},
{
automatic = 1;
code = "sub one by onesuperior;\012sub two by twosuperior;\012sub three by threesuperior;\012";
name = sups;
},
{
automatic = 1;
code = "sub one slash four by onequarter;\012sub one slash two by onehalf;\012sub three slash four by threequarters;\012";
name = frac;
},
{
automatic = 1;
code = "sub [zero one two three four five six seven eight nine] [A a]' by ordfeminine;\012sub [zero one two three four five six seven eight nine] [O o]' by ordmasculine;\012";
name = ordn;
},
{
automatic = 1;
code = "sub f i by fi;\012sub f l by fl;\012";
name = liga;
}
);
fontMaster = (
{
alignmentZones = (
"{650, 16}",
"{600, 16}",
"{450, 16}",
"{0, -16}",
"{-200, -16}"
);
ascender = 800;
capHeight = 600;
descender = -200;
id = "AEDC8121-3E5B-40FA-BC83-3F7147C1C4F3";
weight = Light;
widthValue = 5;
xHeight = 400;
},
{
ascender = 800;
capHeight = 600;
descender = -200;
id = "EA4A3C90-BC2A-43B1-AFC3-03A46CC68B95";
userData = {
GSOffsetHorizontal = -10;
GSOffsetProportional = 1;
GSOffsetVertical = -5;
};
weightValue = 400;
widthValue = 5;
xHeight = 450;
},
{
ascender = 800;
capHeight = 600;
descender = -200;
id = "71685E8E-84B4-4751-A208-735D4797FBD3";
weight = Bold;
weightValue = 900;
widthValue = 5;
xHeight = 450;
}
);
glyphs = (
{
glyphname = A;
lastChange = "2017-08-24 18:06:21 +0000";
layers = (
{
background = {
paths = (
{
closed = 1;
nodes = (
"314 510 LINE",
"414 610 LINE",
"214 610 LINE"
);
}
);
};
guideLines = (
{
angle = -70.4551;
position = "{472, 300}";
},
{
angle = 109.5449;
position = "{369, 300}";
}
);
layerId = "EA4A3C90-BC2A-43B1-AFC3-03A46CC68B95";
paths = (
{
closed = 1;
nodes = (
"225 0 LINE",
"125 100 LINE",
"25 0 LINE"
);
},
{
closed = 1;
nodes = (
"259 610 LINE",
"475 0 LINE",
"578 0 LINE",
"362 610 LINE"
);
},
{
closed = 1;
nodes = (
"610 0 LINE",
"510 100 LINE",
"410 0 LINE"
);
},
{
closed = 1;
nodes = (
"68 0 LINE",
"133 0 LINE",
"346 600 LINE",
"281 600 LINE"
);
},
{
closed = 1;
nodes = (
"433 160 LINE",
"433 225 LINE",
"183 225 LINE",
"183 160 LINE"
);
}
);
width = 635;
},
{
associatedMasterId = "EA4A3C90-BC2A-43B1-AFC3-03A46CC68B95";
layerId = "2EAD3A65-1F1F-48B1-B4F4-EBD029A03E24";
name = Superhero;
paths = (
{
closed = 1;
nodes = (
"240 0 LINE",
"140 100 LINE",
"40 0 LINE"
);
},
{
closed = 1;
nodes = (
"339 510 LINE",
"439 610 LINE",
"239 610 LINE"
);
},
{
closed = 1;
nodes = (
"296 600 LINE",
"509 0 LINE",
"594 0 LINE",
"381 600 LINE"
);
},
{
closed = 1;
nodes = (
"637 0 LINE",
"537 100 LINE",
"437 0 LINE"
);
},
{
closed = 1;
nodes = (
"83 0 LINE",
"168 0 LINE",
"381 600 LINE",
"296 600 LINE"
);
},
{
closed = 1;
nodes = (
"458 160 LINE",
"458 245 LINE",
"218 245 LINE",
"218 160 LINE"
);
}
);
width = 677;
},
{
associatedMasterId = "EA4A3C90-BC2A-43B1-AFC3-03A46CC68B95";
background = {
paths = (
{
closed = 1;
nodes = (
"334 510 LINE",
"434 610 LINE",
"234 610 LINE"
);
}
);
};
guideLines = (
{
angle = -70.4551;
position = "{492, 300}";
},
{
angle = 109.5449;
position = "{389, 300}";
}
);
layerId = "281872B0-4F16-4F3D-8ECD-D07D37015F73";
name = "Aug 22 17, 12:13";
paths = (
{
closed = 1;
nodes = (
"240 0 LINE",
"140 100 LINE",
"40 0 LINE"
);
},
{
closed = 1;
nodes = (
"284 610 LINE",
"500 0 LINE",
"593 0 LINE",
"377 610 LINE"
);
},
{
closed = 1;
nodes = (
"631 0 LINE",
"531 100 LINE",
"431 0 LINE"
);
},
{
closed = 1;
nodes = (
"83 0 LINE",
"158 0 LINE",
"371 600 LINE",
"296 600 LINE"
);
},
{
closed = 1;
nodes = (
"453 160 LINE",
"453 235 LINE",
"213 235 LINE",
"213 160 LINE"
);
}
);
width = 671;
},
{
layerId = "AEDC8121-3E5B-40FA-BC83-3F7147C1C4F3";
width = 550;
},
{
layerId = "71685E8E-84B4-4751-A208-735D4797FBD3";
width = 550;
}
);
leftMetricsKey = "=I-25";
rightMetricsKey = "=I-25";
unicode = 0041;
},
{
glyphname = B;
lastChange = "2017-08-24 17:23:33 +0000";
layers = (
{
background = {
paths = (
{
closed = 1;
nodes = (
"595 16 LINE",
"558 7 OFFCURVE",
"514 44 OFFCURVE",
"471 115 CURVE",
"398 74 LINE",
"442 -3 OFFCURVE",
"510 -8 OFFCURVE",
"539 0 CURVE SMOOTH"
);
},
{
closed = 1;
nodes = (
"471 115 LINE",
"356 310 LINE",
"284 269 LINE",
"398 74 LINE"
);
},
{
closed = 1;
nodes = (
"211 250 LINE",
"396 305 LINE",
"170 305 LINE",
"170 250 LINE"
);
}
);
};
components = (
{
name = I;
}
);
guideLines = (
{
angle = 135;
position = "{250, 0}";
}
);
layerId = "EA4A3C90-BC2A-43B1-AFC3-03A46CC68B95";
paths = (
{
closed = 1;
nodes = (
"371 275 OFFCURVE",
"441 320 OFFCURVE",
"441 449 CURVE SMOOTH",
"441 552 OFFCURVE",
"381 600 OFFCURVE",
"250 600 CURVE",
"193 543 LINE",
"307 543 OFFCURVE",
"360 509 OFFCURVE",
"360 435 CURVE SMOOTH",
"360 360 OFFCURVE",
"305 330 OFFCURVE",
"170 330 CURVE",
"170 275 LINE"
);
},
{
closed = 1;
nodes = (
"170 275 LINE",
"333 275 OFFCURVE",
"390 245 OFFCURVE",
"390 158 CURVE SMOOTH",
"390 92 OFFCURVE",
"341 62 OFFCURVE",
"178 72 CURVE",
"250 0 LINE",
"408 0 OFFCURVE",
"481 56 OFFCURVE",
"481 178 CURVE SMOOTH",
"481 286 OFFCURVE",
"392 330 OFFCURVE",
"170 330 CURVE"
);
}
);
width = 506;
},
{
associatedMasterId = "EA4A3C90-BC2A-43B1-AFC3-03A46CC68B95";
background = {
paths = (
{
closed = 1;
nodes = (
"595 16 LINE",
"558 7 OFFCURVE",
"514 44 OFFCURVE",
"471 115 CURVE",
"398 74 LINE",
"442 -3 OFFCURVE",
"510 -8 OFFCURVE",
"539 0 CURVE SMOOTH"
);
},
{
closed = 1;
nodes = (
"471 115 LINE",
"356 310 LINE",
"284 269 LINE",
"398 74 LINE"
);
}
);
};
components = (
{
name = I;
}
);
layerId = "15E9B92E-2B95-4B92-BEFF-AB8123431056";
name = "Aug 23 17, 14:11";
paths = (
{
closed = 1;
nodes = (
"294 250 OFFCURVE",
"325 252 OFFCURVE",
"346 259 CURVE SMOOTH",
"445 293 OFFCURVE",
"491 350 OFFCURVE",
"491 439 CURVE SMOOTH",
"491 472 OFFCURVE",
"478 506 OFFCURVE",
"450 537 CURVE SMOOTH",
"393 601 OFFCURVE",
"348 600 OFFCURVE",
"250 600 CURVE",
"193 543 LINE",
"266 562 OFFCURVE",
"324 549 OFFCURVE",
"363 504 CURVE SMOOTH",
"391 472 OFFCURVE",
"400 438 OFFCURVE",
"400 405 CURVE SMOOTH",
"400 348 OFFCURVE",
"354 305 OFFCURVE",
"292 305 CURVE SMOOTH",
"261 305 OFFCURVE",
"222 256 OFFCURVE",
"211 250 CURVE"
);
},
{
closed = 1;
nodes = (
"211 250 LINE",
"396 305 LINE",
"170 305 LINE",
"170 250 LINE"
);
}
);
width = 615;
},
{
associatedMasterId = "EA4A3C90-BC2A-43B1-AFC3-03A46CC68B95";
background = {
paths = (
{
closed = 1;
nodes = (
"595 16 LINE",
"558 7 OFFCURVE",
"514 44 OFFCURVE",
"471 115 CURVE",
"398 74 LINE",
"442 -3 OFFCURVE",
"510 -8 OFFCURVE",
"539 0 CURVE SMOOTH"
);
},
{
closed = 1;
nodes = (
"471 115 LINE",
"356 310 LINE",
"284 269 LINE",
"398 74 LINE"
);
},
{
closed = 1;
nodes = (
"211 250 LINE",
"396 305 LINE",
"170 305 LINE",
"170 250 LINE"
);
}
);
};
components = (
{
name = I;
}
);
guideLines = (
{
angle = 135;
position = "{250, 0}";
}
);
layerId = "7A6587C3-716A-4129-8E31-031B5ACA5231";
name = "Aug 23 17, 14:25";
paths = (
{
closed = 1;
nodes = (
"371 275 OFFCURVE",
"441 320 OFFCURVE",
"441 449 CURVE SMOOTH",
"441 552 OFFCURVE",
"381 600 OFFCURVE",
"250 600 CURVE",
"193 543 LINE",
"307 543 OFFCURVE",
"360 509 OFFCURVE",
"360 435 CURVE SMOOTH",
"360 360 OFFCURVE",
"305 330 OFFCURVE",
"170 330 CURVE",
"170 275 LINE"
);
},
{
closed = 1;
nodes = (
"170 275 LINE",
"333 275 OFFCURVE",
"390 245 OFFCURVE",
"390 158 CURVE SMOOTH",
"390 92 OFFCURVE",
"341 72 OFFCURVE",
"178 72 CURVE",
"250 0 LINE",
"415 0 OFFCURVE",
"481 51 OFFCURVE",
"481 178 CURVE SMOOTH",
"481 286 OFFCURVE",
"392 330 OFFCURVE",
"170 330 CURVE"
);
}
);
width = 506;
},
{
layerId = "AEDC8121-3E5B-40FA-BC83-3F7147C1C4F3";
width = 600;
},
{
layerId = "71685E8E-84B4-4751-A208-735D4797FBD3";
width = 600;
}
);
leftMetricsKey = I;
rightMetricsKey = O;
unicode = 0042;
},
{
glyphname = C;
lastChange = "2017-08-24 18:06:21 +0000";
layers = (
{
background = {
paths = (
{
closed = 1;
nodes = (
"535 169 LINE",
"520 107 OFFCURVE",
"486 50 OFFCURVE",
"436 8 CURVE",
"451 14 OFFCURVE",
"466 21 OFFCURVE",
"481 30 CURVE SMOOTH",
"527 57 OFFCURVE",
"564 94 OFFCURVE",
"589 138 CURVE"
);
},
{
closed = 1;
nodes = (
"589 138 LINE",
"640 226 OFFCURVE",
"644 339 OFFCURVE",
"589 434 CURVE SMOOTH",
"562 481 OFFCURVE",
"524 517 OFFCURVE",
"481 542 CURVE",
"435 464 LINE",
"462 442 OFFCURVE",
"485 415 OFFCURVE",
"503 384 CURVE SMOOTH",
"542 317 OFFCURVE",
"551 240 OFFCURVE",
"535 169 CURVE"
);
},
{
closed = 1;
nodes = (
"474 456 LINE",
"489 440 OFFCURVE",
"502 423 OFFCURVE",
"513 403 CURVE SMOOTH",
"589 270 OFFCURVE",
"557 103 OFFCURVE",
"443 8 CURVE",
"459 14 OFFCURVE",
"475 22 OFFCURVE",
"490 31 CURVE SMOOTH",
"637 119 OFFCURVE",
"690 307 OFFCURVE",
"604 455 CURVE SMOOTH",
"586 486 OFFCURVE",
"564 512 OFFCURVE",
"539 534 CURVE"
);
}
);
};
guideLines = (
{
angle = -30.0333;
position = "{333, 286}";
},
{
angle = 50.3431;
position = "{333, 286}";
}
);
layerId = "EA4A3C90-BC2A-43B1-AFC3-03A46CC68B95";
paths = (
{
closed = 1;
nodes = (
"506 40 OFFCURVE",
"521 50 OFFCURVE",
"534 61 CURVE",
"395 10 OFFCURVE",
"233 64 OFFCURVE",
"157 197 CURVE SMOOTH",
"81 330 OFFCURVE",
"114 496 OFFCURVE",
"228 591 CURVE",
"212 585 OFFCURVE",
"195 578 OFFCURVE",
"180 569 CURVE SMOOTH",
"33 481 OFFCURVE",
"-20 293 OFFCURVE",
"66 145 CURVE SMOOTH",
"152 -3 OFFCURVE",
"341 -53 OFFCURVE",
"490 31 CURVE SMOOTH"
);
},
{
closed = 1;
nodes = (
"539 534 LINE",
"441 618 OFFCURVE",
"298 636 OFFCURVE",
"180 569 CURVE SMOOTH",
"164 560 OFFCURVE",
"149 548 OFFCURVE",
"136 537 CURVE",
"255 581 OFFCURVE",
"390 549 OFFCURVE",
"474 456 CURVE"
);
},
{
closed = 1;
nodes = (
"510 499 LINE",
"427 555 LINE",
"439 414 LINE"
);
}
);
width = 559;
},
{
associatedMasterId = "EA4A3C90-BC2A-43B1-AFC3-03A46CC68B95";
background = {
paths = (
{
closed = 1;
nodes = (
"535 169 LINE",
"520 107 OFFCURVE",
"486 50 OFFCURVE",
"436 8 CURVE",
"451 14 OFFCURVE",
"466 21 OFFCURVE",
"481 30 CURVE SMOOTH",
"527 57 OFFCURVE",
"564 94 OFFCURVE",
"589 138 CURVE"
);
},
{
closed = 1;
nodes = (
"589 138 LINE",
"640 226 OFFCURVE",
"644 339 OFFCURVE",
"589 434 CURVE SMOOTH",
"562 481 OFFCURVE",
"524 517 OFFCURVE",
"481 542 CURVE",
"435 464 LINE",
"462 442 OFFCURVE",
"485 415 OFFCURVE",
"503 384 CURVE SMOOTH",
"542 317 OFFCURVE",
"551 240 OFFCURVE",
"535 169 CURVE"
);
}
);
};
guideLines = (
{
angle = -30.0333;
position = "{333, 286}";
},
{
angle = 50.3431;
position = "{333, 286}";
}
);
layerId = "F3532A0F-9AAE-4E2E-9C33-865C83ACCAFE";
name = "Aug 22 17, 14:29";
paths = (
{
closed = 1;
nodes = (
"507 38 OFFCURVE",
"522 48 OFFCURVE",
"534 59 CURVE",
"396 7 OFFCURVE",
"234 63 OFFCURVE",
"157 195 CURVE SMOOTH",
"80 327 OFFCURVE",
"114 495 OFFCURVE",
"228 590 CURVE",
"212 584 OFFCURVE",
"196 576 OFFCURVE",
"180 567 CURVE SMOOTH",
"31 483 OFFCURVE",
"-19 291 OFFCURVE",
"67 143 CURVE SMOOTH",
"153 -5 OFFCURVE",
"342 -55 OFFCURVE",
"491 29 CURVE SMOOTH"
);
},
{
closed = 1;
nodes = (
"491 567 LINE",
"398 620 OFFCURVE",
"278 626 OFFCURVE",
"180 567 CURVE SMOOTH",
"165 558 OFFCURVE",
"150 548 OFFCURVE",
"137 537 CURVE",
"241 576 OFFCURVE",
"359 554 OFFCURVE",
"443 485 CURVE"
);
},
{
closed = 1;
nodes = (
"533 537 LINE",
"519 549 OFFCURVE",
"506 558 OFFCURVE",
"491 567 CURVE",
"443 485 LINE",
"452 478 OFFCURVE",
"461 469 OFFCURVE",
"469 461 CURVE"
);
}
);
width = 549;
},
{
associatedMasterId = "EA4A3C90-BC2A-43B1-AFC3-03A46CC68B95";
background = {
paths = (
{
closed = 1;
nodes = (
"535 169 LINE",
"520 107 OFFCURVE",
"486 50 OFFCURVE",
"436 8 CURVE",
"451 14 OFFCURVE",
"466 21 OFFCURVE",
"481 30 CURVE SMOOTH",
"527 57 OFFCURVE",
"564 94 OFFCURVE",
"589 138 CURVE"
);
},
{
closed = 1;
nodes = (
"589 138 LINE",
"640 226 OFFCURVE",
"644 339 OFFCURVE",
"589 434 CURVE SMOOTH",
"562 481 OFFCURVE",
"524 517 OFFCURVE",
"481 542 CURVE",
"435 464 LINE",
"462 442 OFFCURVE",
"485 415 OFFCURVE",
"503 384 CURVE SMOOTH",
"542 317 OFFCURVE",
"551 240 OFFCURVE",
"535 169 CURVE"
);
},
{
closed = 1;
nodes = (
"474 456 LINE",
"489 440 OFFCURVE",
"502 423 OFFCURVE",
"513 403 CURVE SMOOTH",
"589 270 OFFCURVE",
"557 103 OFFCURVE",
"443 8 CURVE",
"459 14 OFFCURVE",
"475 22 OFFCURVE",
"490 31 CURVE SMOOTH",
"637 119 OFFCURVE",
"690 307 OFFCURVE",
"604 455 CURVE SMOOTH",
"586 486 OFFCURVE",
"564 512 OFFCURVE",
"539 534 CURVE"
);
}
);
};
guideLines = (
{
angle = -30.0333;
position = "{333, 286}";
},
{
angle = 50.3431;
position = "{333, 286}";
}
);
layerId = "B114E1D7-547C-4E02-84B9-118E0AE53036";
name = "Aug 22 17, 15:16";
paths = (
{
closed = 1;
nodes = (
"506 40 OFFCURVE",
"521 50 OFFCURVE",
"534 61 CURVE",
"395 10 OFFCURVE",
"233 64 OFFCURVE",
"157 197 CURVE SMOOTH",
"81 330 OFFCURVE",
"114 496 OFFCURVE",
"228 591 CURVE",
"212 585 OFFCURVE",
"195 578 OFFCURVE",
"180 569 CURVE SMOOTH",
"33 481 OFFCURVE",
"-20 293 OFFCURVE",
"66 145 CURVE SMOOTH",
"152 -3 OFFCURVE",
"341 -53 OFFCURVE",
"490 31 CURVE SMOOTH"
);
},
{
closed = 1;
nodes = (
"539 534 LINE",
"441 618 OFFCURVE",
"298 636 OFFCURVE",
"180 569 CURVE SMOOTH",
"164 560 OFFCURVE",
"149 548 OFFCURVE",
"136 537 CURVE",
"255 581 OFFCURVE",
"390 549 OFFCURVE",
"474 456 CURVE"
);
}
);
width = 559;
},
{
layerId = "AEDC8121-3E5B-40FA-BC83-3F7147C1C4F3";
width = 595;
},
{
layerId = "71685E8E-84B4-4751-A208-735D4797FBD3";
width = 595;
}
);
leftMetricsKey = O;
rightMetricsKey = "=O-5";
unicode = 0043;
},
{
glyphname = D;
lastChange = "2017-08-24 17:23:33 +0000";
layers = (
{
background = {
paths = (
{
closed = 1;
nodes = (
"534 61 CURVE",
"395 10 OFFCURVE",
"233 64 OFFCURVE",
"157 197 CURVE SMOOTH",
"81 330 OFFCURVE",
"113 497 OFFCURVE",
"227 592 CURVE",
"211 586 OFFCURVE",
"195 578 OFFCURVE",
"180 569 CURVE SMOOTH",
"33 481 OFFCURVE",
"-20 293 OFFCURVE",
"66 145 CURVE SMOOTH",
"152 -3 OFFCURVE",
"341 -53 OFFCURVE",
"490 31 CURVE SMOOTH",
"506 40 OFFCURVE",
"521 50 OFFCURVE"
);
},
{
closed = 1;
nodes = (
"392 250 OFFCURVE",
"481 304 OFFCURVE",
"481 439 CURVE SMOOTH",
"481 540 OFFCURVE",
"395 600 OFFCURVE",
"250 600 CURVE",
"193 543 LINE",
"341 543 OFFCURVE",
"390 503 OFFCURVE",
"390 405 CURVE SMOOTH",
"390 334 OFFCURVE",
"334 305 OFFCURVE",
"170 305 CURVE",
"170 250 LINE"
);
}
);
};
components = (
{
name = I;
}
);
layerId = "EA4A3C90-BC2A-43B1-AFC3-03A46CC68B95";
paths = (
{
closed = 1;
nodes = (
"388 14 OFFCURVE",
"403 22 OFFCURVE",
"418 30 CURVE SMOOTH",
"518 84 OFFCURVE",
"573 188 OFFCURVE",
"573 295 CURVE SMOOTH",
"573 486 OFFCURVE",
"453 600 OFFCURVE",
"250 600 CURVE",
"193 600 LINE",
"193 528 LINE",
"374 528 OFFCURVE",
"482 422 OFFCURVE",
"482 245 CURVE SMOOTH",
"482 155 OFFCURVE",
"443 67 OFFCURVE",
"372 8 CURVE"
);
},
{
closed = 1;
nodes = (
"193 0 LINE",
"315 0 LINE",
"315 73 LINE",
"193 72 LINE"
);
},
{
closed = 1;
nodes = (
"315 0 LINE",
"405 0 OFFCURVE",
"443 50 OFFCURVE",
"450 78 CURVE",
"465 135 LINE",
"458 107 OFFCURVE",
"415 74 OFFCURVE",
"315 73 CURVE"
);
}
);
width = 598;
},
{
associatedMasterId = "EA4A3C90-BC2A-43B1-AFC3-03A46CC68B95";
background = {
paths = (
{
closed = 1;
nodes = (
"534 61 CURVE",
"395 10 OFFCURVE",
"233 64 OFFCURVE",
"157 197 CURVE SMOOTH",
"81 330 OFFCURVE",
"113 497 OFFCURVE",
"227 592 CURVE",
"211 586 OFFCURVE",
"195 578 OFFCURVE",
"180 569 CURVE SMOOTH",
"33 481 OFFCURVE",
"-20 293 OFFCURVE",
"66 145 CURVE SMOOTH",
"152 -3 OFFCURVE",
"341 -53 OFFCURVE",
"490 31 CURVE SMOOTH",
"506 40 OFFCURVE",
"521 50 OFFCURVE"
);
},
{
closed = 1;
nodes = (
"392 250 OFFCURVE",
"481 304 OFFCURVE",
"481 439 CURVE SMOOTH",
"481 540 OFFCURVE",
"395 600 OFFCURVE",
"250 600 CURVE",
"193 543 LINE",
"341 543 OFFCURVE",
"390 503 OFFCURVE",
"390 405 CURVE SMOOTH",
"390 334 OFFCURVE",
"334 305 OFFCURVE",
"170 305 CURVE",
"170 250 LINE"
);
}
);
};
components = (
{
name = I;
}
);
layerId = "AE56CDC1-E6E7-41FE-9BA5-74B8A275F0A7";
name = "Aug 23 17, 15:27";
paths = (
{
closed = 1;
nodes = (
"388 14 OFFCURVE",
"403 22 OFFCURVE",
"418 30 CURVE SMOOTH",
"518 84 OFFCURVE",
"573 188 OFFCURVE",
"573 295 CURVE SMOOTH",
"573 348 OFFCURVE",
"559 402 OFFCURVE",
"531 450 CURVE SMOOTH",
"474 549 OFFCURVE",
"380 600 OFFCURVE",
"243 600 CURVE",
"174 538 LINE",
"281 538 OFFCURVE",
"385 498 OFFCURVE",
"441 399 CURVE SMOOTH",
"469 351 OFFCURVE",
"482 297 OFFCURVE",
"482 245 CURVE SMOOTH",
"482 155 OFFCURVE",
"443 67 OFFCURVE",
"372 8 CURVE"
);
},
{
closed = 1;
nodes = (
"193 0 LINE",
"315 0 LINE",
"315 73 LINE",
"193 72 LINE"
);
},
{
closed = 1;
nodes = (
"315 0 LINE",
"405 0 OFFCURVE",
"443 50 OFFCURVE",
"450 78 CURVE",
"465 135 LINE",
"458 107 OFFCURVE",
"415 74 OFFCURVE",
"315 73 CURVE"
);
}
);
width = 996;
},
{
layerId = "AEDC8121-3E5B-40FA-BC83-3F7147C1C4F3";
width = 600;
},
{
layerId = "71685E8E-84B4-4751-A208-735D4797FBD3";
width = 600;
}
);
leftMetricsKey = I;
rightMetricsKey = O;
unicode = 0044;
},
{
glyphname = E;
lastChange = "2017-08-24 17:23:33 +0000";
layers = (
{
associatedMasterId = "EA4A3C90-BC2A-43B1-AFC3-03A46CC68B95";
layerId = "5D6DE199-2567-46F6-BB9B-DBFCD08887C7";
name = "Aug 22 17, 12:56";
paths = (
{
closed = 1;
nodes = (
"484 38 OFFCURVE",
"498 48 OFFCURVE",
"510 58 CURVE",
"378 9 OFFCURVE",
"224 62 OFFCURVE",
"151 188 CURVE SMOOTH",
"78 314 OFFCURVE",
"110 474 OFFCURVE",
"218 564 CURVE",
"203 558 OFFCURVE",
"188 551 OFFCURVE",
"173 542 CURVE SMOOTH",
"32 461 OFFCURVE",
"-17 279 OFFCURVE",
"65 138 CURVE SMOOTH",
"146 -3 OFFCURVE",
"328 -52 OFFCURVE",
"469 30 CURVE SMOOTH"
);
},
{
closed = 1;
nodes = (
"239 554 OFFCURVE",
"361 528 OFFCURVE",
"448 441 CURVE",
"509 514 LINE",
"416 592 OFFCURVE",
"278 604 OFFCURVE",
"173 542 CURVE",
"158 534 OFFCURVE",
"144 524 OFFCURVE",
"132 514 CURVE"
);
},
{
closed = 1;
nodes = (
"44 299 OFFCURVE",
"58 289 OFFCURVE",
"73 281 CURVE",
"178 219 OFFCURVE",
"316 231 OFFCURVE",
"409 309 CURVE",
"348 382 LINE",
"261 295 OFFCURVE",
"139 269 OFFCURVE",
"32 309 CURVE"
);
}
);
width = 525;
},
{
associatedMasterId = "EA4A3C90-BC2A-43B1-AFC3-03A46CC68B95";
background = {
components = (
{
name = I;
transform = "{0, -1, 1, 0, -227, 452}";
}
);
paths = (
{
closed = 1;
nodes = (
"415 526 OFFCURVE",
"458 493 OFFCURVE",
"465 465 CURVE",
"450 522 LINE",
"443 550 OFFCURVE",
"405 600 OFFCURVE",
"315 600 CURVE",
"315 527 LINE"
);
},
{
closed = 1;
nodes = (
"465 527 LINE",
"465 600 LINE",
"315 600 LINE",
"315 527 LINE"
);
},
{
closed = 1;
nodes = (
"375 547 LINE",
"465 456 LINE",
"465 547 LINE"
);
}
);
};
components = (
{
name = I;
}
);
guideLines = (
{
angle = 270;
position = "{465, 300}";
}
);
layerId = "4B8896A0-D602-4F1E-AA1E-69A553C041BB";
name = "Aug 22 17, 13:03";
paths = (
{
closed = 1;
nodes = (
"193 0 LINE",
"315 0 LINE",
"315 73 LINE",
"193 72 LINE"
);
},
{
closed = 1;
nodes = (
"315 0 LINE",
"405 0 OFFCURVE",
"443 50 OFFCURVE",
"450 78 CURVE",
"465 135 LINE",
"458 107 OFFCURVE",
"415 74 OFFCURVE",
"315 73 CURVE"
);
},
{
closed = 1;
nodes = (
"193 266 LINE",
"315 266 LINE",
"315 339 LINE",
"193 338 LINE"
);
},
{
closed = 1;
nodes = (
"280 302 LINE",
"366 216 LINE",
"366 388 LINE"
);
},
{
closed = 1;
nodes = (
"315 527 LINE",
"315 600 LINE",
"193 600 LINE",
"193 528 LINE"
);
},
{
closed = 1;
nodes = (
"415 526 OFFCURVE",
"458 493 OFFCURVE",
"465 465 CURVE",
"450 522 LINE",
"443 550 OFFCURVE",
"405 600 OFFCURVE",
"315 600 CURVE",
"315 527 LINE"
);
}
);
width = 480;
},
{
associatedMasterId = "EA4A3C90-BC2A-43B1-AFC3-03A46CC68B95";
background = {
components = (
{
name = I;
transform = "{0, -1, 1, 0, -227, 452}";
}
);
paths = (
{
closed = 1;
nodes = (
"415 526 OFFCURVE",
"458 493 OFFCURVE",
"465 465 CURVE",
"450 522 LINE",
"443 550 OFFCURVE",
"405 600 OFFCURVE",
"315 600 CURVE",
"315 527 LINE"
);
},
{
closed = 1;
nodes = (
"465 527 LINE",
"465 600 LINE",
"315 600 LINE",
"315 527 LINE"
);
},
{
closed = 1;
nodes = (
"375 547 LINE",
"465 456 LINE",
"465 547 LINE"
);
}
);
};
components = (
{
name = I;
}
);
guideLines = (
{
angle = 270;
position = "{465, 300}";
},
{
angle = 104.7436;
position = "{465, 456}";
}
);
layerId = "5F7DED28-10AD-4089-9BC8-2DF6D563B2DC";
name = "Aug 22 17, 13:05";
paths = (
{
closed = 1;
nodes = (
"193 0 LINE",
"315 0 LINE",
"315 73 LINE",
"193 72 LINE"
);
},
{
closed = 1;
nodes = (
"193 266 LINE",
"315 266 LINE",
"315 339 LINE",
"193 338 LINE"
);
},
{
closed = 1;
nodes = (
"280 302 LINE",
"366 216 LINE",
"366 388 LINE"
);
},
{
closed = 1;
nodes = (
"446 527 LINE",
"427 600 LINE",
"193 600 LINE",
"193 528 LINE"
);
},
{
closed = 1;
nodes = (
"375 547 LINE",
"465 456 LINE",
"441 547 LINE"
);
},
{
closed = 1;
nodes = (
"193 0 LINE",
"427 0 LINE",
"446 73 LINE",
"193 72 LINE"
);
},
{
closed = 1;
nodes = (
"465 144 LINE",
"375 53 LINE",
"441 53 LINE"
);
}
);
width = 480;
},
{
background = {
components = (
{
name = I;
transform = "{0, -1, 1, 0, -227, 452}";
}
);
paths = (
{
closed = 1;
nodes = (
"415 526 OFFCURVE",
"458 493 OFFCURVE",
"465 465 CURVE",
"450 522 LINE",
"443 550 OFFCURVE",
"405 600 OFFCURVE",
"315 600 CURVE",
"315 527 LINE"
);
},
{
closed = 1;
nodes = (
"465 527 LINE",
"465 600 LINE",
"315 600 LINE",
"315 527 LINE"
);
},
{
closed = 1;
nodes = (
"375 547 LINE",
"465 456 LINE",
"465 547 LINE"
);
}
);
};
components = (
{
name = I;
}
);
guideLines = (
{
angle = 270;
position = "{465, 300}";
},
{
angle = 104.7436;
position = "{465, 456}";
}
);
layerId = "EA4A3C90-BC2A-43B1-AFC3-03A46CC68B95";
paths = (
{
closed = 1;
nodes = (
"193 0 LINE",
"325 0 LINE",
"325 73 LINE",
"193 72 LINE"
);
},
{
closed = 1;
nodes = (
"325 0 LINE",
"415 0 OFFCURVE",
"453 50 OFFCURVE",
"460 78 CURVE",
"475 135 LINE",
"468 107 OFFCURVE",
"425 74 OFFCURVE",
"325 73 CURVE"
);
},
{
closed = 1;
nodes = (
"193 266 LINE",
"315 266 LINE",
"315 339 LINE",
"193 338 LINE"
);
},
{
closed = 1;
nodes = (
"280 302 LINE",
"366 216 LINE",
"366 388 LINE"
);
},
{
closed = 1;
nodes = (
"446 527 LINE",
"427 600 LINE",
"193 600 LINE",
"193 528 LINE"
);
},
{
closed = 1;
nodes = (
"375 547 LINE",
"465 456 LINE",
"441 547 LINE"
);
}
);
width = 495;
},
{
layerId = "AEDC8121-3E5B-40FA-BC83-3F7147C1C4F3";
width = 600;
},
{
layerId = "71685E8E-84B4-4751-A208-735D4797FBD3";
width = 600;
}
);
leftMetricsKey = I;
rightMetricsKey = C;
unicode = 0045;
},
{
glyphname = F;
lastChange = "2017-08-24 17:23:33 +0000";
layers = (
{
background = {
paths = (
{
closed = 1;
nodes = (
"193 0 LINE",
"325 0 LINE",
"325 73 LINE",
"193 72 LINE"
);
},
{
closed = 1;
nodes = (
"325 0 LINE",
"415 0 OFFCURVE",
"453 50 OFFCURVE",
"460 78 CURVE",
"475 135 LINE",
"468 107 OFFCURVE",
"425 74 OFFCURVE",
"325 73 CURVE"
);
}
);
};
components = (
{
name = I;
}
);
layerId = "EA4A3C90-BC2A-43B1-AFC3-03A46CC68B95";
paths = (
{
closed = 1;
nodes = (
"193 266 LINE",
"315 266 LINE",
"315 339 LINE",
"193 338 LINE"
);
},
{
closed = 1;
nodes = (
"280 302 LINE",
"366 216 LINE",
"366 388 LINE"
);
},
{
closed = 1;
nodes = (
"446 527 LINE",
"427 600 LINE",
"193 600 LINE",
"193 528 LINE"
);
},
{
closed = 1;
nodes = (
"375 547 LINE",
"465 456 LINE",
"441 547 LINE"
);
}
);
width = 485;
},
{
layerId = "AEDC8121-3E5B-40FA-BC83-3F7147C1C4F3";
width = 600;
},
{
layerId = "71685E8E-84B4-4751-A208-735D4797FBD3";
width = 600;
}
);
leftMetricsKey = E;
rightMetricsKey = E;
unicode = 0046;
},
{
glyphname = G;
lastChange = "2017-08-24 17:23:33 +0000";
layers = (
{
components = (
{
name = C;
}
);
layerId = "EA4A3C90-BC2A-43B1-AFC3-03A46CC68B95";
paths = (
{
closed = 1;
nodes = (
"449 0 LINE",
"534 0 LINE",
"534 275 LINE",
"449 275 LINE"
);
},
{
closed = 1;
nodes = (
"591 0 LINE",
"491 100 LINE",
"491 0 LINE"
);
},
{
closed = 1;
nodes = (
"491 175 LINE",
"591 275 LINE",
"391 275 LINE"
);
}
);
width = 641;
},
{
associatedMasterId = "EA4A3C90-BC2A-43B1-AFC3-03A46CC68B95";
components = (
{
name = C;
}
);
layerId = "E535324E-A2C8-45A6-88A3-9CBF947C3783";
name = "Aug 23 17, 15:36";
paths = (
{
closed = 1;
nodes = (
"449 0 LINE",
"534 0 LINE",
"534 300 LINE",
"449 300 LINE"
);
},
{
closed = 1;
nodes = (
"591 0 LINE",
"491 100 LINE",
"491 0 LINE"
);
},
{
closed = 1;
nodes = (
"491 200 LINE",
"591 300 LINE",
"391 300 LINE"
);
}
);
width = 859;
},
{
associatedMasterId = "EA4A3C90-BC2A-43B1-AFC3-03A46CC68B95";
components = (
{
name = C;
}
);
layerId = "B98AF55F-C71C-48E9-BBAA-4186FD7A1607";
name = "Aug 23 17, 15:36";
paths = (
{
closed = 1;
nodes = (
"449 0 LINE",
"534 0 LINE",
"534 250 LINE",
"449 250 LINE"
);
},
{
closed = 1;
nodes = (
"591 0 LINE",
"491 100 LINE",
"491 0 LINE"
);
},
{
closed = 1;
nodes = (
"491 150 LINE",
"591 250 LINE",
"391 250 LINE"
);
}
);
width = 859;
},
{
layerId = "AEDC8121-3E5B-40FA-BC83-3F7147C1C4F3";
width = 600;
},
{
layerId = "71685E8E-84B4-4751-A208-735D4797FBD3";
width = 600;
}
);
leftMetricsKey = O;
rightMetricsKey = I;
unicode = 0047;
},
{
glyphname = H;
lastChange = "2017-08-24 17:23:33 +0000";
layers = (
{
background = {
paths = (
{
closed = 1;
nodes = (
"250 0 LINE",
"350 0 LINE",
"350 710 LINE",
"250 710 LINE"
);
},
{
closed = 1;
nodes = (
"650 0 LINE",
"750 0 LINE",
"750 710 LINE",
"650 710 LINE"
);
}
);
};
components = (
{
name = I;
},
{
name = I;
transform = "{1, 0, 0, 1, 350, 0}";
}
);
layerId = "EA4A3C90-BC2A-43B1-AFC3-03A46CC68B95";
paths = (
{
closed = 1;
nodes = (
"510 250 LINE",
"510 335 LINE",
"170 335 LINE",
"170 250 LINE"
);
}
);
width = 650;
},
{
layerId = "AEDC8121-3E5B-40FA-BC83-3F7147C1C4F3";
width = 600;
},
{
layerId = "71685E8E-84B4-4751-A208-735D4797FBD3";
width = 600;
}
);
leftMetricsKey = I;
rightMetricsKey = I;
unicode = 0048;
},
{
glyphname = I;
lastChange = "2017-08-24 17:23:33 +0000";
layers = (
{
associatedMasterId = "EA4A3C90-BC2A-43B1-AFC3-03A46CC68B95";
layerId = "7DA46ADB-1B7A-463A-8F2B-89B11519FDC6";
name = "Aug 22 17, 11:57";
paths = (
{
closed = 1;
nodes = (
"83 0 OFFCURVE",
"117 2 OFFCURVE",
"150 2 CURVE SMOOTH",
"183 2 OFFCURVE",
"217 0 OFFCURVE",
"250 0 CURVE",
"231 19 OFFCURVE",
"193 39 OFFCURVE",
"193 57 CURVE",
"193 219 OFFCURVE",
"193 381 OFFCURVE",
"193 543 CURVE",
"193 562 OFFCURVE",
"231 581 OFFCURVE",
"250 600 CURVE",
"217 600 OFFCURVE",
"183 598 OFFCURVE",
"150 598 CURVE SMOOTH",
"117 598 OFFCURVE",
"83 600 OFFCURVE",
"50 600 CURVE",
"69 581 OFFCURVE",
"108 561 OFFCURVE",
"108 542 CURVE",
"108 381 OFFCURVE",
"108 219 OFFCURVE",
"108 58 CURVE",
"108 39 OFFCURVE",
"69 19 OFFCURVE",
"50 0 CURVE"
);
}
);
width = 300;
},
{
layerId = "EA4A3C90-BC2A-43B1-AFC3-03A46CC68B95";
paths = (
{
closed = 1;
nodes = (
"108 0 LINE",
"193 0 LINE",
"193 600 LINE",
"108 600 LINE"
);
},
{
closed = 1;
nodes = (
"250 0 LINE",
"150 100 LINE",
"50 0 LINE"
);
},
{
closed = 1;
nodes = (
"150 500 LINE",
"250 600 LINE",
"50 600 LINE"
);
}
);
width = 300;
},
{
layerId = "AEDC8121-3E5B-40FA-BC83-3F7147C1C4F3";
width = 600;
},
{
layerId = "71685E8E-84B4-4751-A208-735D4797FBD3";
width = 600;
}
);
unicode = 0049;
},
{
glyphname = J;
lastChange = "2017-08-24 18:06:21 +0000";
layers = (
{
background = {
paths = (
{
closed = 1;
nodes = (
"181 100 LINE",
"81 0 LINE",
"281 0 LINE"
);
},
{
closed = 1;
nodes = (
"16 73 LINE",
"16 0 LINE",
"138 0 LINE",
"138 72 LINE"
);
},
{
closed = 1;
nodes = (
"-84 74 OFFCURVE",
"-127 107 OFFCURVE",
"-134 135 CURVE",
"-119 78 LINE",
"-112 50 OFFCURVE",
"-74 0 OFFCURVE",
"16 0 CURVE",
"16 73 LINE"
);
},
{
closed = 1;
nodes = (
"224 257 LINE",
"232 319 OFFCURVE",
"220 384 OFFCURVE",
"186 443 CURVE SMOOTH",
"103 586 OFFCURVE",
"-81 634 OFFCURVE",
"-225 553 CURVE SMOOTH",
"-241 544 OFFCURVE",
"-255 535 OFFCURVE",
"-268 524 CURVE",
"-133 574 OFFCURVE",
"24 521 OFFCURVE",
"98 392 CURVE SMOOTH",
"123 349 OFFCURVE",
"136 303 OFFCURVE",
"138 257 CURVE"
);
}
);
};
layerId = "EA4A3C90-BC2A-43B1-AFC3-03A46CC68B95";
paths = (
{
closed = 1;
nodes = (
"138 600 LINE",
"138 150 LINE",
"223 150 LINE",
"223 600 LINE"
);
},
{
closed = 1;
nodes = (
"81 600 LINE",
"181 500 LINE",
"281 600 LINE"
);
},
{
closed = 1;
nodes = (
"138 150 LINE",
"138 59 OFFCURVE",
"104 -39 OFFCURVE",
"30 -100 CURVE",
"132 -62 OFFCURVE",
"223 41 OFFCURVE",
"223 150 CURVE"
);
}
);
width = 321;
},
{
layerId = "AEDC8121-3E5B-40FA-BC83-3F7147C1C4F3";
width = 570;
},
{
layerId = "71685E8E-84B4-4751-A208-735D4797FBD3";
width = 570;
}
);
leftMetricsKey = "=I-20";
rightMetricsKey = "=I-10";
unicode = 004A;
},
{
glyphname = K;
lastChange = "2017-08-24 17:23:33 +0000";
layers = (
{
background = {
paths = (
{
closed = 1;
nodes = (
"348 0 LINE",
"433 0 LINE",
"433 600 LINE",
"348 600 LINE"
);
},
{
closed = 1;
nodes = (
"390 500 LINE",
"490 600 LINE",
"290 600 LINE"
);
},
{
closed = 1;
nodes = (
"366 0 LINE",
"485 0 LINE",
"194 356 LINE",
"108 307 LINE"
);
}
);
};
components = (
{
name = I;
}
);
guideLines = (
{
angle = 45;
position = "{690, 500}";
},
{
angle = -45;
position = "{447, 100}";
},
{
angle = 90;
position = "{547, 0}";
},
{
angle = 225.1059;
position = "{362, 514}";
}
);
layerId = "EA4A3C90-BC2A-43B1-AFC3-03A46CC68B95";
paths = (
{
closed = 1;
nodes = (
"108 0 LINE",
"193 0 LINE",
"193 530 LINE",
"108 530 LINE"
);
},
{
closed = 1;
nodes = (
"250 0 LINE",
"150 100 LINE",
"50 0 LINE"
);
},
{
closed = 1;
nodes = (
"436 0 LINE",
"547 0 LINE",
"179 368 LINE",
"114 313 LINE"
);
},
{
closed = 1;
nodes = (
"426 500 LINE",
"526 600 LINE",
"326 600 LINE"
);
},
{
closed = 1;
nodes = (
"151 315 LINE",
"193 266 LINE",
"526 600 LINE",
"435 600 LINE"
);
},
{
closed = 1;
nodes = (
"547 0 LINE",
"447 100 LINE",
"347 0 LINE"
);
}
);
width = 680;
},
{
associatedMasterId = "EA4A3C90-BC2A-43B1-AFC3-03A46CC68B95";
background = {
paths = (
{
closed = 1;
nodes = (
"348 0 LINE",
"433 0 LINE",
"433 600 LINE",
"348 600 LINE"
);
},
{
closed = 1;
nodes = (
"390 500 LINE",
"490 600 LINE",
"290 600 LINE"
);
},
{
closed = 1;
nodes = (
"366 0 LINE",
"485 0 LINE",
"194 356 LINE",
"108 307 LINE"
);
}
);
};
components = (
{
name = I;
}
);
guideLines = (
{
angle = 45;
position = "{690, 500}";
},
{
angle = -45;
position = "{480, 100}";
},
{
angle = 90;
position = "{540, 217}";
}
);
layerId = "B0126690-F17B-4B46-9D78-3803CA7A0DEC";
name = "Aug 23 17, 16:21";
paths = (
{
closed = 1;
nodes = (
"108 0 LINE",
"193 0 LINE",
"193 530 LINE",
"108 530 LINE"
);
},
{
closed = 1;
nodes = (
"250 0 LINE",
"150 100 LINE",
"50 0 LINE"
);
},
{
closed = 1;
nodes = (
"469 0 LINE",
"580 0 LINE",
"179 401 LINE",
"114 346 LINE"
);
},
{
closed = 1;
nodes = (
"425 500 LINE",
"525 600 LINE",
"325 600 LINE"
);
},
{
closed = 1;
nodes = (
"112 307 LINE",
"167 242 LINE",
"452 527 LINE",
"397 592 LINE"
);
},
{
closed = 1;
nodes = (
"580 0 LINE",
"480 100 LINE",
"380 0 LINE"
);
}
);
width = 680;
},
{
associatedMasterId = "EA4A3C90-BC2A-43B1-AFC3-03A46CC68B95";
background = {
paths = (
{
closed = 1;
nodes = (
"348 0 LINE",
"433 0 LINE",
"433 600 LINE",
"348 600 LINE"
);
},
{
closed = 1;
nodes = (
"390 500 LINE",
"490 600 LINE",
"290 600 LINE"
);
},
{
closed = 1;
nodes = (
"366 0 LINE",
"485 0 LINE",
"194 356 LINE",
"108 307 LINE"
);
}
);
};
components = (
{
name = I;
}
);
guideLines = (
{
angle = 45;
position = "{690, 500}";
},
{
angle = -45;
position = "{480, 100}";
},
{
angle = 90;
position = "{540, 217}";
}
);
layerId = "710BEB62-1318-4D6F-A8CD-7C3961400C8F";
name = "Aug 23 17, 16:24";
paths = (
{
closed = 1;
nodes = (
"108 0 LINE",
"193 0 LINE",
"193 530 LINE",
"108 530 LINE"
);
},
{
closed = 1;
nodes = (
"250 0 LINE",
"150 100 LINE",
"50 0 LINE"
);
},
{
closed = 1;
nodes = (
"468 0 LINE",
"579 0 LINE",
"178 401 LINE",
"113 346 LINE"
);
},
{
closed = 1;
nodes = (
"429 500 LINE",
"529 600 LINE",
"329 600 LINE"
);
},
{
closed = 1;
nodes = (
"116 307 LINE",
"171 242 LINE",
"456 527 LINE",
"401 592 LINE"
);
},
{
closed = 1;
nodes = (
"579 0 LINE",
"479 100 LINE",
"379 0 LINE"
);
}
);
width = 680;
},
{
associatedMasterId = "EA4A3C90-BC2A-43B1-AFC3-03A46CC68B95";
background = {
paths = (
{
closed = 1;
nodes = (
"348 0 LINE",
"433 0 LINE",
"433 600 LINE",
"348 600 LINE"
);
},
{
closed = 1;
nodes = (
"390 500 LINE",
"490 600 LINE",
"290 600 LINE"
);
},
{
closed = 1;
nodes = (
"366 0 LINE",
"485 0 LINE",
"194 356 LINE",
"108 307 LINE"
);
}
);
};
components = (
{
name = I;
}
);
guideLines = (
{
angle = 45;
position = "{690, 500}";
},
{
angle = -45;
position = "{427, 100}";
},
{
angle = 90;
position = "{569, 0}";
},
{
angle = 225.1059;
position = "{362, 514}";
}
);
layerId = "15560893-96C6-4A3B-BB87-C2A65674F79D";
name = "Aug 23 17, 16:29";
paths = (
{
closed = 1;
nodes = (
"108 0 LINE",
"193 0 LINE",
"193 530 LINE",
"108 530 LINE"
);
},
{
closed = 1;
nodes = (
"250 0 LINE",
"150 100 LINE",
"50 0 LINE"
);
},
{
closed = 1;
nodes = (
"416 0 LINE",
"527 0 LINE",
"183 344 LINE",
"118 289 LINE"
);
},
{
closed = 1;
nodes = (
"426 500 LINE",
"526 600 LINE",
"326 600 LINE"
);
},
{
closed = 1;
nodes = (
"151 315 LINE",
"193 266 LINE",
"526 600 LINE",
"435 600 LINE"
);
},
{
closed = 1;
nodes = (
"527 0 LINE",
"427 100 LINE",
"327 0 LINE"
);
}
);
width = 680;
},
{
associatedMasterId = "EA4A3C90-BC2A-43B1-AFC3-03A46CC68B95";
background = {
paths = (
{
closed = 1;
nodes = (
"348 0 LINE",
"433 0 LINE",
"433 600 LINE",
"348 600 LINE"
);
},
{
closed = 1;
nodes = (
"390 500 LINE",
"490 600 LINE",
"290 600 LINE"
);
},
{
closed = 1;
nodes = (
"366 0 LINE",
"485 0 LINE",
"194 356 LINE",
"108 307 LINE"
);
}
);
};
components = (
{
name = I;
}
);
guideLines = (
{
angle = 45;
position = "{690, 500}";
},
{
angle = -45;
position = "{427, 100}";
},
{
angle = 90;
position = "{537, 0}";
},
{
angle = 225.1059;
position = "{362, 514}";
}
);
layerId = "E704F81B-E36D-474C-B9BA-3733C5C3E76C";
name = "Aug 23 17, 16:29";
paths = (
{
closed = 1;
nodes = (
"108 0 LINE",
"193 0 LINE",
"193 530 LINE",
"108 530 LINE"
);
},
{
closed = 1;
nodes = (
"250 0 LINE",
"150 100 LINE",
"50 0 LINE"
);
},
{
closed = 1;
nodes = (
"426 0 LINE",
"537 0 LINE",
"193 344 LINE",
"128 289 LINE"
);
},
{
closed = 1;
nodes = (
"416 500 LINE",
"516 600 LINE",
"316 600 LINE"
);
},
{
closed = 1;
nodes = (
"141 315 LINE",
"183 266 LINE",
"516 600 LINE",
"425 600 LINE"
);
},
{
closed = 1;
nodes = (
"537 0 LINE",
"437 100 LINE",
"337 0 LINE"
);
}
);
width = 680;
},
{
layerId = "AEDC8121-3E5B-40FA-BC83-3F7147C1C4F3";
width = 600;
},
{
layerId = "71685E8E-84B4-4751-A208-735D4797FBD3";
width = 600;
}
);
unicode = 004B;
},
{
glyphname = L;
lastChange = "2017-08-24 18:06:21 +0000";
layers = (
{
components = (
{
name = I;
}
);
guideLines = (
{
angle = 225;
position = "{450, 142}";
},
{
angle = 225;
position = "{443, 85}";
},
{
angle = 255;
position = "{415, 73}";
},
{
angle = 255;
position = "{465, 134}";
}
);
layerId = "EA4A3C90-BC2A-43B1-AFC3-03A46CC68B95";
paths = (
{
closed = 1;
nodes = (
"193 0 LINE",
"315 0 LINE",
"315 73 LINE",
"193 72 LINE"
);
},
{
closed = 1;
nodes = (
"315 0 LINE",
"405 0 OFFCURVE",
"443 50 OFFCURVE",
"450 78 CURVE",
"465 135 LINE",
"458 107 OFFCURVE",
"415 74 OFFCURVE",
"315 73 CURVE"
);
}
);
width = 490;
},
{
associatedMasterId = "EA4A3C90-BC2A-43B1-AFC3-03A46CC68B95";
components = (
{
name = I;
}
);
layerId = "107416B5-EB60-4902-8C03-12A0AA6B79CC";
name = "Aug 22 17, 11:19";
paths = (
{
closed = 1;
nodes = (
"193 0 LINE",
"425 0 LINE",
"425 85 LINE",
"193 57 LINE"
);
},
{
closed = 1;
nodes = (
"425 142 LINE",
"193 57 LINE",
"425 85 LINE"
);
}
);
width = 450;
},
{
associatedMasterId = "EA4A3C90-BC2A-43B1-AFC3-03A46CC68B95";
components = (
{
name = I;
}
);
guideLines = (
{
angle = 225;
position = "{443, 142}";
},
{
angle = 225;
position = "{443, 85}";
}
);
layerId = "449411E5-8530-475A-A05E-9E24EF81FC47";
name = "Aug 22 17, 11:22";
paths = (
{
closed = 1;
nodes = (
"193 0 LINE",
"378 0 LINE",
"463 85 LINE",
"193 85 LINE"
);
},
{
closed = 1;
nodes = (
"378 0 LINE",
"463 85 LINE",
"463 170 LINE",
"378 85 LINE"
);
}
);
width = 488;
},
{
associatedMasterId = "EA4A3C90-BC2A-43B1-AFC3-03A46CC68B95";
components = (
{
name = I;
}
);
layerId = "EFBC8EA6-40E1-43BE-93E7-FFA3E12C16E6";
name = "Aug 22 17, 11:24";
paths = (
{
closed = 1;
nodes = (
"193 0 LINE",
"443 0 LINE",
"443 85 LINE",
"193 85 LINE"
);
},
{
closed = 1;
nodes = (
"443 142 LINE",
"386 85 LINE",
"443 85 LINE"
);
}
);
width = 468;
},
{
associatedMasterId = "EA4A3C90-BC2A-43B1-AFC3-03A46CC68B95";
components = (
{
name = I;
}
);
guideLines = (
{
angle = 225;
position = "{443, 142}";
},
{
angle = 225;
position = "{443, 85}";
}
);
layerId = "AD4113A7-7818-4E13-9F0E-F59BA33F2E0D";
name = "Aug 22 17, 11:59";
paths = (
{
closed = 1;
nodes = (
"193 0 LINE",
"337 0 LINE",
"387 0 OFFCURVE",
"450 57 OFFCURVE",
"450 85 CURVE",
"193 85 LINE"
);
},
{
closed = 1;
nodes = (
"337 0 LINE",
"387 0 OFFCURVE",
"450 57 OFFCURVE",
"450 85 CURVE",
"450 142 LINE",
"450 114 OFFCURVE",
"387 85 OFFCURVE",
"337 85 CURVE"
);
}
);
width = 475;
},
{
layerId = "AEDC8121-3E5B-40FA-BC83-3F7147C1C4F3";
width = 575;
},
{
layerId = "71685E8E-84B4-4751-A208-735D4797FBD3";
width = 575;
}
);
leftMetricsKey = I;
rightMetricsKey = "=I-25";
unicode = 004C;
},
{
glyphname = M;
lastChange = "2017-08-24 17:23:33 +0000";
layers = (
{
background = {
paths = (
{
closed = 1;
nodes = (
"488 0 LINE",
"607 0 LINE",
"154 626 LINE",
"68 577 LINE"
);
}
);
};
layerId = "EA4A3C90-BC2A-43B1-AFC3-03A46CC68B95";
paths = (
{
closed = 1;
nodes = (
"608 0 LINE",
"693 0 LINE",
"693 600 LINE",
"608 600 LINE"
);
},
{
closed = 1;
nodes = (
"650 500 LINE",
"750 600 LINE",
"550 600 LINE"
);
},
{
closed = 1;
nodes = (
"108 0 LINE",
"193 0 LINE",
"193 560 LINE",
"108 560 LINE"
);
},
{
closed = 1;
nodes = (
"250 0 LINE",
"150 100 LINE",
"50 0 LINE"
);
},
{
closed = 1;
nodes = (
"750 0 LINE",
"650 100 LINE",
"550 0 LINE"
);
},
{
closed = 1;
nodes = (
"452 100 LINE",
"186 600 LINE",
"83 600 LINE",
"349 100 LINE"
);
},
{
closed = 1;
nodes = (
"693 580 LINE",
"628 580 LINE",
"369 100 LINE",
"434 100 LINE"
);
}
);
width = 800;
},
{
associatedMasterId = "EA4A3C90-BC2A-43B1-AFC3-03A46CC68B95";
background = {
paths = (
{
closed = 1;
nodes = (
"488 0 LINE",
"607 0 LINE",
"154 626 LINE",
"68 577 LINE"
);
}
);
};
components = (
{
name = V;
transform = "{1, 0, 0, 1, 21, 0}";
}
);
layerId = "D2F7154C-3E27-47F8-A500-47633821B39D";
name = "Aug 23 17, 16:34";
paths = (
{
closed = 1;
nodes = (
"494 0 LINE",
"579 0 LINE",
"579 600 LINE",
"494 600 LINE"
);
},
{
closed = 1;
nodes = (
"536 500 LINE",
"636 600 LINE",
"436 600 LINE"
);
},
{
closed = 1;
nodes = (
"108 0 LINE",
"193 0 LINE",
"193 530 LINE",
"108 530 LINE"
);
},
{
closed = 1;
nodes = (
"250 0 LINE",
"150 100 LINE",
"50 0 LINE"
);
},
{
closed = 1;
nodes = (
"636 0 LINE",
"536 100 LINE",
"436 0 LINE"
);
}
);
width = 680;
},
{
associatedMasterId = "EA4A3C90-BC2A-43B1-AFC3-03A46CC68B95";
background = {
paths = (
{
closed = 1;
nodes = (
"488 0 LINE",
"607 0 LINE",
"154 626 LINE",
"68 577 LINE"
);
}
);
};
layerId = "7FE4E3C5-2B40-4967-831B-8F20AEC72637";
name = "Aug 23 17, 16:34";
paths = (
{
closed = 1;
nodes = (
"504 0 LINE",
"589 0 LINE",
"589 600 LINE",
"504 600 LINE"
);
},
{
closed = 1;
nodes = (
"546 500 LINE",
"646 600 LINE",
"446 600 LINE"
);
},
{
closed = 1;
nodes = (
"108 0 LINE",
"193 0 LINE",
"193 530 LINE",
"108 530 LINE"
);
},
{
closed = 1;
nodes = (
"250 0 LINE",
"150 100 LINE",
"50 0 LINE"
);
},
{
closed = 1;
nodes = (
"646 0 LINE",
"546 100 LINE",
"446 0 LINE"
);
},
{
closed = 1;
nodes = (
"398 0 LINE",
"186 600 LINE",
"83 600 LINE",
"295 0 LINE"
);
},
{
closed = 1;
nodes = (
"51 600 LINE",
"151 500 LINE",
"251 600 LINE"
);
},
{
closed = 1;
nodes = (
"593 600 LINE",
"528 600 LINE",
"315 0 LINE",
"380 0 LINE"
);
}
);
width = 680;
},
{
associatedMasterId = "EA4A3C90-BC2A-43B1-AFC3-03A46CC68B95";
background = {
paths = (
{
closed = 1;
nodes = (
"488 0 LINE",
"607 0 LINE",
"154 626 LINE",
"68 577 LINE"
);
}
);
};
layerId = "2307E4B2-2434-4C06-A656-E563E99AA93D";
name = "Aug 23 17, 16:36";
paths = (
{
closed = 1;
nodes = (
"504 0 LINE",
"589 0 LINE",
"589 600 LINE",
"504 600 LINE"
);
},
{
closed = 1;
nodes = (
"546 500 LINE",
"646 600 LINE",
"446 600 LINE"
);
},
{
closed = 1;
nodes = (
"108 0 LINE",
"193 0 LINE",
"193 560 LINE",
"108 560 LINE"
);
},
{
closed = 1;
nodes = (
"250 0 LINE",
"150 100 LINE",
"50 0 LINE"
);
},
{
closed = 1;
nodes = (
"646 0 LINE",
"546 100 LINE",
"446 0 LINE"
);
},
{
closed = 1;
nodes = (
"398 100 LINE",
"186 600 LINE",
"83 600 LINE",
"295 100 LINE"
);
},
{
closed = 1;
nodes = (
"51 600 LINE",
"151 500 LINE",
"251 600 LINE"
);
},
{
closed = 1;
nodes = (
"593 600 LINE",
"528 600 LINE",
"315 100 LINE",
"380 100 LINE"
);
}
);
width = 680;
},
{
associatedMasterId = "EA4A3C90-BC2A-43B1-AFC3-03A46CC68B95";
background = {
paths = (
{
closed = 1;
nodes = (
"488 0 LINE",
"607 0 LINE",
"154 626 LINE",
"68 577 LINE"
);
}
);
};
layerId = "8AEB61D1-9369-4A0E-A49C-E754C93E4DEC";
name = "Aug 23 17, 16:54";
paths = (
{
closed = 1;
nodes = (
"508 0 LINE",
"593 0 LINE",
"593 600 LINE",
"508 600 LINE"
);
},
{
closed = 1;
nodes = (
"550 500 LINE",
"650 600 LINE",
"450 600 LINE"
);
},
{
closed = 1;
nodes = (
"108 0 LINE",
"193 0 LINE",
"193 560 LINE",
"108 560 LINE"
);
},
{
closed = 1;
nodes = (
"250 0 LINE",
"150 100 LINE",
"50 0 LINE"
);
},
{
closed = 1;
nodes = (
"650 0 LINE",
"550 100 LINE",
"450 0 LINE"
);
},
{
closed = 1;
nodes = (
"402 100 LINE",
"186 600 LINE",
"83 600 LINE",
"299 100 LINE"
);
},
{
closed = 1;
nodes = (
"593 580 LINE",
"528 580 LINE",
"319 100 LINE",
"384 100 LINE"
);
}
);
width = 700;
},
{
layerId = "AEDC8121-3E5B-40FA-BC83-3F7147C1C4F3";
width = 600;
},
{
layerId = "71685E8E-84B4-4751-A208-735D4797FBD3";
width = 600;
}
);
leftMetricsKey = N;
rightMetricsKey = N;
unicode = 004D;
},
{
glyphname = N;
lastChange = "2017-08-24 17:23:33 +0000";
layers = (
{
guideLines = (
{
angle = -44.9481;
position = "{364, -64}";
},
{
angle = 124.0176;
position = "{577, 0}";
},
{
angle = 90;
position = "{50, 0}";
},
{
angle = 124.0176;
position = "{458, 0}";
}
);
layerId = "EA4A3C90-BC2A-43B1-AFC3-03A46CC68B95";
paths = (
{
closed = 1;
nodes = (
"488 0 LINE",
"573 0 LINE",
"573 600 LINE",
"488 600 LINE"
);
},
{
closed = 1;
nodes = (
"530 500 LINE",
"630 600 LINE",
"430 600 LINE"
);
},
{
closed = 1;
nodes = (
"108 0 LINE",
"193 0 LINE",
"193 530 LINE",
"108 530 LINE"
);
},
{
closed = 1;
nodes = (
"250 0 LINE",
"150 100 LINE",
"50 0 LINE"
);
},
{
closed = 1;
nodes = (
"488 0 LINE",
"607 0 LINE",
"154 626 LINE",
"68 577 LINE"
);
}
);
width = 680;
},
{
associatedMasterId = "EA4A3C90-BC2A-43B1-AFC3-03A46CC68B95";
components = (
{
name = I;
},
{
name = I;
transform = "{1, 0, 0, 1, 451, 0}";
}
);
guideLines = (
{
angle = -44.9481;
position = "{50, 600}";
},
{
angle = -44.9481;
position = "{600, 0}";
},
{
angle = -44.9481;
position = "{745, -8}";
}
);
layerId = "D8C2845B-DEB1-448C-B213-0E187FBB2DF6";
name = "Aug 22 17, 12:37";
paths = (
{
closed = 1;
nodes = (
"569 48 LINE",
"629 108 LINE",
"193 543 LINE",
"133 483 LINE"
);
}
);
width = 751;
},
{
associatedMasterId = "EA4A3C90-BC2A-43B1-AFC3-03A46CC68B95";
guideLines = (
{
angle = -44.9481;
position = "{364, -64}";
},
{
angle = 124.0176;
position = "{577, 0}";
},
{
angle = 90;
position = "{50, 0}";
},
{
angle = 124.0176;
position = "{458, 0}";
}
);
layerId = "119D7149-7246-4A06-BF02-44EE0BC42F75";
name = "Aug 22 17, 13:57";
paths = (
{
closed = 1;
nodes = (
"458 0 LINE",
"543 0 LINE",
"543 600 LINE",
"458 600 LINE"
);
},
{
closed = 1;
nodes = (
"500 500 LINE",
"600 600 LINE",
"400 600 LINE"
);
},
{
closed = 1;
nodes = (
"108 0 LINE",
"193 0 LINE",
"193 530 LINE",
"108 530 LINE"
);
},
{
closed = 1;
nodes = (
"250 0 LINE",
"150 100 LINE",
"50 0 LINE"
);
},
{
closed = 1;
nodes = (
"458 0 LINE",
"577 0 LINE",
"154 626 LINE",
"68 577 LINE"
);
}
);
width = 650;
},
{
layerId = "AEDC8121-3E5B-40FA-BC83-3F7147C1C4F3";
width = 600;
},
{
layerId = "71685E8E-84B4-4751-A208-735D4797FBD3";
width = 600;
}
);
leftMetricsKey = I;
rightMetricsKey = I;
unicode = 004E;
},
{
glyphname = O;
lastChange = "2017-08-24 17:23:33 +0000";
layers = (
{
associatedMasterId = "EA4A3C90-BC2A-43B1-AFC3-03A46CC68B95";
layerId = "BF2AAD09-7523-4815-9EAE-E311BC430D9D";
name = "Aug 22 17, 11:51";
paths = (
{
closed = 1;
nodes = (
"152 0 OFFCURVE",
"345 -54 OFFCURVE",
"490 33 CURVE SMOOTH",
"635 110 OFFCURVE",
"691 308 OFFCURVE",
"604 457 CURVE SMOOTH",
"518 604 OFFCURVE",
"325 658 OFFCURVE",
"180 571 CURVE SMOOTH",
"35 494 OFFCURVE",
"-21 296 OFFCURVE",
"66 147 CURVE SMOOTH"
);
},
{
closed = 1;
nodes = (
"97 312 OFFCURVE",
"110 452 OFFCURVE",
"191 551 CURVE",
"317 572 OFFCURVE",
"445 513 OFFCURVE",
"509 402 CURVE SMOOTH",
"573 292 OFFCURVE",
"560 152 OFFCURVE",
"479 53 CURVE",
"353 32 OFFCURVE",
"225 91 OFFCURVE",
"161 202 CURVE SMOOTH"
);
}
);
width = 670;
},
{
layerId = "EA4A3C90-BC2A-43B1-AFC3-03A46CC68B95";
paths = (
{
closed = 1;
nodes = (
"533 62 CURVE",
"394 11 OFFCURVE",
"233 64 OFFCURVE",
"157 197 CURVE SMOOTH",
"81 330 OFFCURVE",
"114 496 OFFCURVE",
"228 591 CURVE",
"212 585 OFFCURVE",
"195 578 OFFCURVE",
"180 569 CURVE SMOOTH",
"33 481 OFFCURVE",
"-20 293 OFFCURVE",
"66 145 CURVE SMOOTH",
"152 -3 OFFCURVE",
"341 -53 OFFCURVE",
"490 31 CURVE SMOOTH",
"506 40 OFFCURVE",
"520 51 OFFCURVE"
);
},
{
closed = 1;
nodes = (
"475 22 OFFCURVE",
"490 31 CURVE SMOOTH",
"637 119 OFFCURVE",
"690 307 OFFCURVE",
"604 455 CURVE SMOOTH",
"518 603 OFFCURVE",
"329 653 OFFCURVE",
"180 569 CURVE SMOOTH",
"164 560 OFFCURVE",
"150 549 OFFCURVE",
"137 538 CURVE",
"276 589 OFFCURVE",
"437 536 OFFCURVE",
"513 403 CURVE SMOOTH",
"589 270 OFFCURVE",
"556 104 OFFCURVE",
"442 9 CURVE",
"458 15 OFFCURVE"
);
}
);
width = 670;
},
{
layerId = "AEDC8121-3E5B-40FA-BC83-3F7147C1C4F3";
width = 600;
},
{
layerId = "71685E8E-84B4-4751-A208-735D4797FBD3";
width = 600;
}
);
unicode = 004F;
},
{
glyphname = P;
lastChange = "2017-08-24 17:23:33 +0000";
layers = (
{
background = {
paths = (
{
closed = 1;
nodes = (
"595 16 LINE",
"558 7 OFFCURVE",
"514 44 OFFCURVE",
"471 115 CURVE",
"398 74 LINE",
"442 -3 OFFCURVE",
"510 -8 OFFCURVE",
"539 0 CURVE SMOOTH"
);
},
{
closed = 1;
nodes = (
"471 115 LINE",
"356 310 LINE",
"284 269 LINE",
"398 74 LINE"
);
}
);
};
components = (
{
name = I;
}
);
layerId = "EA4A3C90-BC2A-43B1-AFC3-03A46CC68B95";
paths = (
{
closed = 1;
nodes = (
"392 250 OFFCURVE",
"481 304 OFFCURVE",
"481 439 CURVE SMOOTH",
"481 540 OFFCURVE",
"395 600 OFFCURVE",
"250 600 CURVE",
"193 543 LINE",
"341 543 OFFCURVE",
"390 503 OFFCURVE",
"390 405 CURVE SMOOTH",
"390 334 OFFCURVE",
"334 305 OFFCURVE",
"170 305 CURVE",
"170 250 LINE"
);
}
);
width = 506;
},
{
associatedMasterId = "EA4A3C90-BC2A-43B1-AFC3-03A46CC68B95";
background = {
paths = (
{
closed = 1;
nodes = (
"595 16 LINE",
"558 7 OFFCURVE",
"514 44 OFFCURVE",
"471 115 CURVE",
"398 74 LINE",
"442 -3 OFFCURVE",
"510 -8 OFFCURVE",
"539 0 CURVE SMOOTH"
);
},
{
closed = 1;
nodes = (
"471 115 LINE",
"356 310 LINE",
"284 269 LINE",
"398 74 LINE"
);
}
);
};
components = (
{
name = I;
}
);
layerId = "F9D235A9-3191-41ED-BB09-E7F63260ACBA";
name = "Aug 23 17, 14:16";
paths = (
{
closed = 1;
nodes = (
"294 250 OFFCURVE",
"325 252 OFFCURVE",
"346 259 CURVE SMOOTH",
"445 293 OFFCURVE",
"491 350 OFFCURVE",
"491 439 CURVE SMOOTH",
"491 472 OFFCURVE",
"478 506 OFFCURVE",
"450 537 CURVE SMOOTH",
"393 601 OFFCURVE",
"348 600 OFFCURVE",
"250 600 CURVE",
"193 543 LINE",
"266 562 OFFCURVE",
"324 549 OFFCURVE",
"363 504 CURVE SMOOTH",
"391 472 OFFCURVE",
"400 438 OFFCURVE",
"400 405 CURVE SMOOTH",
"400 348 OFFCURVE",
"354 305 OFFCURVE",
"292 305 CURVE SMOOTH",
"261 305 OFFCURVE",
"222 256 OFFCURVE",
"211 250 CURVE"
);
},
{
closed = 1;
nodes = (
"211 250 LINE",
"396 305 LINE",
"170 305 LINE",
"170 250 LINE"
);
}
);
width = 615;
},
{
layerId = "AEDC8121-3E5B-40FA-BC83-3F7147C1C4F3";
width = 600;
},
{
layerId = "71685E8E-84B4-4751-A208-735D4797FBD3";
width = 600;
}
);
leftMetricsKey = I;
rightMetricsKey = O;
unicode = 0050;
},
{
glyphname = Q;
lastChange = "2017-08-24 17:23:33 +0000";
layers = (
{
components = (
{
name = O;
}
);
guideLines = (
{
angle = 120.5297;
position = "{509, -76}";
}
);
layerId = "EA4A3C90-BC2A-43B1-AFC3-03A46CC68B95";
paths = (
{
closed = 1;
nodes = (
"661 -59 LINE",
"624 -68 OFFCURVE",
"580 -31 OFFCURVE",
"537 40 CURVE",
"465 -1 LINE",
"509 -78 OFFCURVE",
"576 -83 OFFCURVE",
"605 -75 CURVE SMOOTH"
);
},
{
closed = 1;
nodes = (
"306 157 LINE",
"343 166 OFFCURVE",
"387 129 OFFCURVE",
"430 58 CURVE",
"503 99 LINE",
"459 176 OFFCURVE",
"391 181 OFFCURVE",
"362 173 CURVE SMOOTH"
);
},
{
closed = 1;
nodes = (
"430 58 LINE",
"465 -1 LINE",
"537 40 LINE",
"503 99 LINE"
);
}
);
width = 686;
},
{
layerId = "AEDC8121-3E5B-40FA-BC83-3F7147C1C4F3";
width = 600;
},
{
layerId = "71685E8E-84B4-4751-A208-735D4797FBD3";
width = 600;
}
);
leftMetricsKey = O;
rightMetricsKey = O;
unicode = 0051;
},
{
glyphname = R;
lastChange = "2017-08-24 17:23:33 +0000";
layers = (
{
associatedMasterId = "EA4A3C90-BC2A-43B1-AFC3-03A46CC68B95";
background = {
paths = (
{
closed = 1;
nodes = (
"448 160 LINE",
"448 225 LINE",
"198 225 LINE",
"198 160 LINE"
);
},
{
closed = 1;
nodes = (
"375 4 OFFCURVE",
"391 12 OFFCURVE",
"406 21 CURVE SMOOTH",
"505 80 OFFCURVE",
"561 185 OFFCURVE",
"561 292 CURVE SMOOTH",
"561 344 OFFCURVE",
"548 397 OFFCURVE",
"520 445 CURVE SMOOTH",
"462 544 OFFCURVE",
"358 600 OFFCURVE",
"250 600 CURVE SMOOTH",
"198 600 OFFCURVE",
"145 587 OFFCURVE",
"96 559 CURVE SMOOTH",
"80 550 OFFCURVE",
"65 540 OFFCURVE",
"52 529 CURVE",
"87 542 OFFCURVE",
"123 548 OFFCURVE",
"159 548 CURVE SMOOTH",
"267 548 OFFCURVE",
"372 493 OFFCURVE",
"429 393 CURVE SMOOTH",
"457 344 OFFCURVE",
"470 290 OFFCURVE",
"470 238 CURVE SMOOTH",
"470 147 OFFCURVE",
"431 58 OFFCURVE",
"359 -2 CURVE"
);
},
{
closed = 1;
nodes = (
"292 298 LINE",
"398 0 LINE",
"501 0 LINE",
"395 298 LINE"
);
},
{
closed = 1;
nodes = (
"533 0 LINE",
"433 100 LINE",
"333 0 LINE"
);
},
{
closed = 1;
nodes = (
"458 0 LINE",
"577 0 LINE",
"367 311 LINE",
"281 262 LINE"
);
}
);
};
components = (
{
name = I;
}
);
guideLines = (
{
angle = -70.501;
position = "{420, 123}";
},
{
angle = -55.9449;
position = "{263, 289}";
}
);
layerId = "B86C9010-D020-4981-859F-AB347F698697";
name = "Aug 22 17, 13:42";
paths = (
{
closed = 1;
nodes = (
"211 250 LINE",
"396 305 LINE",
"170 305 LINE",
"170 250 LINE"
);
},
{
closed = 1;
nodes = (
"294 250 OFFCURVE",
"325 252 OFFCURVE",
"346 259 CURVE SMOOTH",
"445 293 OFFCURVE",
"491 350 OFFCURVE",
"491 439 CURVE SMOOTH",
"491 472 OFFCURVE",
"478 506 OFFCURVE",
"450 537 CURVE SMOOTH",
"393 601 OFFCURVE",
"348 600 OFFCURVE",
"250 600 CURVE",
"193 543 LINE",
"266 562 OFFCURVE",
"324 549 OFFCURVE",
"363 504 CURVE SMOOTH",
"391 472 OFFCURVE",
"400 438 OFFCURVE",
"400 405 CURVE SMOOTH",
"400 348 OFFCURVE",
"354 305 OFFCURVE",
"292 305 CURVE SMOOTH",
"261 305 OFFCURVE",
"222 256 OFFCURVE",
"211 250 CURVE"
);
},
{
closed = 1;
nodes = (
"440 9 LINE",
"513 51 LINE",
"363 311 LINE",
"290 268 LINE"
);
},
{
closed = 1;
nodes = (
"563 80 LINE",
"426 116 LINE",
"389 -20 LINE"
);
}
);
width = 578;
},
{
background = {
paths = (
{
closed = 1;
nodes = (
"448 160 LINE",
"448 225 LINE",
"198 225 LINE",
"198 160 LINE"
);
},
{
closed = 1;
nodes = (
"375 4 OFFCURVE",
"391 12 OFFCURVE",
"406 21 CURVE SMOOTH",
"505 80 OFFCURVE",
"561 185 OFFCURVE",
"561 292 CURVE SMOOTH",
"561 344 OFFCURVE",
"548 397 OFFCURVE",
"520 445 CURVE SMOOTH",
"462 544 OFFCURVE",
"358 600 OFFCURVE",
"250 600 CURVE SMOOTH",
"198 600 OFFCURVE",
"145 587 OFFCURVE",
"96 559 CURVE SMOOTH",
"80 550 OFFCURVE",
"65 540 OFFCURVE",
"52 529 CURVE",
"87 542 OFFCURVE",
"123 548 OFFCURVE",
"159 548 CURVE SMOOTH",
"267 548 OFFCURVE",
"372 493 OFFCURVE",
"429 393 CURVE SMOOTH",
"457 344 OFFCURVE",
"470 290 OFFCURVE",
"470 238 CURVE SMOOTH",
"470 147 OFFCURVE",
"431 58 OFFCURVE",
"359 -2 CURVE"
);
},
{
closed = 1;
nodes = (
"292 298 LINE",
"398 0 LINE",
"501 0 LINE",
"395 298 LINE"
);
},
{
closed = 1;
nodes = (
"533 0 LINE",
"433 100 LINE",
"333 0 LINE"
);
},
{
closed = 1;
nodes = (
"458 0 LINE",
"577 0 LINE",
"367 311 LINE",
"281 262 LINE"
);
},
{
closed = 1;
nodes = (
"440 9 LINE",
"513 51 LINE",
"363 311 LINE",
"290 268 LINE"
);
},
{
closed = 1;
nodes = (
"563 80 LINE",
"426 116 LINE",
"389 -20 LINE"
);
}
);
};
components = (
{
name = I;
}
);
guideLines = (
{
angle = -70.501;
position = "{420, 123}";
},
{
angle = -55.9449;
position = "{263, 289}";
},
{
angle = 120.3236;
position = "{434, 157}";
}
);
layerId = "EA4A3C90-BC2A-43B1-AFC3-03A46CC68B95";
paths = (
{
closed = 1;
nodes = (
"294 250 OFFCURVE",
"325 252 OFFCURVE",
"346 259 CURVE SMOOTH",
"445 293 OFFCURVE",
"491 350 OFFCURVE",
"491 439 CURVE SMOOTH",
"491 472 OFFCURVE",
"478 506 OFFCURVE",
"450 537 CURVE SMOOTH",
"393 601 OFFCURVE",
"348 600 OFFCURVE",
"250 600 CURVE",
"193 543 LINE",
"266 562 OFFCURVE",
"324 549 OFFCURVE",
"363 504 CURVE SMOOTH",
"391 472 OFFCURVE",
"400 438 OFFCURVE",
"400 405 CURVE SMOOTH",
"400 348 OFFCURVE",
"354 305 OFFCURVE",
"292 305 CURVE SMOOTH",
"261 305 OFFCURVE",
"222 256 OFFCURVE",
"211 250 CURVE"
);
},
{
closed = 1;
nodes = (
"595 16 LINE",
"558 7 OFFCURVE",
"514 44 OFFCURVE",
"471 115 CURVE",
"398 74 LINE",
"442 -3 OFFCURVE",
"510 -8 OFFCURVE",
"539 0 CURVE SMOOTH"
);
},
{
closed = 1;
nodes = (
"211 250 LINE",
"396 305 LINE",
"170 305 LINE",
"170 250 LINE"
);
},
{
closed = 1;
nodes = (
"471 115 LINE",
"356 310 LINE",
"284 269 LINE",
"398 74 LINE"
);
}
);
width = 615;
},
{
layerId = "AEDC8121-3E5B-40FA-BC83-3F7147C1C4F3";
width = 600;
},
{
layerId = "71685E8E-84B4-4751-A208-735D4797FBD3";
width = 600;
}
);
leftMetricsKey = I;
rightMetricsKey = C;
unicode = 0052;
},
{
glyphname = S;
lastChange = "2017-08-30 14:19:56 +0000";
layers = (
{
background = {
paths = (
{
closed = 1;
nodes = (
"486 62 CURVE",
"347 11 OFFCURVE",
"186 64 OFFCURVE",
"110 197 CURVE SMOOTH",
"34 330 OFFCURVE",
"67 496 OFFCURVE",
"181 591 CURVE",
"165 585 OFFCURVE",
"148 578 OFFCURVE",
"133 569 CURVE SMOOTH",
"-14 481 OFFCURVE",
"-67 293 OFFCURVE",
"19 145 CURVE SMOOTH",
"105 -3 OFFCURVE",
"294 -53 OFFCURVE",
"443 31 CURVE SMOOTH",
"459 40 OFFCURVE",
"473 51 OFFCURVE"
);
},
{
closed = 1;
nodes = (
"428 22 OFFCURVE",
"443 31 CURVE SMOOTH",
"590 119 OFFCURVE",
"643 307 OFFCURVE",
"557 455 CURVE SMOOTH",
"471 603 OFFCURVE",
"282 653 OFFCURVE",
"133 569 CURVE SMOOTH",
"117 560 OFFCURVE",
"103 549 OFFCURVE",
"90 538 CURVE",
"229 589 OFFCURVE",
"390 536 OFFCURVE",
"466 403 CURVE SMOOTH",
"542 270 OFFCURVE",
"509 104 OFFCURVE",
"395 9 CURVE",
"411 15 OFFCURVE"
);
}
);
};
guideLines = (
{
angle = 30.0433;
position = "{288, 300}";
},
{
angle = 164.9315;
position = "{234, 265}";
}
);
layerId = "EA4A3C90-BC2A-43B1-AFC3-03A46CC68B95";
paths = (
{
closed = 1;
nodes = (
"300 346 LINE",
"121 395 OFFCURVE",
"70 499 OFFCURVE",
"181 590 CURVE",
"166 584 OFFCURVE",
"148 578 OFFCURVE",
"133 569 CURVE SMOOTH",
"-49 459 OFFCURVE",
"13 324 OFFCURVE",
"276 254 CURVE"
);
},
{
closed = 1;
nodes = (
"410 16 OFFCURVE",
"428 22 OFFCURVE",
"443 31 CURVE SMOOTH",
"624 141 OFFCURVE",
"562 276 OFFCURVE",
"300 346 CURVE",
"276 254 LINE",
"455 205 OFFCURVE",
"506 101 OFFCURVE",
"395 10 CURVE"
);
},
{
closed = 1;
nodes = (
"460 40 OFFCURVE",
"473 51 OFFCURVE",
"485 62 CURVE",
"347 11 OFFCURVE",
"187 64 OFFCURVE",
"111 196 CURVE",
"20 145 LINE",
"106 -4 OFFCURVE",
"292 -49 OFFCURVE",
"443 31 CURVE SMOOTH"
);
},
{
closed = 1;
nodes = (
"556 455 LINE",
"470 604 OFFCURVE",
"284 649 OFFCURVE",
"133 569 CURVE SMOOTH",
"116 560 OFFCURVE",
"103 549 OFFCURVE",
"91 538 CURVE",
"229 589 OFFCURVE",
"389 536 OFFCURVE",
"465 404 CURVE"
);
}
);
width = 576;
},
{
layerId = "AEDC8121-3E5B-40FA-BC83-3F7147C1C4F3";
width = 590;
},
{
layerId = "71685E8E-84B4-4751-A208-735D4797FBD3";
width = 590;
}
);
leftMetricsKey = "=O-5";
rightMetricsKey = "=O-5";
unicode = 0053;
},
{
glyphname = T;
lastChange = "2017-08-24 18:06:21 +0000";
layers = (
{
components = (
{
name = I;
transform = "{1, 0, 0, 1, 120, 0}";
}
);
layerId = "EA4A3C90-BC2A-43B1-AFC3-03A46CC68B95";
paths = (
{
closed = 1;
nodes = (
"510 525 LINE",
"510 600 LINE",
"30 600 LINE",
"30 525 LINE"
);
},
{
closed = 1;
nodes = (
"510 557 LINE",
"410 557 LINE",
"510 457 LINE"
);
},
{
closed = 1;
nodes = (
"130 557 LINE",
"30 557 LINE",
"30 457 LINE"
);
}
);
width = 540;
},
{
associatedMasterId = "EA4A3C90-BC2A-43B1-AFC3-03A46CC68B95";
components = (
{
name = I;
transform = "{1, 0, 0, 1, 120, 0}";
}
);
layerId = "1F0E6995-58ED-4E26-B4C9-22AA747A6D25";
name = "Aug 23 17, 15:13";
paths = (
{
closed = 1;
nodes = (
"510 515 LINE",
"510 600 LINE",
"30 600 LINE",
"30 515 LINE"
);
},
{
closed = 1;
nodes = (
"510 557 LINE",
"410 557 LINE",
"510 457 LINE"
);
},
{
closed = 1;
nodes = (
"130 557 LINE",
"30 557 LINE",
"30 457 LINE"
);
}
);
width = 540;
},
{
layerId = "AEDC8121-3E5B-40FA-BC83-3F7147C1C4F3";
width = 560;
},
{
layerId = "71685E8E-84B4-4751-A208-735D4797FBD3";
width = 560;
}
);
leftMetricsKey = "=I-20";
rightMetricsKey = "=I-20";
unicode = 0054;
},
{
glyphname = U;
lastChange = "2017-08-24 18:06:21 +0000";
layers = (
{
associatedMasterId = "EA4A3C90-BC2A-43B1-AFC3-03A46CC68B95";
background = {
paths = (
{
closed = 1;
nodes = (
"505 250 LINE",
"505 335 LINE",
"165 335 LINE",
"165 250 LINE"
);
}
);
};
layerId = "CD2AD6BC-573F-46BF-9340-91052087179C";
name = "Aug 23 17, 14:36";
paths = (
{
closed = 1;
nodes = (
"103 298 LINE",
"188 350 LINE",
"188 600 LINE",
"103 600 LINE"
);
},
{
closed = 1;
nodes = (
"145 500 LINE",
"245 600 LINE",
"45 600 LINE"
);
},
{
closed = 1;
nodes = (
"482 600 LINE",
"482 350 LINE",
"567 298 LINE",
"567 600 LINE"
);
},
{
closed = 1;
nodes = (
"425 600 LINE",
"525 500 LINE",
"625 600 LINE"
);
},
{
closed = 1;
nodes = (
"103 109 OFFCURVE",
"183 0 OFFCURVE",
"335 0 CURVE SMOOTH",
"487 1 OFFCURVE",
"567 110 OFFCURVE",
"567 298 CURVE",
"482 350 LINE",
"482 174 OFFCURVE",
"431 85 OFFCURVE",
"335 85 CURVE SMOOTH",
"239 85 OFFCURVE",
"188 174 OFFCURVE",
"188 350 CURVE",
"103 298 LINE"
);
}
);
width = 675;
},
{
associatedMasterId = "EA4A3C90-BC2A-43B1-AFC3-03A46CC68B95";
background = {
paths = (
{
closed = 1;
nodes = (
"505 250 LINE",
"505 335 LINE",
"165 335 LINE",
"165 250 LINE"
);
}
);
};
layerId = "0CCD5735-FAAE-4376-A517-69FB7AD086CB";
name = "Aug 23 17, 14:44";
paths = (
{
closed = 1;
nodes = (
"103 298 LINE",
"188 350 LINE",
"188 600 LINE",
"103 600 LINE"
);
},
{
closed = 1;
nodes = (
"145 500 LINE",
"245 600 LINE",
"45 600 LINE"
);
},
{
closed = 1;
nodes = (
"483 0 LINE",
"568 0 LINE",
"568 600 LINE",
"483 600 LINE"
);
},
{
closed = 1;
nodes = (
"525 500 LINE",
"625 600 LINE",
"425 600 LINE"
);
},
{
closed = 1;
nodes = (
"485 104 LINE",
"469 64 OFFCURVE",
"439 43 OFFCURVE",
"397 43 CURVE SMOOTH",
"260 43 OFFCURVE",
"188 149 OFFCURVE",
"188 350 CURVE",
"103 298 LINE",
"103 99 OFFCURVE",
"204 -5 OFFCURVE",
"397 -5 CURVE SMOOTH",
"496 -5 OFFCURVE",
"487 29 OFFCURVE",
"545 94 CURVE"
);
},
{
closed = 1;
nodes = (
"625 0 LINE",
"525 100 LINE",
"525 0 LINE"
);
}
);
width = 675;
},
{
background = {
paths = (
{
closed = 1;
nodes = (
"505 250 LINE",
"505 335 LINE",
"165 335 LINE",
"165 250 LINE"
);
}
);
};
layerId = "EA4A3C90-BC2A-43B1-AFC3-03A46CC68B95";
paths = (
{
closed = 1;
nodes = (
"103 298 LINE",
"188 350 LINE",
"188 600 LINE",
"103 600 LINE"
);
},
{
closed = 1;
nodes = (
"145 500 LINE",
"245 600 LINE",
"45 600 LINE"
);
},
{
closed = 1;
nodes = (
"483 0 LINE",
"568 0 LINE",
"568 600 LINE",
"483 600 LINE"
);
},
{
closed = 1;
nodes = (
"525 500 LINE",
"625 600 LINE",
"425 600 LINE"
);
},
{
closed = 1;
nodes = (
"485 54 LINE",
"290 54 OFFCURVE",
"188 156 OFFCURVE",
"188 350 CURVE",
"103 298 LINE",
"103 107 OFFCURVE",
"204 6 OFFCURVE",
"397 6 CURVE SMOOTH",
"447 6 OFFCURVE",
"498 19 OFFCURVE",
"545 44 CURVE"
);
},
{
closed = 1;
nodes = (
"625 0 LINE",
"525 100 LINE",
"525 0 LINE"
);
}
);
width = 675;
},
{
layerId = "AEDC8121-3E5B-40FA-BC83-3F7147C1C4F3";
width = 595;
},
{
layerId = "71685E8E-84B4-4751-A208-735D4797FBD3";
width = 595;
}
);
leftMetricsKey = "=I-5";
rightMetricsKey = I;
unicode = 0055;
},
{
glyphname = V;
lastChange = "2017-08-24 17:23:33 +0000";
layers = (
{
associatedMasterId = "EA4A3C90-BC2A-43B1-AFC3-03A46CC68B95";
guideLines = (
{
angle = -70.501;
position = "{180, 295}";
}
);
layerId = "77F5A6E4-154E-4388-B732-E09A9BDC15AC";
name = "Aug 22 17, 13:14";
paths = (
{
closed = 1;
nodes = (
"443 600 LINE",
"543 500 LINE",
"643 600 LINE"
);
},
{
closed = 1;
nodes = (
"387 0 LINE",
"175 600 LINE",
"72 600 LINE",
"284 0 LINE"
);
},
{
closed = 1;
nodes = (
"40 600 LINE",
"140 500 LINE",
"240 600 LINE"
);
},
{
closed = 1;
nodes = (
"600 600 LINE",
"535 600 LINE",
"322 0 LINE",
"387 0 LINE"
);
}
);
width = 665;
},
{
guideLines = (
{
angle = -70.501;
position = "{165, 295}";
}
);
layerId = "EA4A3C90-BC2A-43B1-AFC3-03A46CC68B95";
paths = (
{
closed = 1;
nodes = (
"410 600 LINE",
"510 500 LINE",
"610 600 LINE"
);
},
{
closed = 1;
nodes = (
"372 0 LINE",
"160 600 LINE",
"57 600 LINE",
"269 0 LINE"
);
},
{
closed = 1;
nodes = (
"25 600 LINE",
"125 500 LINE",
"225 600 LINE"
);
},
{
closed = 1;
nodes = (
"567 600 LINE",
"502 600 LINE",
"289 0 LINE",
"354 0 LINE"
);
}
);
width = 635;
},
{
layerId = "AEDC8121-3E5B-40FA-BC83-3F7147C1C4F3";
width = 600;
},
{
layerId = "71685E8E-84B4-4751-A208-735D4797FBD3";
width = 600;
}
);
leftMetricsKey = A;
rightMetricsKey = A;
unicode = 0056;
},
{
glyphname = W;
lastChange = "2017-08-24 17:23:33 +0000";
layers = (
{
associatedMasterId = "EA4A3C90-BC2A-43B1-AFC3-03A46CC68B95";
layerId = "9B81731B-26F0-45F7-B183-E0639BDAD1A1";
name = "Aug 23 17, 10:01";
paths = (
{
closed = 1;
nodes = (
"377 0 LINE",
"165 600 LINE",
"62 600 LINE",
"274 0 LINE"
);
},
{
closed = 1;
nodes = (
"30 600 LINE",
"130 500 LINE",
"230 600 LINE"
);
},
{
closed = 1;
nodes = (
"615 600 LINE",
"715 500 LINE",
"815 600 LINE"
);
},
{
closed = 1;
nodes = (
"772 600 LINE",
"707 600 LINE",
"494 0 LINE",
"559 0 LINE"
);
},
{
closed = 1;
nodes = (
"384.212 254.118 LINE",
"294 0 LINE",
"359 0 LINE",
"416.635 162.353 LINE",
"474 0 LINE",
"577 0 LINE",
"468.256 307.765 LINE"
);
}
);
width = 1290;
},
{
associatedMasterId = "EA4A3C90-BC2A-43B1-AFC3-03A46CC68B95";
layerId = "D2431145-EB6E-4761-AB31-6E90060DFE16";
name = "Aug 23 17, 10:01";
paths = (
{
closed = 1;
nodes = (
"377 0 LINE",
"165 600 LINE",
"62 600 LINE",
"274 0 LINE"
);
},
{
closed = 1;
nodes = (
"30 600 LINE",
"130 500 LINE",
"230 600 LINE"
);
},
{
closed = 1;
nodes = (
"615 600 LINE",
"715 500 LINE",
"815 600 LINE"
);
},
{
closed = 1;
nodes = (
"772 600 LINE",
"707 600 LINE",
"494 0 LINE",
"559 0 LINE"
);
},
{
closed = 1;
nodes = (
"384.212 254.118 LINE",
"294 0 LINE",
"359 0 LINE",
"416.635 162.353 LINE",
"474 0 LINE",
"577 0 LINE",
"468.256 307.765 LINE"
);
}
);
width = 1290;
},
{
associatedMasterId = "EA4A3C90-BC2A-43B1-AFC3-03A46CC68B95";
layerId = "15E127E2-E6E6-49A2-BF4A-27E035C6886F";
name = "Aug 23 17, 10:03";
paths = (
{
closed = 1;
nodes = (
"415 600 LINE",
"515 500 LINE",
"615 600 LINE"
);
},
{
closed = 1;
nodes = (
"377 0 LINE",
"165 600 LINE",
"62 600 LINE",
"274 0 LINE"
);
},
{
closed = 1;
nodes = (
"30 600 LINE",
"130 500 LINE",
"230 600 LINE"
);
},
{
closed = 1;
nodes = (
"572 600 LINE",
"507 600 LINE",
"294 0 LINE",
"359 0 LINE"
);
},
{
closed = 1;
nodes = (
"615 600 LINE",
"715 500 LINE",
"815 600 LINE"
);
},
{
closed = 1;
nodes = (
"577 0 LINE",
"365 600 LINE",
"262 600 LINE",
"474 0 LINE"
);
},
{
closed = 1;
nodes = (
"230 600 LINE",
"330 500 LINE",
"430 600 LINE"
);
},
{
closed = 1;
nodes = (
"772 600 LINE",
"707 600 LINE",
"494 0 LINE",
"559 0 LINE"
);
}
);
width = 1290;
},
{
associatedMasterId = "EA4A3C90-BC2A-43B1-AFC3-03A46CC68B95";
layerId = "E13B41EB-46F0-49B3-84E3-9E9E6C49DA44";
name = "Aug 23 17, 10:04";
paths = (
{
closed = 1;
nodes = (
"377 0 LINE",
"165 600 LINE",
"62 600 LINE",
"274 0 LINE"
);
},
{
closed = 1;
nodes = (
"30 600 LINE",
"130 500 LINE",
"230 600 LINE"
);
},
{
closed = 1;
nodes = (
"800 600 LINE",
"900 500 LINE",
"1000 600 LINE"
);
},
{
closed = 1;
nodes = (
"957 600 LINE",
"892 600 LINE",
"679 0 LINE",
"744 0 LINE"
);
},
{
closed = 1;
nodes = (
"359 0 LINE",
"509.353 423.529 LINE",
"659 0 LINE",
"762 0 LINE",
"560.974 568.941 LINE",
"476.929 515.294 LINE",
"294 0 LINE"
);
}
);
width = 1290;
},
{
associatedMasterId = "EA4A3C90-BC2A-43B1-AFC3-03A46CC68B95";
layerId = "3BBFEBAF-7B56-4E9C-99CA-97245746BF9A";
name = "Aug 23 17, 10:04";
paths = (
{
closed = 1;
nodes = (
"377 0 LINE",
"165 600 LINE",
"62 600 LINE",
"274 0 LINE"
);
},
{
closed = 1;
nodes = (
"30 600 LINE",
"130 500 LINE",
"230 600 LINE"
);
},
{
closed = 1;
nodes = (
"800 600 LINE",
"900 500 LINE",
"1000 600 LINE"
);
},
{
closed = 1;
nodes = (
"957 600 LINE",
"892 600 LINE",
"679 0 LINE",
"744 0 LINE"
);
},
{
closed = 1;
nodes = (
"359 0 LINE",
"509.353 423.529 LINE",
"659 0 LINE",
"762 0 LINE",
"560.974 568.941 LINE",
"476.929 515.294 LINE",
"294 0 LINE"
);
}
);
width = 1290;
},
{
layerId = "EA4A3C90-BC2A-43B1-AFC3-03A46CC68B95";
paths = (
{
closed = 1;
nodes = (
"372 0 LINE",
"160 600 LINE",
"57 600 LINE",
"269 0 LINE"
);
},
{
closed = 1;
nodes = (
"25 600 LINE",
"125 500 LINE",
"225 600 LINE"
);
},
{
closed = 1;
nodes = (
"481 542 LINE",
"289 0 LINE",
"354 0 LINE",
"546 542 LINE"
);
},
{
closed = 1;
nodes = (
"795 600 LINE",
"895 500 LINE",
"995 600 LINE"
);
},
{
closed = 1;
nodes = (
"757 0 LINE",
"545 600 LINE",
"442 600 LINE",
"654 0 LINE"
);
},
{
closed = 1;
nodes = (
"952 600 LINE",
"887 600 LINE",
"674 0 LINE",
"739 0 LINE"
);
}
);
width = 1020;
},
{
associatedMasterId = "EA4A3C90-BC2A-43B1-AFC3-03A46CC68B95";
layerId = "B67BA200-EF07-47B9-A05D-AEF7A275402F";
name = "Aug 23 17, 10:04";
paths = (
{
closed = 1;
nodes = (
"415 600 LINE",
"515 500 LINE",
"615 600 LINE"
);
},
{
closed = 1;
nodes = (
"377 0 LINE",
"165 600 LINE",
"62 600 LINE",
"274 0 LINE"
);
},
{
closed = 1;
nodes = (
"30 600 LINE",
"130 500 LINE",
"230 600 LINE"
);
},
{
closed = 1;
nodes = (
"572 600 LINE",
"507 600 LINE",
"294 0 LINE",
"359 0 LINE"
);
},
{
closed = 1;
nodes = (
"800 600 LINE",
"900 500 LINE",
"1000 600 LINE"
);
},
{
closed = 1;
nodes = (
"762 0 LINE",
"550 600 LINE",
"447 600 LINE",
"659 0 LINE"
);
},
{
closed = 1;
nodes = (
"415 600 LINE",
"515 500 LINE",
"615 600 LINE"
);
},
{
closed = 1;
nodes = (
"957 600 LINE",
"892 600 LINE",
"679 0 LINE",
"744 0 LINE"
);
}
);
width = 1290;
},
{
layerId = "AEDC8121-3E5B-40FA-BC83-3F7147C1C4F3";
width = 600;
},
{
layerId = "71685E8E-84B4-4751-A208-735D4797FBD3";
width = 600;
}
);
leftMetricsKey = V;
rightMetricsKey = V;
unicode = 0057;
},
{
glyphname = X;
lastChange = "2017-08-24 17:23:33 +0000";
layers = (
{
associatedMasterId = "EA4A3C90-BC2A-43B1-AFC3-03A46CC68B95";
guideLines = (
{
angle = 135;
position = "{115, 550}";
},
{
angle = 225;
position = "{600, 550}";
}
);
layerId = "16B78ADC-12E7-48DC-9D0B-710947BBB02C";
name = "Aug 23 17, 17:19";
paths = (
{
closed = 1;
nodes = (
"450 600 LINE",
"550 500 LINE",
"650 600 LINE"
);
},
{
closed = 1;
nodes = (
"665 0 LINE",
"168 600 LINE",
"65 600 LINE",
"562 0 LINE"
);
},
{
closed = 1;
nodes = (
"65 600 LINE",
"165 500 LINE",
"265 600 LINE"
);
},
{
closed = 1;
nodes = (
"650 600 LINE",
"585 600 LINE",
"50 0 LINE",
"115 0 LINE"
);
},
{
closed = 1;
nodes = (
"565 100 LINE",
"465 0 LINE",
"665 0 LINE"
);
},
{
closed = 1;
nodes = (
"150 100 LINE",
"50 0 LINE",
"250 0 LINE"
);
}
);
width = 715;
},
{
layerId = "EA4A3C90-BC2A-43B1-AFC3-03A46CC68B95";
paths = (
{
closed = 1;
nodes = (
"435 600 LINE",
"535 500 LINE",
"635 600 LINE"
);
},
{
closed = 1;
nodes = (
"606 0 LINE",
"182 600 LINE",
"79 600 LINE",
"503 0 LINE"
);
},
{
closed = 1;
nodes = (
"50 600 LINE",
"150 500 LINE",
"250 600 LINE"
);
},
{
closed = 1;
nodes = (
"616 600 LINE",
"551 600 LINE",
"68 0 LINE",
"133 0 LINE"
);
},
{
closed = 1;
nodes = (
"535 100 LINE",
"435 0 LINE",
"635 0 LINE"
);
},
{
closed = 1;
nodes = (
"150 100 LINE",
"50 0 LINE",
"250 0 LINE"
);
}
);
width = 685;
},
{
layerId = "AEDC8121-3E5B-40FA-BC83-3F7147C1C4F3";
width = 600;
},
{
layerId = "71685E8E-84B4-4751-A208-735D4797FBD3";
width = 600;
}
);
leftMetricsKey = I;
rightMetricsKey = I;
unicode = 0058;
},
{
glyphname = Y;
lastChange = "2017-08-24 17:23:33 +0000";
layers = (
{
guideLines = (
{
angle = -58.7961;
position = "{251, 293}";
}
);
layerId = "EA4A3C90-BC2A-43B1-AFC3-03A46CC68B95";
paths = (
{
closed = 1;
nodes = (
"419 600 LINE",
"519 500 LINE",
"619 600 LINE"
);
},
{
closed = 1;
nodes = (
"377 250 LINE",
"165 600 LINE",
"65 600 LINE",
"251 293 LINE",
"303 207 LINE"
);
},
{
closed = 1;
nodes = (
"30 600 LINE",
"130 500 LINE",
"230 600 LINE"
);
},
{
closed = 1;
nodes = (
"590 600 LINE",
"525 600 LINE",
"312 250 LINE",
"377 250 LINE"
);
},
{
closed = 1;
nodes = (
"292 0 LINE",
"377 0 LINE",
"377 250 LINE",
"292 250 LINE"
);
},
{
closed = 1;
nodes = (
"434 0 LINE",
"334 100 LINE",
"234 0 LINE"
);
}
);
width = 645;
},
{
layerId = "AEDC8121-3E5B-40FA-BC83-3F7147C1C4F3";
width = 600;
},
{
layerId = "71685E8E-84B4-4751-A208-735D4797FBD3";
width = 600;
}
);
unicode = 0059;
},
{
glyphname = Z;
lastChange = "2017-08-24 18:06:21 +0000";
layers = (
{
associatedMasterId = "EA4A3C90-BC2A-43B1-AFC3-03A46CC68B95";
background = {
paths = (
{
closed = 1;
nodes = (
"630 600 LINE",
"530 500 LINE",
"630 400 LINE"
);
},
{
closed = 1;
nodes = (
"130 42 LINE",
"30 142 LINE",
"30 -58 LINE"
);
}
);
};
guideLines = (
{
angle = 60.8239;
position = "{95, 85}";
}
);
layerId = "941E2174-ACFD-4F91-95E6-D082D47540BB";
name = "Aug 23 17, 17:08";
paths = (
{
closed = 1;
nodes = (
"335 0 LINE",
"335 85 LINE",
"30 85 LINE",
"30 0 LINE"
);
},
{
closed = 1;
nodes = (
"335 142 LINE",
"235 42 LINE",
"335 42 LINE"
);
},
{
closed = 1;
nodes = (
"335 515 LINE",
"335 600 LINE",
"30 600 LINE",
"30 515 LINE"
);
},
{
closed = 1;
nodes = (
"130 557 LINE",
"30 557 LINE",
"30 457 LINE"
);
},
{
closed = 1;
nodes = (
"335 515 LINE",
"270 515 LINE",
"30 85 LINE",
"95 85 LINE"
);
}
);
width = 450;
},
{
background = {
paths = (
{
closed = 1;
nodes = (
"630 600 LINE",
"530 500 LINE",
"630 400 LINE"
);
},
{
closed = 1;
nodes = (
"130 42 LINE",
"30 142 LINE",
"30 -58 LINE"
);
}
);
};
guideLines = (
{
angle = 70.4551;
position = "{321, 300}";
}
);
layerId = "EA4A3C90-BC2A-43B1-AFC3-03A46CC68B95";
paths = (
{
closed = 1;
nodes = (
"480 0 LINE",
"480 85 LINE",
"96 85 LINE",
"30 0 LINE"
);
},
{
closed = 1;
nodes = (
"480 142 LINE",
"380 42 LINE",
"480 42 LINE"
);
},
{
closed = 1;
nodes = (
"428 515 LINE",
"490 600 LINE",
"30 600 LINE",
"30 515 LINE"
);
},
{
closed = 1;
nodes = (
"130 557 LINE",
"30 557 LINE",
"30 457 LINE"
);
},
{
closed = 1;
nodes = (
"490 600 LINE",
"415 600 LINE",
"30 0 LINE",
"105 0 LINE"
);
}
);
width = 510;
},
{
associatedMasterId = "EA4A3C90-BC2A-43B1-AFC3-03A46CC68B95";
background = {
paths = (
{
closed = 1;
nodes = (
"630 600 LINE",
"530 500 LINE",
"630 400 LINE"
);
},
{
closed = 1;
nodes = (
"130 42 LINE",
"30 142 LINE",
"30 -58 LINE"
);
}
);
};
guideLines = (
{
angle = 70.4551;
position = "{321, 300}";
}
);
layerId = "EE4C2B51-AF8D-4A2D-A73C-1F31C7F67AD0";
name = "Aug 24 17, 12:22";
paths = (
{
closed = 1;
nodes = (
"430 0 LINE",
"430 85 LINE",
"96 85 LINE",
"30 0 LINE"
);
},
{
closed = 1;
nodes = (
"430 142 LINE",
"330 42 LINE",
"430 42 LINE"
);
},
{
closed = 1;
nodes = (
"368 515 LINE",
"430 600 LINE",
"30 600 LINE",
"30 515 LINE"
);
},
{
closed = 1;
nodes = (
"130 557 LINE",
"30 557 LINE",
"30 457 LINE"
);
},
{
closed = 1;
nodes = (
"430 600 LINE",
"365 600 LINE",
"30 0 LINE",
"95 0 LINE"
);
}
);
width = 450;
},
{
layerId = "AEDC8121-3E5B-40FA-BC83-3F7147C1C4F3";
width = 550;
},
{
layerId = "71685E8E-84B4-4751-A208-735D4797FBD3";
width = 550;
}
);
leftMetricsKey = "=I-20";
rightMetricsKey = "=I-30";
unicode = 005A;
},
{
glyphname = a;
lastChange = "2017-08-29 20:56:15 +0000";
layers = (
{
layerId = "EA4A3C90-BC2A-43B1-AFC3-03A46CC68B95";
paths = (
{
closed = 1;
nodes = (
"371 37 OFFCURVE",
"390 51 OFFCURVE",
"404 63 CURVE",
"307 28 OFFCURVE",
"195 66 OFFCURVE",
"145 152 CURVE SMOOTH",
"93 242 OFFCURVE",
"115 358 OFFCURVE",
"194 423 CURVE",
"178 417 OFFCURVE",
"156 408 OFFCURVE",
"145 402 CURVE SMOOTH",
"32 336 OFFCURVE",
"-7 206 OFFCURVE",
"54 100 CURVE SMOOTH",
"113 -3 OFFCURVE",
"245 -33 OFFCURVE",
"360 31 CURVE SMOOTH"
);
},
{
closed = 1;
nodes = (
"404 0 LINE",
"489 0 LINE",
"489 450 LINE",
"404 450 LINE"
);
},
{
closed = 1;
nodes = (
"446 450 LINE",
"446 350 LINE",
"546 450 LINE"
);
},
{
closed = 1;
nodes = (
"546 0 LINE",
"446 100 LINE",
"446 0 LINE"
);
},
{
closed = 1;
nodes = (
"456 364 LINE",
"389 448 OFFCURVE",
"261 465 OFFCURVE",
"145 402 CURVE SMOOTH",
"134 396 OFFCURVE",
"117 382 OFFCURVE",
"103 370 CURVE",
"212 410 OFFCURVE",
"331 376 OFFCURVE",
"381 288 CURVE SMOOTH",
"430 202 OFFCURVE",
"399 83 OFFCURVE",
"311 10 CURVE",
"327 16 OFFCURVE",
"349 25 OFFCURVE",
"360 31 CURVE SMOOTH",
"400 55 OFFCURVE",
"433 85 OFFCURVE",
"456 119 CURVE"
);
}
);
width = 576;
},
{
layerId = "71685E8E-84B4-4751-A208-735D4797FBD3";
width = 600;
},
{
layerId = "AEDC8121-3E5B-40FA-BC83-3F7147C1C4F3";
width = 600;
}
);
leftMetricsKey = o;
rightMetricsKey = l;
unicode = 0061;
},
{
glyphname = b;
lastChange = "2017-08-30 14:05:43 +0000";
layers = (
{
background = {
paths = (
{
closed = 1;
nodes = (
"448 58 CURVE",
"350 22 OFFCURVE",
"241 58 OFFCURVE",
"193 141 CURVE SMOOTH",
"145 224 OFFCURVE",
"169 338 OFFCURVE",
"249 404 CURVE",
"234 399 OFFCURVE",
"216 390 OFFCURVE",
"205 384 CURVE SMOOTH",
"91 322 OFFCURVE",
"54 193 OFFCURVE",
"111 94 CURVE SMOOTH",
"168 -6 OFFCURVE",
"299 -37 OFFCURVE",
"409 29 CURVE SMOOTH",
"419 35 OFFCURVE",
"435 47 OFFCURVE"
);
},
{
closed = 1;
nodes = (
"398 23 OFFCURVE",
"409 29 CURVE SMOOTH",
"531 96 OFFCURVE",
"573 228 OFFCURVE",
"516 327 CURVE SMOOTH",
"459 426 OFFCURVE",
"328 446 OFFCURVE",
"205 384 CURVE SMOOTH",
"195 379 OFFCURVE",
"179 367 OFFCURVE",
"166 356 CURVE",
"272 395 OFFCURVE",
"387 361 OFFCURVE",
"434 280 CURVE SMOOTH",
"482 198 OFFCURVE",
"452 81 OFFCURVE",
"366 9 CURVE",
"380 15 OFFCURVE"
);
}
);
};
layerId = "EA4A3C90-BC2A-43B1-AFC3-03A46CC68B95";
paths = (
{
closed = 1;
nodes = (
"83 0 LINE",
"168 0 LINE",
"168 600 LINE",
"83 600 LINE"
);
},
{
closed = 1;
nodes = (
"125 500 LINE",
"125 600 LINE",
"25 600 LINE"
);
},
{
closed = 1;
nodes = (
"125 100 LINE",
"25 0 LINE",
"125 0 LINE"
);
},
{
closed = 1;
nodes = (
"121 73 LINE",
"185 -11 OFFCURVE",
"304 -31 OFFCURVE",
"411 27 CURVE SMOOTH",
"422 33 OFFCURVE",
"441 47 OFFCURVE",
"455 59 CURVE",
"358 24 OFFCURVE",
"246 62 OFFCURVE",
"196 148 CURVE SMOOTH",
"144 238 OFFCURVE",
"166 354 OFFCURVE",
"245 419 CURVE",
"229 413 OFFCURVE",
"207 404 OFFCURVE",
"196 398 CURVE SMOOTH",
"165 381 OFFCURVE",
"140 359 OFFCURVE",
"121 334 CURVE"
);
},
{
closed = 1;
nodes = (
"378 12 OFFCURVE",
"400 21 OFFCURVE",
"411 27 CURVE SMOOTH",
"537 96 OFFCURVE",
"582 233 OFFCURVE",
"523 336 CURVE SMOOTH",
"463 440 OFFCURVE",
"322 467 OFFCURVE",
"196 398 CURVE SMOOTH",
"185 392 OFFCURVE",
"168 378 OFFCURVE",
"154 366 CURVE",
"263 406 OFFCURVE",
"382 372 OFFCURVE",
"432 284 CURVE SMOOTH",
"481 198 OFFCURVE",
"450 79 OFFCURVE",
"362 6 CURVE"
);
}
);
width = 574;
},
{
layerId = "AEDC8121-3E5B-40FA-BC83-3F7147C1C4F3";
width = 600;
},
{
layerId = "71685E8E-84B4-4751-A208-735D4797FBD3";
width = 600;
}
);
leftMetricsKey = l;
rightMetricsKey = o;
unicode = 0062;
},
{
glyphname = c;
lastChange = "2017-08-30 14:05:43 +0000";
layers = (
{
background = {
paths = (
{
closed = 1;
nodes = (
"347 331 LINE",
"360 318 OFFCURVE",
"372 304 OFFCURVE",
"381 288 CURVE SMOOTH",
"430 202 OFFCURVE",
"399 83 OFFCURVE",
"311 10 CURVE",
"327 16 OFFCURVE",
"349 25 OFFCURVE",
"360 31 CURVE SMOOTH",
"483 104 OFFCURVE",
"531 237 OFFCURVE",
"472 340 CURVE SMOOTH",
"456 367 OFFCURVE",
"435 389 OFFCURVE",
"410 406 CURVE"
);
}
);
};
guideLines = (
{
angle = 50.3431;
position = "{253, 217}";
},
{
angle = -59.9071;
position = "{253, 217}";
},
{
angle = -50.3431;
position = "{253, 217}";
}
);
layerId = "EA4A3C90-BC2A-43B1-AFC3-03A46CC68B95";
paths = (
{
closed = 1;
nodes = (
"371 37 OFFCURVE",
"390 51 OFFCURVE",
"404 63 CURVE",
"307 28 OFFCURVE",
"195 66 OFFCURVE",
"145 152 CURVE SMOOTH",
"93 242 OFFCURVE",
"115 358 OFFCURVE",
"194 423 CURVE",
"178 417 OFFCURVE",
"156 408 OFFCURVE",
"145 402 CURVE SMOOTH",
"32 336 OFFCURVE",
"-7 206 OFFCURVE",
"54 100 CURVE SMOOTH",
"113 -3 OFFCURVE",
"245 -33 OFFCURVE",
"360 31 CURVE SMOOTH"
);
},
{
closed = 1;
nodes = (
"410 406 LINE",
"339 452 OFFCURVE",
"238 453 OFFCURVE",
"145 402 CURVE SMOOTH",
"134 396 OFFCURVE",
"117 382 OFFCURVE",
"103 370 CURVE",
"192 403 OFFCURVE",
"288 386 OFFCURVE",
"347 331 CURVE"
);
}
);
width = 435;
},
{
layerId = "AEDC8121-3E5B-40FA-BC83-3F7147C1C4F3";
width = 600;
},
{
layerId = "71685E8E-84B4-4751-A208-735D4797FBD3";
width = 600;
}
);
leftMetricsKey = o;
rightMetricsKey = o;
unicode = 0063;
},
{
glyphname = d;
lastChange = "2017-08-30 14:04:21 +0000";
layers = (
{
background = {
paths = (
{
closed = 1;
nodes = (
"446 450 LINE",
"446 350 LINE",
"546 450 LINE"
);
}
);
};
components = (
{
name = l;
transform = "{1, 0, 0, 1, 321, 0}";
}
);
layerId = "EA4A3C90-BC2A-43B1-AFC3-03A46CC68B95";
paths = (
{
closed = 1;
nodes = (
"371 37 OFFCURVE",
"390 51 OFFCURVE",
"404 63 CURVE",
"307 28 OFFCURVE",
"195 66 OFFCURVE",
"145 152 CURVE SMOOTH",
"93 242 OFFCURVE",
"115 358 OFFCURVE",
"194 423 CURVE",
"178 417 OFFCURVE",
"156 408 OFFCURVE",
"145 402 CURVE SMOOTH",
"32 336 OFFCURVE",
"-7 206 OFFCURVE",
"54 100 CURVE SMOOTH",
"113 -3 OFFCURVE",
"245 -33 OFFCURVE",
"360 31 CURVE SMOOTH"
);
},
{
closed = 1;
nodes = (
"404 0 LINE",
"489 0 LINE",
"489 450 LINE",
"404 450 LINE"
);
},
{
closed = 1;
nodes = (
"546 0 LINE",
"446 100 LINE",
"446 0 LINE"
);
},
{
closed = 1;
nodes = (
"456 364 LINE",
"389 448 OFFCURVE",
"261 465 OFFCURVE",
"145 402 CURVE SMOOTH",
"134 396 OFFCURVE",
"117 382 OFFCURVE",
"103 370 CURVE",
"212 410 OFFCURVE",
"331 376 OFFCURVE",
"381 288 CURVE SMOOTH",
"430 202 OFFCURVE",
"399 83 OFFCURVE",
"311 10 CURVE",
"327 16 OFFCURVE",
"349 25 OFFCURVE",
"360 31 CURVE SMOOTH",
"400 55 OFFCURVE",
"433 85 OFFCURVE",
"456 119 CURVE"
);
}
);
width = 576;
},
{
layerId = "AEDC8121-3E5B-40FA-BC83-3F7147C1C4F3";
width = 600;
},
{
layerId = "71685E8E-84B4-4751-A208-735D4797FBD3";
width = 600;
}
);
leftMetricsKey = o;
rightMetricsKey = l;
unicode = 0064;
},
{
glyphname = e;
lastChange = "2017-08-30 14:05:43 +0000";
layers = (
{
layerId = "AEDC8121-3E5B-40FA-BC83-3F7147C1C4F3";
width = 600;
},
{
layerId = "71685E8E-84B4-4751-A208-735D4797FBD3";
width = 600;
},
{
associatedMasterId = "EA4A3C90-BC2A-43B1-AFC3-03A46CC68B95";
guideLines = (
{
angle = 209.8628;
position = "{263, 220}";
},
{
angle = 150.1372;
position = "{263, 220}";
}
);
layerId = "D627E0E8-05B4-4FC3-ACEF-76BFEA2FDAE1";
name = "Aug 24 17, 14:06";
paths = (
{
closed = 1;
nodes = (
"371 37 OFFCURVE",
"390 51 OFFCURVE",
"404 63 CURVE",
"307 28 OFFCURVE",
"195 66 OFFCURVE",
"145 152 CURVE SMOOTH",
"93 242 OFFCURVE",
"115 358 OFFCURVE",
"194 423 CURVE",
"178 417 OFFCURVE",
"156 408 OFFCURVE",
"145 402 CURVE SMOOTH",
"32 336 OFFCURVE",
"-7 206 OFFCURVE",
"54 100 CURVE SMOOTH",
"113 -3 OFFCURVE",
"245 -33 OFFCURVE",
"360 31 CURVE SMOOTH"
);
},
{
closed = 1;
nodes = (
"472 340 LINE",
"412 444 OFFCURVE",
"271 471 OFFCURVE",
"145 402 CURVE SMOOTH",
"134 396 OFFCURVE",
"117 382 OFFCURVE",
"103 370 CURVE",
"212 410 OFFCURVE",
"331 376 OFFCURVE",
"381 288 CURVE"
);
},
{
closed = 1;
nodes = (
"145 152 LINE",
"381 288 LINE",
"370 307 LINE",
"134 171 LINE"
);
},
{
closed = 1;
nodes = (
"371 37 OFFCURVE",
"390 51 OFFCURVE",
"404 63 CURVE",
"307 28 OFFCURVE",
"195 66 OFFCURVE",
"145 152 CURVE SMOOTH",
"93 242 OFFCURVE",
"115 358 OFFCURVE",
"194 423 CURVE",
"178 417 OFFCURVE",
"156 408 OFFCURVE",
"145 402 CURVE SMOOTH",
"32 336 OFFCURVE",
"-7 206 OFFCURVE",
"54 100 CURVE SMOOTH",
"113 -3 OFFCURVE",
"245 -33 OFFCURVE",
"360 31 CURVE SMOOTH"
);
},
{
closed = 1;
nodes = (
"397 143 LINE",
"384 94 OFFCURVE",
"355 46 OFFCURVE",
"311 10 CURVE",
"327 16 OFFCURVE",
"349 25 OFFCURVE",
"360 31 CURVE SMOOTH",
"398 53 OFFCURVE",
"428 81 OFFCURVE",
"451 112 CURVE"
);
}
);
width = 497;
},
{
guideLines = (
{
angle = 209.8628;
position = "{263, 220}";
},
{
angle = 150.1372;
position = "{263, 220}";
}
);
layerId = "EA4A3C90-BC2A-43B1-AFC3-03A46CC68B95";
paths = (
{
closed = 1;
nodes = (
"371 37 OFFCURVE",
"390 51 OFFCURVE",
"404 63 CURVE",
"307 28 OFFCURVE",
"195 66 OFFCURVE",
"145 152 CURVE SMOOTH",
"93 242 OFFCURVE",
"115 358 OFFCURVE",
"194 423 CURVE",
"178 417 OFFCURVE",
"156 408 OFFCURVE",
"145 402 CURVE SMOOTH",
"32 336 OFFCURVE",
"-7 206 OFFCURVE",
"54 100 CURVE SMOOTH",
"113 -3 OFFCURVE",
"245 -33 OFFCURVE",
"360 31 CURVE SMOOTH"
);
},
{
closed = 1;
nodes = (
"472 340 LINE",
"412 444 OFFCURVE",
"271 471 OFFCURVE",
"145 402 CURVE SMOOTH",
"134 396 OFFCURVE",
"117 382 OFFCURVE",
"103 370 CURVE",
"212 410 OFFCURVE",
"331 376 OFFCURVE",
"381 288 CURVE"
);
},
{
closed = 1;
nodes = (
"145 152 LINE",
"381 288 LINE",
"370 307 LINE",
"134 171 LINE"
);
}
);
width = 497;
}
);
leftMetricsKey = o;
rightMetricsKey = o;
unicode = 0065;
},
{
glyphname = f;
lastChange = "2017-08-29 20:57:49 +0000";
layers = (
{
layerId = "AEDC8121-3E5B-40FA-BC83-3F7147C1C4F3";
width = 600;
},
{
layerId = "71685E8E-84B4-4751-A208-735D4797FBD3";
width = 600;
},
{
associatedMasterId = "EA4A3C90-BC2A-43B1-AFC3-03A46CC68B95";
background = {
paths = (
{
closed = 1;
nodes = (
"185 61 LINE",
"100 61 LINE",
"185 -10 LINE"
);
}
);
};
layerId = "4148757B-FAA6-4487-845E-33DF6668E3B5";
name = "Aug 29 17, 16:46";
paths = (
{
closed = 1;
nodes = (
"185 61 LINE",
"185 500 LINE",
"100 500 LINE",
"100 61 LINE"
);
},
{
closed = 1;
nodes = (
"25 390 LINE",
"260 390 LINE",
"280 450 LINE",
"45 450 LINE"
);
},
{
closed = 1;
nodes = (
"185 515 OFFCURVE",
"180 550 OFFCURVE",
"242 550 CURVE SMOOTH",
"262 550 OFFCURVE",
"280 546 OFFCURVE",
"319 535 CURVE",
"279 588 OFFCURVE",
"251 610 OFFCURVE",
"199 610 CURVE SMOOTH",
"115 610 OFFCURVE",
"100 547 OFFCURVE",
"100 500 CURVE",
"185 500 LINE"
);
},
{
closed = 1;
nodes = (
"100 0 LINE",
"185 0 LINE",
"185 231 LINE",
"100 231 LINE"
);
},
{
closed = 1;
nodes = (
"242 0 LINE",
"142 100 LINE",
"142 0 LINE"
);
}
);
width = 339;
},
{
background = {
paths = (
{
closed = 1;
nodes = (
"204 500 LINE",
"200 483 OFFCURVE",
"198 467 OFFCURVE",
"198 450 CURVE SMOOTH",
"198 339 OFFCURVE",
"288 248 OFFCURVE",
"408 248 CURVE SMOOTH",
"451 248 OFFCURVE",
"498 258 OFFCURVE",
"541 284 CURVE SMOOTH",
"551 290 OFFCURVE",
"570 303 OFFCURVE",
"585 316 CURVE",
"558 306 OFFCURVE",
"530 302 OFFCURVE",
"503 302 CURVE SMOOTH",
"385 302 OFFCURVE",
"290 385 OFFCURVE",
"290 500 CURVE"
);
},
{
closed = 1;
nodes = (
"190 515 OFFCURVE",
"185 550 OFFCURVE",
"247 550 CURVE SMOOTH",
"267 550 OFFCURVE",
"285 546 OFFCURVE",
"324 535 CURVE",
"284 588 OFFCURVE",
"256 610 OFFCURVE",
"204 610 CURVE SMOOTH",
"120 610 OFFCURVE",
"105 547 OFFCURVE",
"105 500 CURVE",
"190 500 LINE"
);
},
{
closed = 0;
nodes = (
"477 441 LINE SMOOTH",
"477 376 OFFCURVE",
"447 309 OFFCURVE",
"392 263 CURVE",
"411 270 OFFCURVE",
"432 279 OFFCURVE",
"441 284 CURVE SMOOTH",
"525 331 OFFCURVE",
"570 412 OFFCURVE",
"570 491 CURVE SMOOTH"
);
}
);
};
layerId = "EA4A3C90-BC2A-43B1-AFC3-03A46CC68B95";
paths = (
{
closed = 1;
nodes = (
"190 61 LINE",
"190 500 LINE",
"105 500 LINE",
"105 61 LINE"
);
},
{
closed = 1;
nodes = (
"30 390 LINE",
"265 390 LINE",
"285 450 LINE",
"50 450 LINE"
);
},
{
closed = 1;
nodes = (
"190 61 LINE",
"105 61 LINE",
"190 -10 LINE"
);
},
{
closed = 1;
nodes = (
"190 500 LINE",
"190 565 OFFCURVE",
"220 631 OFFCURVE",
"275 676 CURVE",
"256 669 OFFCURVE",
"235 660 OFFCURVE",
"226 655 CURVE SMOOTH",
"161 619 OFFCURVE",
"105 563 OFFCURVE",
"105 500 CURVE"
);
},
{
closed = 1;
nodes = (
"543 590 LINE",
"505 655 OFFCURVE",
"436 691 OFFCURVE",
"360 691 CURVE SMOOTH",
"316 691 OFFCURVE",
"270 680 OFFCURVE",
"226 655 CURVE SMOOTH",
"219 651 OFFCURVE",
"201 637 OFFCURVE",
"184 623 CURVE",
"212 633 OFFCURVE",
"240 638 OFFCURVE",
"268 638 CURVE SMOOTH",
"344 638 OFFCURVE",
"416 601 OFFCURVE",
"452 538 CURVE"
);
}
);
width = 323;
},
{
associatedMasterId = "EA4A3C90-BC2A-43B1-AFC3-03A46CC68B95";
layerId = "8779AD00-7E71-403C-94A2-F3CCF86E165A";
name = "Aug 29 17, 16:48";
paths = (
{
closed = 1;
nodes = (
"185 61 LINE",
"185 500 LINE",
"100 500 LINE",
"100 61 LINE"
);
},
{
closed = 1;
nodes = (
"25 390 LINE",
"260 390 LINE",
"280 450 LINE",
"45 450 LINE"
);
},
{
closed = 1;
nodes = (
"185 61 LINE",
"100 61 LINE",
"185 -10 LINE"
);
},
{
closed = 1;
nodes = (
"185 515 OFFCURVE",
"180 550 OFFCURVE",
"242 550 CURVE SMOOTH",
"262 550 OFFCURVE",
"280 546 OFFCURVE",
"319 535 CURVE",
"279 588 OFFCURVE",
"251 610 OFFCURVE",
"199 610 CURVE SMOOTH",
"115 610 OFFCURVE",
"100 547 OFFCURVE",
"100 500 CURVE",
"185 500 LINE"
);
}
);
width = 339;
}
);
leftMetricsKey = n;
rightMetricsKey = "=n-250";
unicode = 0066;
},
{
glyphname = g;
lastChange = "2017-08-30 14:05:43 +0000";
layers = (
{
layerId = "AEDC8121-3E5B-40FA-BC83-3F7147C1C4F3";
width = 600;
},
{
layerId = "71685E8E-84B4-4751-A208-735D4797FBD3";
width = 600;
},
{
associatedMasterId = "EA4A3C90-BC2A-43B1-AFC3-03A46CC68B95";
background = {
components = (
{
name = o;
transform = "{1, 0, 0, 1, -2, 21}";
}
);
paths = (
{
closed = 1;
nodes = (
"451 361 LINE",
"387 445 OFFCURVE",
"268 465 OFFCURVE",
"161 407 CURVE SMOOTH",
"150 401 OFFCURVE",
"131 387 OFFCURVE",
"117 375 CURVE",
"214 410 OFFCURVE",
"326 372 OFFCURVE",
"376 286 CURVE SMOOTH",
"428 196 OFFCURVE",
"406 80 OFFCURVE",
"327 15 CURVE",
"343 21 OFFCURVE",
"365 30 OFFCURVE",
"376 36 CURVE SMOOTH",
"407 53 OFFCURVE",
"432 75 OFFCURVE",
"451 100 CURVE"
);
},
{
closed = 1;
nodes = (
"194 422 OFFCURVE",
"172 413 OFFCURVE",
"161 407 CURVE SMOOTH",
"35 338 OFFCURVE",
"-10 201 OFFCURVE",
"49 98 CURVE SMOOTH",
"109 -6 OFFCURVE",
"250 -33 OFFCURVE",
"376 36 CURVE SMOOTH",
"387 42 OFFCURVE",
"404 56 OFFCURVE",
"418 68 CURVE",
"309 28 OFFCURVE",
"190 62 OFFCURVE",
"140 150 CURVE SMOOTH",
"91 236 OFFCURVE",
"122 355 OFFCURVE",
"210 428 CURVE"
);
},
{
closed = 1;
nodes = (
"447 -30 LINE",
"447 -130 LINE",
"547 -130 LINE"
);
},
{
closed = 1;
nodes = (
"418 -175 OFFCURVE",
"437 -161 OFFCURVE",
"449 -151 CURVE",
"318 -198 OFFCURVE",
"203 -204 OFFCURVE",
"180 -165 CURVE SMOOTH",
"152 -116 OFFCURVE",
"177 -42 OFFCURVE",
"239 9 CURVE",
"220 2 OFFCURVE",
"199 -7 OFFCURVE",
"190 -12 CURVE SMOOTH",
"97 -66 OFFCURVE",
"53 -155 OFFCURVE",
"89 -217 CURVE SMOOTH",
"127 -283 OFFCURVE",
"263 -269 OFFCURVE",
"405 -183 CURVE SMOOTH"
);
},
{
closed = 1;
nodes = (
"375 -197 OFFCURVE",
"396 -188 OFFCURVE",
"405 -183 CURVE SMOOTH",
"500 -130 OFFCURVE",
"544 -41 OFFCURVE",
"507 23 CURVE SMOOTH",
"472 83 OFFCURVE",
"336 68 OFFCURVE",
"190 -12 CURVE SMOOTH",
"184 -15 OFFCURVE",
"166 -29 OFFCURVE",
"148 -44 CURVE",
"278 4 OFFCURVE",
"394 10 OFFCURVE",
"416 -29 CURVE SMOOTH",
"444 -77 OFFCURVE",
"418 -152 OFFCURVE",
"356 -204 CURVE"
);
}
);
};
layerId = "3DCC2937-8587-4541-9B9D-EFE156D873AA";
name = "Aug 29 17, 15:53";
paths = (
{
closed = 1;
nodes = (
"447 350 LINE",
"547 450 LINE",
"447 450 LINE"
);
},
{
closed = 1;
nodes = (
"490 450 LINE",
"405 450 LINE",
"405 -34 LINE",
"490 15 LINE"
);
},
{
closed = 1;
nodes = (
"448 350 LINE",
"548 450 LINE",
"448 450 LINE"
);
},
{
closed = 1;
nodes = (
"452 361 LINE",
"413 413 OFFCURVE",
"352 440 OFFCURVE",
"287 440 CURVE SMOOTH",
"246 440 OFFCURVE",
"203 429 OFFCURVE",
"162 407 CURVE SMOOTH",
"151 401 OFFCURVE",
"132 387 OFFCURVE",
"118 375 CURVE",
"142 384 OFFCURVE",
"168 388 OFFCURVE",
"192 388 CURVE SMOOTH",
"267 388 OFFCURVE",
"340 350 OFFCURVE",
"377 286 CURVE SMOOTH",
"396 253 OFFCURVE",
"405 216 OFFCURVE",
"405 180 CURVE SMOOTH",
"405 118 OFFCURVE",
"378 56 OFFCURVE",
"328 15 CURVE",
"344 21 OFFCURVE",
"366 30 OFFCURVE",
"377 36 CURVE SMOOTH",
"408 53 OFFCURVE",
"433 75 OFFCURVE",
"452 100 CURVE"
);
},
{
closed = 1;
nodes = (
"195 422 OFFCURVE",
"173 413 OFFCURVE",
"162 407 CURVE SMOOTH",
"73 358 OFFCURVE",
"24 275 OFFCURVE",
"24 195 CURVE SMOOTH",
"24 161 OFFCURVE",
"33 128 OFFCURVE",
"50 98 CURVE SMOOTH",
"87 32 OFFCURVE",
"157 -2 OFFCURVE",
"235 -2 CURVE SMOOTH",
"281 -2 OFFCURVE",
"330 10 OFFCURVE",
"377 36 CURVE SMOOTH",
"388 42 OFFCURVE",
"405 56 OFFCURVE",
"419 68 CURVE",
"388 57 OFFCURVE",
"357 51 OFFCURVE",
"327 51 CURVE SMOOTH",
"249 51 OFFCURVE",
"177 87 OFFCURVE",
"141 150 CURVE SMOOTH",
"125 178 OFFCURVE",
"118 209 OFFCURVE",
"118 240 CURVE SMOOTH",
"118 308 OFFCURVE",
"151 378 OFFCURVE",
"211 428 CURVE"
);
},
{
closed = 1;
nodes = (
"430 -163 OFFCURVE",
"490 -94 OFFCURVE",
"490 15 CURVE",
"405 -34 LINE",
"405 -96 OFFCURVE",
"378 -158 OFFCURVE",
"328 -200 CURVE"
);
}
);
width = 578;
},
{
background = {
components = (
{
name = o;
transform = "{1, 0, 0, 1, -1, 21}";
}
);
paths = (
{
closed = 1;
nodes = (
"452 361 LINE",
"388 445 OFFCURVE",
"269 465 OFFCURVE",
"162 407 CURVE SMOOTH",
"151 401 OFFCURVE",
"132 387 OFFCURVE",
"118 375 CURVE",
"215 410 OFFCURVE",
"327 372 OFFCURVE",
"377 286 CURVE SMOOTH",
"429 196 OFFCURVE",
"407 80 OFFCURVE",
"328 15 CURVE",
"344 21 OFFCURVE",
"366 30 OFFCURVE",
"377 36 CURVE SMOOTH",
"408 53 OFFCURVE",
"433 75 OFFCURVE",
"452 100 CURVE"
);
},
{
closed = 1;
nodes = (
"195 422 OFFCURVE",
"173 413 OFFCURVE",
"162 407 CURVE SMOOTH",
"36 338 OFFCURVE",
"-9 201 OFFCURVE",
"50 98 CURVE SMOOTH",
"110 -6 OFFCURVE",
"251 -33 OFFCURVE",
"377 36 CURVE SMOOTH",
"388 42 OFFCURVE",
"405 56 OFFCURVE",
"419 68 CURVE",
"310 28 OFFCURVE",
"191 62 OFFCURVE",
"141 150 CURVE SMOOTH",
"92 236 OFFCURVE",
"123 355 OFFCURVE",
"211 428 CURVE"
);
},
{
closed = 1;
nodes = (
"448 -30 LINE",
"448 -130 LINE",
"548 -130 LINE"
);
},
{
closed = 1;
nodes = (
"419 -175 OFFCURVE",
"438 -161 OFFCURVE",
"450 -151 CURVE",
"319 -198 OFFCURVE",
"204 -204 OFFCURVE",
"181 -165 CURVE SMOOTH",
"153 -116 OFFCURVE",
"178 -42 OFFCURVE",
"240 9 CURVE",
"221 2 OFFCURVE",
"200 -7 OFFCURVE",
"191 -12 CURVE SMOOTH",
"98 -66 OFFCURVE",
"54 -155 OFFCURVE",
"90 -217 CURVE SMOOTH",
"128 -283 OFFCURVE",
"264 -269 OFFCURVE",
"406 -183 CURVE SMOOTH"
);
},
{
closed = 1;
nodes = (
"376 -197 OFFCURVE",
"397 -188 OFFCURVE",
"406 -183 CURVE SMOOTH",
"501 -130 OFFCURVE",
"545 -41 OFFCURVE",
"508 23 CURVE SMOOTH",
"473 83 OFFCURVE",
"337 68 OFFCURVE",
"191 -12 CURVE SMOOTH",
"185 -15 OFFCURVE",
"167 -29 OFFCURVE",
"149 -44 CURVE",
"279 4 OFFCURVE",
"395 10 OFFCURVE",
"417 -29 CURVE SMOOTH",
"445 -77 OFFCURVE",
"419 -152 OFFCURVE",
"357 -204 CURVE"
);
}
);
};
layerId = "EA4A3C90-BC2A-43B1-AFC3-03A46CC68B95";
paths = (
{
closed = 1;
nodes = (
"448 350 LINE",
"548 450 LINE",
"448 450 LINE"
);
},
{
closed = 1;
nodes = (
"491 450 LINE",
"406 450 LINE",
"406 -34 LINE",
"491 15 LINE"
);
},
{
closed = 1;
nodes = (
"449 350 LINE",
"549 450 LINE",
"449 450 LINE"
);
},
{
closed = 1;
nodes = (
"453 379 LINE",
"414 431 OFFCURVE",
"353 458 OFFCURVE",
"288 458 CURVE SMOOTH",
"247 458 OFFCURVE",
"204 447 OFFCURVE",
"163 425 CURVE SMOOTH",
"152 419 OFFCURVE",
"133 405 OFFCURVE",
"119 393 CURVE",
"143 402 OFFCURVE",
"169 406 OFFCURVE",
"193 406 CURVE SMOOTH",
"268 406 OFFCURVE",
"341 368 OFFCURVE",
"378 304 CURVE SMOOTH",
"397 271 OFFCURVE",
"406 234 OFFCURVE",
"406 198 CURVE SMOOTH",
"406 136 OFFCURVE",
"379 74 OFFCURVE",
"329 33 CURVE",
"345 39 OFFCURVE",
"367 48 OFFCURVE",
"378 54 CURVE SMOOTH",
"409 71 OFFCURVE",
"434 93 OFFCURVE",
"453 118 CURVE"
);
},
{
closed = 1;
nodes = (
"196 440 OFFCURVE",
"174 431 OFFCURVE",
"163 425 CURVE SMOOTH",
"74 376 OFFCURVE",
"25 293 OFFCURVE",
"25 213 CURVE SMOOTH",
"25 179 OFFCURVE",
"34 146 OFFCURVE",
"51 116 CURVE SMOOTH",
"89 51 OFFCURVE",
"158 16 OFFCURVE",
"236 16 CURVE SMOOTH",
"282 16 OFFCURVE",
"331 28 OFFCURVE",
"378 54 CURVE SMOOTH",
"389 60 OFFCURVE",
"406 74 OFFCURVE",
"420 86 CURVE",
"389 75 OFFCURVE",
"358 69 OFFCURVE",
"328 69 CURVE SMOOTH",
"250 69 OFFCURVE",
"178 105 OFFCURVE",
"142 168 CURVE SMOOTH",
"126 196 OFFCURVE",
"119 227 OFFCURVE",
"119 258 CURVE SMOOTH",
"119 326 OFFCURVE",
"152 396 OFFCURVE",
"212 446 CURVE"
);
},
{
closed = 1;
nodes = (
"431 -163 OFFCURVE",
"491 -94 OFFCURVE",
"491 15 CURVE",
"406 -34 LINE",
"406 -96 OFFCURVE",
"379 -158 OFFCURVE",
"329 -200 CURVE"
);
}
);
width = 579;
},
{
associatedMasterId = "EA4A3C90-BC2A-43B1-AFC3-03A46CC68B95";
background = {
components = (
{
name = o;
transform = "{1, 0, 0, 1, -2, 21}";
}
);
paths = (
{
closed = 1;
nodes = (
"451 361 LINE",
"387 445 OFFCURVE",
"268 465 OFFCURVE",
"161 407 CURVE SMOOTH",
"150 401 OFFCURVE",
"131 387 OFFCURVE",
"117 375 CURVE",
"214 410 OFFCURVE",
"326 372 OFFCURVE",
"376 286 CURVE SMOOTH",
"428 196 OFFCURVE",
"406 80 OFFCURVE",
"327 15 CURVE",
"343 21 OFFCURVE",
"365 30 OFFCURVE",
"376 36 CURVE SMOOTH",
"407 53 OFFCURVE",
"432 75 OFFCURVE",
"451 100 CURVE"
);
},
{
closed = 1;
nodes = (
"194 422 OFFCURVE",
"172 413 OFFCURVE",
"161 407 CURVE SMOOTH",
"35 338 OFFCURVE",
"-10 201 OFFCURVE",
"49 98 CURVE SMOOTH",
"109 -6 OFFCURVE",
"250 -33 OFFCURVE",
"376 36 CURVE SMOOTH",
"387 42 OFFCURVE",
"404 56 OFFCURVE",
"418 68 CURVE",
"309 28 OFFCURVE",
"190 62 OFFCURVE",
"140 150 CURVE SMOOTH",
"91 236 OFFCURVE",
"122 355 OFFCURVE",
"210 428 CURVE"
);
},
{
closed = 1;
nodes = (
"447 -30 LINE",
"447 -130 LINE",
"547 -130 LINE"
);
},
{
closed = 1;
nodes = (
"418 -175 OFFCURVE",
"437 -161 OFFCURVE",
"449 -151 CURVE",
"318 -198 OFFCURVE",
"203 -204 OFFCURVE",
"180 -165 CURVE SMOOTH",
"152 -116 OFFCURVE",
"177 -42 OFFCURVE",
"239 9 CURVE",
"220 2 OFFCURVE",
"199 -7 OFFCURVE",
"190 -12 CURVE SMOOTH",
"97 -66 OFFCURVE",
"53 -155 OFFCURVE",
"89 -217 CURVE SMOOTH",
"127 -283 OFFCURVE",
"263 -269 OFFCURVE",
"405 -183 CURVE SMOOTH"
);
},
{
closed = 1;
nodes = (
"375 -197 OFFCURVE",
"396 -188 OFFCURVE",
"405 -183 CURVE SMOOTH",
"500 -130 OFFCURVE",
"544 -41 OFFCURVE",
"507 23 CURVE SMOOTH",
"472 83 OFFCURVE",
"336 68 OFFCURVE",
"190 -12 CURVE SMOOTH",
"184 -15 OFFCURVE",
"166 -29 OFFCURVE",
"148 -44 CURVE",
"278 4 OFFCURVE",
"394 10 OFFCURVE",
"416 -29 CURVE SMOOTH",
"444 -77 OFFCURVE",
"418 -152 OFFCURVE",
"356 -204 CURVE"
);
}
);
};
layerId = "E67EA18A-E072-478B-BD2F-79132378F440";
name = "Aug 29 17, 15:53";
paths = (
{
closed = 1;
nodes = (
"447 350 LINE",
"547 450 LINE",
"447 450 LINE"
);
},
{
closed = 1;
nodes = (
"347 450 LINE",
"447 350 LINE",
"447 450 LINE"
);
},
{
closed = 1;
nodes = (
"490 450 LINE",
"405 450 LINE",
"405 -34 LINE",
"490 15 LINE"
);
},
{
closed = 1;
nodes = (
"448 350 LINE",
"548 450 LINE",
"448 450 LINE"
);
},
{
closed = 1;
nodes = (
"452 379 LINE",
"413 431 OFFCURVE",
"352 458 OFFCURVE",
"287 458 CURVE SMOOTH",
"246 458 OFFCURVE",
"203 447 OFFCURVE",
"162 425 CURVE SMOOTH",
"151 419 OFFCURVE",
"132 405 OFFCURVE",
"118 393 CURVE",
"142 402 OFFCURVE",
"168 406 OFFCURVE",
"192 406 CURVE SMOOTH",
"267 406 OFFCURVE",
"340 368 OFFCURVE",
"377 304 CURVE SMOOTH",
"396 271 OFFCURVE",
"405 234 OFFCURVE",
"405 198 CURVE SMOOTH",
"405 136 OFFCURVE",
"378 74 OFFCURVE",
"328 33 CURVE",
"344 39 OFFCURVE",
"366 48 OFFCURVE",
"377 54 CURVE SMOOTH",
"408 71 OFFCURVE",
"433 93 OFFCURVE",
"452 118 CURVE"
);
},
{
closed = 1;
nodes = (
"195 440 OFFCURVE",
"173 431 OFFCURVE",
"162 425 CURVE SMOOTH",
"73 376 OFFCURVE",
"24 293 OFFCURVE",
"24 213 CURVE SMOOTH",
"24 179 OFFCURVE",
"33 146 OFFCURVE",
"50 116 CURVE SMOOTH",
"88 51 OFFCURVE",
"157 16 OFFCURVE",
"235 16 CURVE SMOOTH",
"281 16 OFFCURVE",
"330 28 OFFCURVE",
"377 54 CURVE SMOOTH",
"388 60 OFFCURVE",
"405 74 OFFCURVE",
"419 86 CURVE",
"388 75 OFFCURVE",
"357 69 OFFCURVE",
"327 69 CURVE SMOOTH",
"249 69 OFFCURVE",
"177 105 OFFCURVE",
"141 168 CURVE SMOOTH",
"125 196 OFFCURVE",
"118 227 OFFCURVE",
"118 258 CURVE SMOOTH",
"118 326 OFFCURVE",
"151 396 OFFCURVE",
"211 446 CURVE"
);
},
{
closed = 1;
nodes = (
"430 -163 OFFCURVE",
"490 -94 OFFCURVE",
"490 15 CURVE",
"405 -34 LINE",
"405 -96 OFFCURVE",
"378 -158 OFFCURVE",
"328 -200 CURVE"
);
}
);
width = 578;
}
);
leftMetricsKey = o;
rightMetricsKey = n;
unicode = 0067;
},
{
glyphname = h;
lastChange = "2017-08-30 14:05:43 +0000";
layers = (
{
layerId = "EA4A3C90-BC2A-43B1-AFC3-03A46CC68B95";
paths = (
{
closed = 1;
nodes = (
"83 0 LINE",
"168 0 LINE",
"168 600 LINE",
"83 600 LINE"
);
},
{
closed = 1;
nodes = (
"125 500 LINE",
"125 600 LINE",
"25 600 LINE"
);
},
{
closed = 1;
nodes = (
"225 0 LINE",
"125 100 LINE",
"125 0 LINE"
);
},
{
closed = 1;
nodes = (
"465 167 LINE",
"465 354 OFFCURVE",
"418 441 OFFCURVE",
"316 441 CURVE SMOOTH",
"242 441 OFFCURVE",
"181 418 OFFCURVE",
"123 368 CURVE",
"157 380 OFFCURVE",
"189 386 OFFCURVE",
"223 386 CURVE SMOOTH",
"330 386 OFFCURVE",
"380 317 OFFCURVE",
"380 167 CURVE"
);
},
{
closed = 1;
nodes = (
"380 0 LINE",
"465 0 LINE",
"465 167 LINE",
"380 167 LINE"
);
},
{
closed = 1;
nodes = (
"522 0 LINE",
"422 100 LINE",
"422 0 LINE"
);
}
);
width = 552;
},
{
layerId = "AEDC8121-3E5B-40FA-BC83-3F7147C1C4F3";
width = 600;
},
{
layerId = "71685E8E-84B4-4751-A208-735D4797FBD3";
width = 600;
}
);
leftMetricsKey = l;
rightMetricsKey = n;
unicode = 0068;
},
{
glyphname = i;
lastChange = "2017-08-30 13:58:47 +0000";
layers = (
{
layerId = "AEDC8121-3E5B-40FA-BC83-3F7147C1C4F3";
width = 600;
},
{
layerId = "71685E8E-84B4-4751-A208-735D4797FBD3";
width = 600;
},
{
associatedMasterId = "EA4A3C90-BC2A-43B1-AFC3-03A46CC68B95";
layerId = "335C5E8E-A4C3-43E4-B235-03AA09E24790";
name = "Aug 29 17, 15:55";
paths = (
{
closed = 1;
nodes = (
"88 0 LINE",
"173 0 LINE",
"173 450 LINE",
"88 450 LINE"
);
},
{
closed = 1;
nodes = (
"130 350 LINE",
"130 450 LINE",
"30 450 LINE"
);
},
{
closed = 1;
nodes = (
"230 0 LINE",
"130 100 LINE",
"130 0 LINE"
);
},
{
closed = 1;
nodes = (
"88 515 LINE",
"173 515 LINE",
"173 600 LINE",
"88 600 LINE"
);
}
);
width = 260;
},
{
associatedMasterId = "EA4A3C90-BC2A-43B1-AFC3-03A46CC68B95";
layerId = "26F741F3-0C40-4CE7-8E4C-D0BBB7E1CAF0";
name = "Aug 29 17, 15:56";
paths = (
{
closed = 1;
nodes = (
"88 0 LINE",
"173 0 LINE",
"173 450 LINE",
"88 450 LINE"
);
},
{
closed = 1;
nodes = (
"130 350 LINE",
"130 450 LINE",
"30 450 LINE"
);
},
{
closed = 1;
nodes = (
"230 0 LINE",
"130 100 LINE",
"130 0 LINE"
);
},
{
closed = 1;
nodes = (
"158 508 OFFCURVE",
"180 530 OFFCURVE",
"180 558 CURVE SMOOTH",
"180 585 OFFCURVE",
"158 607 OFFCURVE",
"131 607 CURVE SMOOTH",
"103 607 OFFCURVE",
"81 585 OFFCURVE",
"81 558 CURVE SMOOTH",
"81 530 OFFCURVE",
"103 508 OFFCURVE",
"131 508 CURVE SMOOTH"
);
}
);
width = 260;
},
{
associatedMasterId = "EA4A3C90-BC2A-43B1-AFC3-03A46CC68B95";
background = {
paths = (
{
closed = 1;
nodes = (
"158 508 OFFCURVE",
"180 530 OFFCURVE",
"180 558 CURVE SMOOTH",
"180 585 OFFCURVE",
"158 607 OFFCURVE",
"131 607 CURVE SMOOTH",
"103 607 OFFCURVE",
"81 585 OFFCURVE",
"81 558 CURVE SMOOTH",
"81 530 OFFCURVE",
"103 508 OFFCURVE",
"131 508 CURVE SMOOTH"
);
}
);
};
layerId = "1547FB10-3BE9-4D60-BFFD-9C703BE0303E";
name = "Aug 29 17, 16:03";
paths = (
{
closed = 1;
nodes = (
"88 0 LINE",
"173 0 LINE",
"173 450 LINE",
"88 450 LINE"
);
},
{
closed = 1;
nodes = (
"130 350 LINE",
"130 450 LINE",
"30 450 LINE"
);
},
{
closed = 1;
nodes = (
"230 0 LINE",
"130 100 LINE",
"130 0 LINE"
);
},
{
closed = 1;
nodes = (
"97 510 OFFCURVE",
"128 504 OFFCURVE",
"154 517 CURVE SMOOTH",
"181 531 OFFCURVE",
"189 560 OFFCURVE",
"175 582 CURVE SMOOTH",
"162 603 OFFCURVE",
"135 611 OFFCURVE",
"109 598 CURVE SMOOTH",
"84 586 OFFCURVE",
"76 557 OFFCURVE",
"87 532 CURVE SMOOTH"
);
}
);
width = 260;
},
{
background = {
paths = (
{
closed = 1;
nodes = (
"83 515 LINE",
"168 515 LINE",
"168 600 LINE",
"83 600 LINE"
);
}
);
};
guideLines = (
{
angle = 90;
position = "{25, 450}";
},
{
angle = 90;
position = "{168, 450}";
}
);
layerId = "EA4A3C90-BC2A-43B1-AFC3-03A46CC68B95";
paths = (
{
closed = 1;
nodes = (
"83 0 LINE",
"168 0 LINE",
"168 450 LINE",
"83 450 LINE"
);
},
{
closed = 1;
nodes = (
"125 350 LINE",
"125 450 LINE",
"25 450 LINE"
);
},
{
closed = 1;
nodes = (
"225 0 LINE",
"125 100 LINE",
"125 0 LINE"
);
},
{
closed = 1;
nodes = (
"45 600 LINE",
"116 515 LINE",
"186 600 LINE"
);
}
);
width = 255;
}
);
leftMetricsKey = "=n-5";
rightMetricsKey = n;
unicode = 0069;
},
{
glyphname = j;
lastChange = "2017-08-30 13:06:59 +0000";
layers = (
{
background = {
paths = (
{
closed = 1;
nodes = (
"102 0 LINE",
"187 0 LINE",
"187 450 LINE",
"102 450 LINE"
);
},
{
closed = 1;
nodes = (
"244 0 LINE",
"144 100 LINE",
"144 0 LINE"
);
}
);
};
layerId = "EA4A3C90-BC2A-43B1-AFC3-03A46CC68B95";
paths = (
{
closed = 1;
nodes = (
"144 350 LINE",
"144 450 LINE",
"44 450 LINE"
);
},
{
closed = 1;
nodes = (
"64 600 LINE",
"135 515 LINE",
"205 600 LINE"
);
},
{
closed = 1;
nodes = (
"187 450 LINE",
"102 450 LINE",
"102 -34 LINE",
"187 15 LINE"
);
},
{
closed = 1;
nodes = (
"127 -163 OFFCURVE",
"187 -94 OFFCURVE",
"187 15 CURVE",
"102 -34 LINE",
"102 -96 OFFCURVE",
"75 -158 OFFCURVE",
"25 -200 CURVE"
);
}
);
width = 255;
},
{
layerId = "AEDC8121-3E5B-40FA-BC83-3F7147C1C4F3";
width = 600;
},
{
layerId = "71685E8E-84B4-4751-A208-735D4797FBD3";
width = 600;
}
);
leftMetricsKey = "=n-5";
rightMetricsKey = "=n+20";
unicode = 006A;
},
{
glyphname = k;
lastChange = "2017-08-30 13:53:05 +0000";
layers = (
{
background = {
paths = (
{
closed = 1;
nodes = (
"213 302 LINE",
"30 484 LINE",
"-29 424 LINE",
"213 182 LINE"
);
},
{
closed = 1;
nodes = (
"-29 60 LINE",
"30 0 LINE",
"213 182 LINE",
"213 302 LINE"
);
}
);
};
guideLines = (
{
angle = 135;
position = "{173, 272}";
},
{
angle = 90;
position = "{470, 484}";
}
);
layerId = "EA4A3C90-BC2A-43B1-AFC3-03A46CC68B95";
paths = (
{
closed = 1;
nodes = (
"83 0 LINE",
"168 0 LINE",
"168 600 LINE",
"83 600 LINE"
);
},
{
closed = 1;
nodes = (
"125 500 LINE",
"125 600 LINE",
"25 600 LINE"
);
},
{
closed = 1;
nodes = (
"225 0 LINE",
"125 100 LINE",
"125 0 LINE"
);
},
{
closed = 1;
nodes = (
"168 182 LINE",
"470 484 LINE",
"350 484 LINE",
"168 302 LINE"
);
},
{
closed = 1;
nodes = (
"410 0 LINE",
"530 0 LINE",
"228 302 LINE",
"168 241 LINE"
);
},
{
closed = 1;
nodes = (
"370 384 LINE",
"370 484 LINE",
"270 484 LINE"
);
},
{
closed = 1;
nodes = (
"430 100 LINE",
"330 0 LINE",
"430 0 LINE"
);
}
);
width = 545;
},
{
layerId = "AEDC8121-3E5B-40FA-BC83-3F7147C1C4F3";
width = 600;
},
{
layerId = "71685E8E-84B4-4751-A208-735D4797FBD3";
width = 600;
}
);
leftMetricsKey = l;
rightMetricsKey = "=n-15";
unicode = 006B;
},
{
glyphname = l;
lastChange = "2017-08-30 13:07:35 +0000";
layers = (
{
background = {
paths = (
{
closed = 1;
nodes = (
"225 0 LINE",
"125 100 LINE",
"25 0 LINE"
);
},
{
closed = 1;
nodes = (
"125 500 LINE",
"225 600 LINE",
"25 600 LINE"
);
}
);
};
layerId = "EA4A3C90-BC2A-43B1-AFC3-03A46CC68B95";
paths = (
{
closed = 1;
nodes = (
"83 0 LINE",
"168 0 LINE",
"168 600 LINE",
"83 600 LINE"
);
},
{
closed = 1;
nodes = (
"125 500 LINE",
"125 600 LINE",
"25 600 LINE"
);
},
{
closed = 1;
nodes = (
"225 0 LINE",
"125 100 LINE",
"125 0 LINE"
);
}
);
width = 255;
},
{
associatedMasterId = "EA4A3C90-BC2A-43B1-AFC3-03A46CC68B95";
background = {
paths = (
{
closed = 1;
nodes = (
"250 0 LINE",
"150 100 LINE",
"50 0 LINE"
);
},
{
closed = 1;
nodes = (
"150 500 LINE",
"250 600 LINE",
"50 600 LINE"
);
}
);
};
layerId = "24DE122D-6DF2-4FD0-B9FF-4F71478F2E4C";
name = "Aug 24 17, 12:57";
paths = (
{
closed = 1;
nodes = (
"108 0 LINE",
"193 0 LINE",
"193 600 LINE",
"108 600 LINE"
);
}
);
width = 300;
},
{
associatedMasterId = "EA4A3C90-BC2A-43B1-AFC3-03A46CC68B95";
background = {
paths = (
{
closed = 1;
nodes = (
"250 0 LINE",
"150 100 LINE",
"50 0 LINE"
);
},
{
closed = 1;
nodes = (
"150 500 LINE",
"250 600 LINE",
"50 600 LINE"
);
}
);
};
layerId = "2185623C-0820-4FBB-A9E1-A26A899FE32F";
name = "Aug 24 17, 12:57";
paths = (
{
closed = 1;
nodes = (
"108 0 LINE",
"193 0 LINE",
"193 600 LINE",
"108 600 LINE"
);
},
{
closed = 1;
nodes = (
"150 500 LINE",
"150 600 LINE",
"50 600 LINE"
);
},
{
closed = 1;
nodes = (
"250 0 LINE",
"150 100 LINE",
"150 0 LINE"
);
}
);
width = 300;
},
{
layerId = "AEDC8121-3E5B-40FA-BC83-3F7147C1C4F3";
width = 560;
},
{
layerId = "71685E8E-84B4-4751-A208-735D4797FBD3";
width = 560;
}
);
leftMetricsKey = "=n-5";
rightMetricsKey = "=n";
unicode = 006C;
},
{
glyphname = lslash;
lastChange = "2017-09-05 11:48:50 +0000";
layers = (
{
layerId = "AEDC8121-3E5B-40FA-BC83-3F7147C1C4F3";
width = 600;
},
{
components = (
{
name = l;
transform = "{1, 0, 0, 1, 1, 0}";
}
);
layerId = "EA4A3C90-BC2A-43B1-AFC3-03A46CC68B95";
paths = (
{
closed = 1;
nodes = (
"15 336 LINE",
"242 397 LINE",
"242 460 LINE",
"15 399 LINE"
);
}
);
width = 262;
},
{
layerId = "71685E8E-84B4-4751-A208-735D4797FBD3";
width = 600;
}
);
leftMetricsKey = "=l-10";
rightMetricsKey = "=l-10";
unicode = 0142;
},
{
glyphname = m;
lastChange = "2017-08-24 18:26:00 +0000";
layers = (
{
layerId = "EA4A3C90-BC2A-43B1-AFC3-03A46CC68B95";
paths = (
{
closed = 1;
nodes = (
"88 0 LINE",
"173 0 LINE",
"173 450 LINE",
"88 450 LINE"
);
},
{
closed = 1;
nodes = (
"130 350 LINE",
"130 450 LINE",
"30 450 LINE"
);
},
{
closed = 1;
nodes = (
"230 0 LINE",
"130 100 LINE",
"130 0 LINE"
);
},
{
closed = 1;
nodes = (
"410 167 LINE",
"410 354 OFFCURVE",
"423 441 OFFCURVE",
"321 441 CURVE SMOOTH",
"247 441 OFFCURVE",
"186 418 OFFCURVE",
"128 368 CURVE",
"162 380 OFFCURVE",
"194 386 OFFCURVE",
"228 386 CURVE SMOOTH",
"335 386 OFFCURVE",
"325 317 OFFCURVE",
"325 167 CURVE"
);
},
{
closed = 1;
nodes = (
"325 0 LINE",
"410 0 LINE",
"410 167 LINE",
"325 167 LINE"
);
},
{
closed = 1;
nodes = (
"467 0 LINE",
"367 100 LINE",
"367 0 LINE"
);
},
{
closed = 1;
nodes = (
"647 167 LINE",
"647 354 OFFCURVE",
"660 441 OFFCURVE",
"558 441 CURVE SMOOTH",
"484 441 OFFCURVE",
"423 418 OFFCURVE",
"365 368 CURVE",
"399 380 OFFCURVE",
"431 386 OFFCURVE",
"465 386 CURVE SMOOTH",
"572 386 OFFCURVE",
"562 317 OFFCURVE",
"562 167 CURVE"
);
},
{
closed = 1;
nodes = (
"562 0 LINE",
"647 0 LINE",
"647 167 LINE",
"562 167 LINE"
);
},
{
closed = 1;
nodes = (
"704 0 LINE",
"604 100 LINE",
"604 0 LINE"
);
}
);
width = 734;
},
{
layerId = "AEDC8121-3E5B-40FA-BC83-3F7147C1C4F3";
width = 600;
},
{
layerId = "71685E8E-84B4-4751-A208-735D4797FBD3";
width = 600;
}
);
leftMetricsKey = n;
rightMetricsKey = n;
unicode = 006D;
},
{
glyphname = n;
lastChange = "2017-08-24 18:25:06 +0000";
layers = (
{
associatedMasterId = "EA4A3C90-BC2A-43B1-AFC3-03A46CC68B95";
background = {
paths = (
{
closed = 1;
nodes = (
"486 62 CURVE",
"365 18 OFFCURVE",
"228 65 OFFCURVE",
"166 173 CURVE SMOOTH",
"109 272 OFFCURVE",
"141 409 OFFCURVE",
"239 491 CURVE",
"222 485 OFFCURVE",
"201 475 OFFCURVE",
"191 469 CURVE SMOOTH",
"56 388 OFFCURVE",
"7 239 OFFCURVE",
"75 121 CURVE SMOOTH",
"149 -7 OFFCURVE",
"307 -45 OFFCURVE",
"443 31 CURVE SMOOTH",
"454 37 OFFCURVE",
"472 50 OFFCURVE"
);
}
);
};
layerId = "AC215E38-9F6D-46E8-9A1F-E8BAD399B106";
name = "Aug 24 17, 13:09";
paths = (
{
closed = 1;
nodes = (
"108 0 LINE",
"193 0 LINE",
"193 500 LINE",
"108 500 LINE"
);
},
{
closed = 1;
nodes = (
"150 400 LINE",
"150 500 LINE",
"50 500 LINE"
);
},
{
closed = 1;
nodes = (
"250 0 LINE",
"150 100 LINE",
"150 0 LINE"
);
},
{
closed = 1;
nodes = (
"577 217 LINE",
"577 385 OFFCURVE",
"476 511 OFFCURVE",
"341 511 CURVE SMOOTH",
"280 511 OFFCURVE",
"197 480 OFFCURVE",
"148 438 CURVE",
"176 448 OFFCURVE",
"219 456 OFFCURVE",
"248 456 CURVE SMOOTH",
"387 456 OFFCURVE",
"492 353 OFFCURVE",
"492 217 CURVE"
);
},
{
closed = 1;
nodes = (
"492 0 LINE",
"577 0 LINE",
"577 217 LINE",
"492 217 LINE"
);
},
{
closed = 1;
nodes = (
"634 0 LINE",
"534 100 LINE",
"534 0 LINE"
);
}
);
width = 664;
},
{
associatedMasterId = "EA4A3C90-BC2A-43B1-AFC3-03A46CC68B95";
background = {
paths = (
{
closed = 1;
nodes = (
"466 62 CURVE",
"345 18 OFFCURVE",
"208 65 OFFCURVE",
"146 173 CURVE SMOOTH",
"89 272 OFFCURVE",
"121 409 OFFCURVE",
"219 491 CURVE",
"202 485 OFFCURVE",
"181 475 OFFCURVE",
"171 469 CURVE SMOOTH",
"36 388 OFFCURVE",
"-13 239 OFFCURVE",
"55 121 CURVE SMOOTH",
"129 -7 OFFCURVE",
"287 -45 OFFCURVE",
"423 31 CURVE SMOOTH",
"434 37 OFFCURVE",
"452 50 OFFCURVE"
);
}
);
};
layerId = "13DCC166-53AD-48FE-A966-F581D38FB7B2";
name = "Aug 24 17, 13:17";
paths = (
{
closed = 1;
nodes = (
"88 0 LINE",
"173 0 LINE",
"173 450 LINE",
"88 450 LINE"
);
},
{
closed = 1;
nodes = (
"130 350 LINE",
"130 450 LINE",
"30 450 LINE"
);
},
{
closed = 1;
nodes = (
"230 0 LINE",
"130 100 LINE",
"130 0 LINE"
);
},
{
closed = 1;
nodes = (
"445 0 LINE",
"530 0 LINE",
"530 301 LINE",
"445 219 LINE"
);
},
{
closed = 1;
nodes = (
"587 0 LINE",
"487 100 LINE",
"487 0 LINE"
);
},
{
closed = 1;
nodes = (
"530 301 LINE",
"525 315 OFFCURVE",
"520 326 OFFCURVE",
"514 336 CURVE SMOOTH",
"451 445 OFFCURVE",
"304 472 OFFCURVE",
"171 399 CURVE SMOOTH",
"160 393 OFFCURVE",
"142 380 OFFCURVE",
"128 368 CURVE",
"245 411 OFFCURVE",
"372 374 OFFCURVE",
"423 284 CURVE SMOOTH",
"434 264 OFFCURVE",
"442 242 OFFCURVE",
"445 219 CURVE"
);
}
);
width = 555;
},
{
associatedMasterId = "EA4A3C90-BC2A-43B1-AFC3-03A46CC68B95";
background = {
paths = (
{
closed = 1;
nodes = (
"466 62 CURVE",
"345 18 OFFCURVE",
"208 65 OFFCURVE",
"146 173 CURVE SMOOTH",
"89 272 OFFCURVE",
"121 409 OFFCURVE",
"219 491 CURVE",
"202 485 OFFCURVE",
"181 475 OFFCURVE",
"171 469 CURVE SMOOTH",
"36 388 OFFCURVE",
"-13 239 OFFCURVE",
"55 121 CURVE SMOOTH",
"129 -7 OFFCURVE",
"287 -45 OFFCURVE",
"423 31 CURVE SMOOTH",
"434 37 OFFCURVE",
"452 50 OFFCURVE"
);
}
);
};
layerId = "ADFE83F7-306A-450A-BB41-26ED12536AA1";
name = "Aug 24 17, 13:19";
paths = (
{
closed = 1;
nodes = (
"88 0 LINE",
"173 0 LINE",
"173 450 LINE",
"88 450 LINE"
);
},
{
closed = 1;
nodes = (
"130 350 LINE",
"130 450 LINE",
"30 450 LINE"
);
},
{
closed = 1;
nodes = (
"230 0 LINE",
"130 100 LINE",
"130 0 LINE"
);
},
{
closed = 1;
nodes = (
"445 0 LINE",
"530 0 LINE",
"530 301 LINE",
"445 219 LINE"
);
},
{
closed = 1;
nodes = (
"587 0 LINE",
"487 100 LINE",
"487 0 LINE"
);
},
{
closed = 1;
nodes = (
"530 301 LINE",
"525 315 OFFCURVE",
"520 326 OFFCURVE",
"514 336 CURVE SMOOTH",
"451 445 OFFCURVE",
"304 472 OFFCURVE",
"171 399 CURVE SMOOTH",
"160 393 OFFCURVE",
"142 380 OFFCURVE",
"128 368 CURVE",
"245 411 OFFCURVE",
"372 374 OFFCURVE",
"423 284 CURVE SMOOTH",
"434 264 OFFCURVE",
"442 242 OFFCURVE",
"445 219 CURVE"
);
}
);
width = 555;
},
{
background = {
paths = (
{
closed = 1;
nodes = (
"466 62 CURVE",
"345 18 OFFCURVE",
"208 65 OFFCURVE",
"146 173 CURVE SMOOTH",
"89 272 OFFCURVE",
"121 409 OFFCURVE",
"219 491 CURVE",
"202 485 OFFCURVE",
"181 475 OFFCURVE",
"171 469 CURVE SMOOTH",
"36 388 OFFCURVE",
"-13 239 OFFCURVE",
"55 121 CURVE SMOOTH",
"129 -7 OFFCURVE",
"287 -45 OFFCURVE",
"423 31 CURVE SMOOTH",
"434 37 OFFCURVE",
"452 50 OFFCURVE"
);
}
);
};
layerId = "EA4A3C90-BC2A-43B1-AFC3-03A46CC68B95";
paths = (
{
closed = 1;
nodes = (
"88 0 LINE",
"173 0 LINE",
"173 450 LINE",
"88 450 LINE"
);
},
{
closed = 1;
nodes = (
"130 350 LINE",
"130 450 LINE",
"30 450 LINE"
);
},
{
closed = 1;
nodes = (
"230 0 LINE",
"130 100 LINE",
"130 0 LINE"
);
},
{
closed = 1;
nodes = (
"470 167 LINE",
"470 354 OFFCURVE",
"423 441 OFFCURVE",
"321 441 CURVE SMOOTH",
"247 441 OFFCURVE",
"186 418 OFFCURVE",
"128 368 CURVE",
"162 380 OFFCURVE",
"194 386 OFFCURVE",
"228 386 CURVE SMOOTH",
"335 386 OFFCURVE",
"385 317 OFFCURVE",
"385 167 CURVE"
);
},
{
closed = 1;
nodes = (
"385 0 LINE",
"470 0 LINE",
"470 167 LINE",
"385 167 LINE"
);
},
{
closed = 1;
nodes = (
"527 0 LINE",
"427 100 LINE",
"427 0 LINE"
);
}
);
width = 557;
},
{
layerId = "71685E8E-84B4-4751-A208-735D4797FBD3";
width = 600;
},
{
layerId = "AEDC8121-3E5B-40FA-BC83-3F7147C1C4F3";
width = 600;
}
);
unicode = 006E;
},
{
glyphname = o;
lastChange = "2017-08-29 20:43:58 +0000";
layers = (
{
guideLines = (
{
angle = -60.0491;
position = "{35, 197}";
},
{
angle = 209.9509;
position = "{59, 155}";
},
{
angle = -60.0491;
position = "{415, 361}";
},
{
angle = -60.0491;
position = "{384, 343}";
},
{
angle = -60.0491;
position = "{91, 173}";
},
{
angle = -59.9071;
position = "{261, 217}";
},
{
angle = 29.9536;
position = "{261, 217}";
}
);
layerId = "EA4A3C90-BC2A-43B1-AFC3-03A46CC68B95";
paths = (
{
closed = 1;
nodes = (
"378 37 OFFCURVE",
"397 50 OFFCURVE",
"412 63 CURVE",
"309 26 OFFCURVE",
"193 63 OFFCURVE",
"143 149 CURVE SMOOTH",
"93 236 OFFCURVE",
"118 354 OFFCURVE",
"202 423 CURVE",
"183 416 OFFCURVE",
"162 407 OFFCURVE",
"153 402 CURVE SMOOTH",
"35 333 OFFCURVE",
"-8 202 OFFCURVE",
"52 97 CURVE SMOOTH",
"112 -8 OFFCURVE",
"248 -36 OFFCURVE",
"368 31 CURVE SMOOTH"
);
},
{
closed = 1;
nodes = (
"338 17 OFFCURVE",
"359 26 OFFCURVE",
"368 31 CURVE SMOOTH",
"486 101 OFFCURVE",
"530 233 OFFCURVE",
"470 337 CURVE SMOOTH",
"410 440 OFFCURVE",
"274 468 OFFCURVE",
"153 402 CURVE SMOOTH",
"146 398 OFFCURVE",
"128 384 OFFCURVE",
"111 370 CURVE",
"215 408 OFFCURVE",
"330 371 OFFCURVE",
"379 285 CURVE SMOOTH",
"429 198 OFFCURVE",
"403 80 OFFCURVE",
"319 10 CURVE"
);
}
);
width = 522;
},
{
associatedMasterId = "EA4A3C90-BC2A-43B1-AFC3-03A46CC68B95";
guideLines = (
{
angle = 209.9509;
position = "{268, 300}";
},
{
angle = -60.0491;
position = "{268, 300}";
},
{
angle = -60.0491;
position = "{90, 197}";
},
{
angle = 209.9509;
position = "{114, 155}";
},
{
angle = -60.0491;
position = "{470, 361}";
}
);
layerId = "B6B2DF03-4D7E-4DC3-A24A-C91AD452B46A";
name = "Aug 24 17, 13:13";
paths = (
{
closed = 1;
nodes = (
"466 62 CURVE",
"345 18 OFFCURVE",
"208 65 OFFCURVE",
"146 173 CURVE SMOOTH",
"89 272 OFFCURVE",
"121 409 OFFCURVE",
"219 491 CURVE",
"202 485 OFFCURVE",
"181 475 OFFCURVE",
"171 469 CURVE SMOOTH",
"36 388 OFFCURVE",
"-13 239 OFFCURVE",
"55 121 CURVE SMOOTH",
"129 -7 OFFCURVE",
"287 -45 OFFCURVE",
"423 31 CURVE SMOOTH",
"434 37 OFFCURVE",
"452 50 OFFCURVE"
);
},
{
closed = 1;
nodes = (
"413 25 OFFCURVE",
"423 31 CURVE SMOOTH",
"558 112 OFFCURVE",
"604 268 OFFCURVE",
"530 395 CURVE SMOOTH",
"461 514 OFFCURVE",
"307 545 OFFCURVE",
"171 469 CURVE SMOOTH",
"160 463 OFFCURVE",
"142 450 OFFCURVE",
"128 438 CURVE",
"249 482 OFFCURVE",
"383 442 OFFCURVE",
"439 343 CURVE SMOOTH",
"501 235 OFFCURVE",
"473 91 OFFCURVE",
"375 9 CURVE",
"392 15 OFFCURVE"
);
}
);
width = 590;
},
{
layerId = "AEDC8121-3E5B-40FA-BC83-3F7147C1C4F3";
width = 600;
},
{
layerId = "71685E8E-84B4-4751-A208-735D4797FBD3";
width = 600;
},
{
associatedMasterId = "EA4A3C90-BC2A-43B1-AFC3-03A46CC68B95";
guideLines = (
{
angle = 209.9509;
position = "{227, 300}";
},
{
angle = -60.0491;
position = "{227, 300}";
},
{
angle = -60.0491;
position = "{49, 197}";
},
{
angle = 209.9509;
position = "{73, 155}";
},
{
angle = -60.0491;
position = "{429, 361}";
},
{
angle = 29.9182;
position = "{270, 227}";
},
{
angle = -60.0491;
position = "{398, 343}";
},
{
angle = -60.0491;
position = "{105, 173}";
}
);
layerId = "0299A53B-3894-4BBC-B829-96C904AB0559";
name = "Aug 24 17, 13:52";
paths = (
{
closed = 1;
nodes = (
"425 62 CURVE",
"317 23 OFFCURVE",
"197 62 OFFCURVE",
"144 154 CURVE SMOOTH",
"91 246 OFFCURVE",
"117 371 OFFCURVE",
"205 444 CURVE",
"189 438 OFFCURVE",
"169 429 OFFCURVE",
"157 422 CURVE SMOOTH",
"35 349 OFFCURVE",
"-10 211 OFFCURVE",
"53 102 CURVE SMOOTH",
"116 -8 OFFCURVE",
"258 -38 OFFCURVE",
"382 31 CURVE SMOOTH",
"393 37 OFFCURVE",
"411 50 OFFCURVE"
);
},
{
closed = 1;
nodes = (
"370 24 OFFCURVE",
"382 31 CURVE SMOOTH",
"513 109 OFFCURVE",
"563 250 OFFCURVE",
"500 359 CURVE SMOOTH",
"437 468 OFFCURVE",
"290 495 OFFCURVE",
"157 422 CURVE SMOOTH",
"146 416 OFFCURVE",
"128 403 OFFCURVE",
"114 391 CURVE",
"231 434 OFFCURVE",
"358 397 OFFCURVE",
"409 307 CURVE SMOOTH",
"461 216 OFFCURVE",
"429 88 OFFCURVE",
"334 9 CURVE",
"350 15 OFFCURVE"
);
}
);
width = 552;
}
);
leftMetricsKey = O;
rightMetricsKey = O;
unicode = 006F;
},
{
glyphname = p;
lastChange = "2017-08-29 19:27:27 +0000";
layers = (
{
components = (
{
name = l;
transform = "{-1, 0, 0, -1, 260, 450}";
}
);
layerId = "EA4A3C90-BC2A-43B1-AFC3-03A46CC68B95";
paths = (
{
closed = 1;
nodes = (
"205 401 OFFCURVE",
"186 387 OFFCURVE",
"172 375 CURVE",
"269 410 OFFCURVE",
"381 372 OFFCURVE",
"431 286 CURVE SMOOTH",
"483 196 OFFCURVE",
"461 80 OFFCURVE",
"382 15 CURVE",
"398 21 OFFCURVE",
"420 30 OFFCURVE",
"431 36 CURVE SMOOTH",
"546 99 OFFCURVE",
"583 232 OFFCURVE",
"522 338 CURVE SMOOTH",
"463 441 OFFCURVE",
"332 470 OFFCURVE",
"216 407 CURVE SMOOTH"
);
},
{
closed = 1;
nodes = (
"172 450 LINE",
"87 450 LINE",
"87 0 LINE",
"172 0 LINE"
);
},
{
closed = 1;
nodes = (
"30 450 LINE",
"130 350 LINE",
"130 450 LINE"
);
},
{
closed = 1;
nodes = (
"120 74 LINE",
"187 -10 OFFCURVE",
"315 -27 OFFCURVE",
"431 36 CURVE SMOOTH",
"442 42 OFFCURVE",
"459 56 OFFCURVE",
"473 68 CURVE",
"364 28 OFFCURVE",
"245 62 OFFCURVE",
"195 150 CURVE SMOOTH",
"146 236 OFFCURVE",
"177 355 OFFCURVE",
"265 428 CURVE",
"249 422 OFFCURVE",
"227 413 OFFCURVE",
"216 407 CURVE SMOOTH",
"175 385 OFFCURVE",
"143 353 OFFCURVE",
"120 319 CURVE"
);
}
);
width = 576;
},
{
layerId = "AEDC8121-3E5B-40FA-BC83-3F7147C1C4F3";
width = 600;
},
{
layerId = "71685E8E-84B4-4751-A208-735D4797FBD3";
width = 600;
}
);
leftMetricsKey = n;
rightMetricsKey = o;
unicode = 0070;
},
{
glyphname = q;
lastChange = "2017-08-29 20:43:58 +0000";
layers = (
{
layerId = "EA4A3C90-BC2A-43B1-AFC3-03A46CC68B95";
paths = (
{
closed = 1;
nodes = (
"491 450 LINE",
"406 450 LINE",
"406 -150 LINE",
"491 -150 LINE"
);
},
{
closed = 1;
nodes = (
"449 -50 LINE",
"449 -150 LINE",
"549 -150 LINE"
);
},
{
closed = 1;
nodes = (
"449 350 LINE",
"549 450 LINE",
"449 450 LINE"
);
},
{
closed = 1;
nodes = (
"453 361 LINE",
"389 445 OFFCURVE",
"270 465 OFFCURVE",
"163 407 CURVE SMOOTH",
"152 401 OFFCURVE",
"133 387 OFFCURVE",
"119 375 CURVE",
"216 410 OFFCURVE",
"328 372 OFFCURVE",
"378 286 CURVE SMOOTH",
"430 196 OFFCURVE",
"408 80 OFFCURVE",
"329 15 CURVE",
"345 21 OFFCURVE",
"367 30 OFFCURVE",
"378 36 CURVE SMOOTH",
"409 53 OFFCURVE",
"434 75 OFFCURVE",
"453 100 CURVE"
);
},
{
closed = 1;
nodes = (
"196 422 OFFCURVE",
"174 413 OFFCURVE",
"163 407 CURVE SMOOTH",
"37 338 OFFCURVE",
"-8 201 OFFCURVE",
"51 98 CURVE SMOOTH",
"111 -6 OFFCURVE",
"252 -33 OFFCURVE",
"378 36 CURVE SMOOTH",
"389 42 OFFCURVE",
"406 56 OFFCURVE",
"420 68 CURVE",
"311 28 OFFCURVE",
"192 62 OFFCURVE",
"142 150 CURVE SMOOTH",
"93 236 OFFCURVE",
"124 355 OFFCURVE",
"212 428 CURVE"
);
}
);
width = 574;
},
{
layerId = "AEDC8121-3E5B-40FA-BC83-3F7147C1C4F3";
width = 600;
},
{
layerId = "71685E8E-84B4-4751-A208-735D4797FBD3";
width = 600;
}
);
leftMetricsKey = o;
rightMetricsKey = b;
unicode = 0071;
},
{
glyphname = r;
lastChange = "2017-08-29 19:31:06 +0000";
layers = (
{
background = {
paths = (
{
closed = 1;
nodes = (
"385 0 LINE",
"470 0 LINE",
"470 167 LINE",
"385 167 LINE"
);
},
{
closed = 1;
nodes = (
"527 0 LINE",
"427 100 LINE",
"427 0 LINE"
);
},
{
closed = 1;
nodes = (
"469 337 LINE",
"409 440 OFFCURVE",
"273 468 OFFCURVE",
"152 402 CURVE SMOOTH",
"145 398 OFFCURVE",
"127 384 OFFCURVE",
"110 370 CURVE",
"214 408 OFFCURVE",
"329 371 OFFCURVE",
"378 285 CURVE"
);
},
{
closed = 1;
nodes = (
"371 281 LINE",
"380 250 OFFCURVE",
"385 212 OFFCURVE",
"385 167 CURVE",
"470 167 LINE",
"470 233 OFFCURVE",
"464 286 OFFCURVE",
"452 328 CURVE"
);
}
);
};
guideLines = (
{
angle = 29.9536;
position = "{260, 217}";
}
);
layerId = "EA4A3C90-BC2A-43B1-AFC3-03A46CC68B95";
paths = (
{
closed = 1;
nodes = (
"88 0 LINE",
"173 0 LINE",
"173 450 LINE",
"88 450 LINE"
);
},
{
closed = 1;
nodes = (
"130 350 LINE",
"130 450 LINE",
"30 450 LINE"
);
},
{
closed = 1;
nodes = (
"230 0 LINE",
"130 100 LINE",
"130 0 LINE"
);
},
{
closed = 1;
nodes = (
"452 328 LINE",
"430 404 OFFCURVE",
"387 441 OFFCURVE",
"321 441 CURVE SMOOTH",
"247 441 OFFCURVE",
"186 418 OFFCURVE",
"128 368 CURVE",
"162 380 OFFCURVE",
"194 386 OFFCURVE",
"228 386 CURVE SMOOTH",
"303 386 OFFCURVE",
"350 352 OFFCURVE",
"371 281 CURVE"
);
}
);
width = 477;
},
{
layerId = "AEDC8121-3E5B-40FA-BC83-3F7147C1C4F3";
width = 600;
},
{
layerId = "71685E8E-84B4-4751-A208-735D4797FBD3";
width = 600;
}
);
leftMetricsKey = n;
rightMetricsKey = o;
unicode = 0072;
},
{
glyphname = s;
lastChange = "2017-08-30 14:29:34 +0000";
layers = (
{
background = {
components = (
{
name = o;
transform = "{1, 0, 0, 1, -30, 0}";
}
);
paths = (
{
closed = 1;
nodes = (
"173 194 LINE",
"255 172 LINE",
"277 255 LINE",
"195 277 LINE"
);
},
{
closed = 1;
nodes = (
"168 203 LINE",
"245 168 LINE",
"282 246 LINE",
"205 281 LINE"
);
}
);
};
guideLines = (
{
angle = -15.0685;
position = "{148, 174}";
},
{
angle = -15.0685;
position = "{292, 273}";
}
);
layerId = "EA4A3C90-BC2A-43B1-AFC3-03A46CC68B95";
paths = (
{
closed = 1;
nodes = (
"425 357 LINE",
"365 460 OFFCURVE",
"228 490 OFFCURVE",
"108 422 CURVE SMOOTH",
"101 418 OFFCURVE",
"83 404 OFFCURVE",
"66 390 CURVE",
"170 428 OFFCURVE",
"285 391 OFFCURVE",
"334 305 CURVE"
);
},
{
closed = 1;
nodes = (
"25 93 LINE",
"85 -10 OFFCURVE",
"222 -40 OFFCURVE",
"342 28 CURVE SMOOTH",
"349 32 OFFCURVE",
"367 46 OFFCURVE",
"384 60 CURVE",
"280 22 OFFCURVE",
"165 59 OFFCURVE",
"116 145 CURVE"
);
},
{
closed = 1;
nodes = (
"0 362 OFFCURVE",
"25 267 OFFCURVE",
"168 203 CURVE SMOOTH",
"302 142 OFFCURVE",
"355 58 OFFCURVE",
"293 7 CURVE",
"311 13 OFFCURVE",
"332 22 OFFCURVE",
"342 28 CURVE SMOOTH",
"450 87 OFFCURVE",
"425 181 OFFCURVE",
"282 246 CURVE SMOOTH",
"148 307 OFFCURVE",
"94 392 OFFCURVE",
"157 443 CURVE",
"139 437 OFFCURVE",
"118 428 OFFCURVE",
"108 422 CURVE SMOOTH"
);
}
);
width = 450;
},
{
layerId = "AEDC8121-3E5B-40FA-BC83-3F7147C1C4F3";
width = 600;
},
{
layerId = "71685E8E-84B4-4751-A208-735D4797FBD3";
width = 600;
},
{
associatedMasterId = "EA4A3C90-BC2A-43B1-AFC3-03A46CC68B95";
background = {
components = (
{
name = o;
transform = "{1, 0, 0, 1, -25, 0}";
}
);
paths = (
{
closed = 1;
nodes = (
"178 194 LINE",
"260 172 LINE",
"282 255 LINE",
"200 277 LINE"
);
}
);
};
guideLines = (
{
angle = -15.0685;
position = "{178, 194}";
},
{
angle = -15.0685;
position = "{282, 255}";
}
);
layerId = "8D967983-9D1F-4707-8C44-E8DAC5C3EC9C";
name = "Aug 30 17, 10:26";
paths = (
{
closed = 1;
nodes = (
"430 357 LINE",
"370 460 OFFCURVE",
"233 490 OFFCURVE",
"113 422 CURVE SMOOTH",
"106 418 OFFCURVE",
"88 404 OFFCURVE",
"71 390 CURVE",
"175 428 OFFCURVE",
"290 391 OFFCURVE",
"339 305 CURVE"
);
},
{
closed = 1;
nodes = (
"30 93 LINE",
"90 -10 OFFCURVE",
"227 -40 OFFCURVE",
"347 28 CURVE SMOOTH",
"354 32 OFFCURVE",
"372 46 OFFCURVE",
"389 60 CURVE",
"285 22 OFFCURVE",
"170 59 OFFCURVE",
"121 145 CURVE"
);
},
{
closed = 1;
nodes = (
"-33 341 OFFCURVE",
"-5 243 OFFCURVE",
"178 194 CURVE SMOOTH",
"327 154 OFFCURVE",
"379 73 OFFCURVE",
"298 7 CURVE",
"316 13 OFFCURVE",
"337 22 OFFCURVE",
"347 28 CURVE SMOOTH",
"492 108 OFFCURVE",
"464 206 OFFCURVE",
"282 255 CURVE SMOOTH",
"133 296 OFFCURVE",
"81 377 OFFCURVE",
"162 443 CURVE",
"144 437 OFFCURVE",
"123 428 OFFCURVE",
"113 422 CURVE SMOOTH"
);
}
);
width = 460;
},
{
associatedMasterId = "EA4A3C90-BC2A-43B1-AFC3-03A46CC68B95";
background = {
components = (
{
name = o;
transform = "{1, 0, 0, 1, -35, 0}";
}
);
paths = (
{
closed = 1;
nodes = (
"168 194 LINE",
"250 172 LINE",
"272 255 LINE",
"190 277 LINE"
);
}
);
};
guideLines = (
{
angle = -15.0685;
position = "{143, 174}";
},
{
angle = -15.0685;
position = "{287, 273}";
}
);
layerId = "36F43C68-A17F-4227-886C-6F505C7189B3";
name = "Aug 30 17, 10:27";
paths = (
{
closed = 1;
nodes = (
"420 357 LINE",
"360 460 OFFCURVE",
"223 490 OFFCURVE",
"103 422 CURVE SMOOTH",
"96 418 OFFCURVE",
"78 404 OFFCURVE",
"61 390 CURVE",
"165 428 OFFCURVE",
"280 391 OFFCURVE",
"329 305 CURVE"
);
},
{
closed = 1;
nodes = (
"20 93 LINE",
"80 -10 OFFCURVE",
"217 -40 OFFCURVE",
"337 28 CURVE SMOOTH",
"344 32 OFFCURVE",
"362 46 OFFCURVE",
"379 60 CURVE",
"275 22 OFFCURVE",
"160 59 OFFCURVE",
"111 145 CURVE"
);
},
{
closed = 1;
nodes = (
"-21 353 OFFCURVE",
"6 258 OFFCURVE",
"166 199 CURVE SMOOTH",
"307 147 OFFCURVE",
"359 65 OFFCURVE",
"288 7 CURVE",
"306 13 OFFCURVE",
"327 22 OFFCURVE",
"337 28 CURVE SMOOTH",
"461 96 OFFCURVE",
"434 192 OFFCURVE",
"274 250 CURVE SMOOTH",
"133 302 OFFCURVE",
"81 385 OFFCURVE",
"152 443 CURVE",
"134 437 OFFCURVE",
"113 428 OFFCURVE",
"103 422 CURVE SMOOTH"
);
},
{
closed = 1;
nodes = (
"166 199 LINE",
"245 170 LINE",
"274 250 LINE",
"195 279 LINE"
);
}
);
width = 440;
}
);
leftMetricsKey = o;
rightMetricsKey = o;
unicode = 0073;
},
{
glyphname = germandbls;
lastChange = "2017-08-30 14:43:44 +0000";
layers = (
{
background = {
paths = (
{
closed = 1;
nodes = (
"640 357 LINE",
"580 460 OFFCURVE",
"443 490 OFFCURVE",
"323 422 CURVE SMOOTH",
"316 418 OFFCURVE",
"298 404 OFFCURVE",
"281 390 CURVE",
"385 428 OFFCURVE",
"500 391 OFFCURVE",
"549 305 CURVE"
);
},
{
closed = 1;
nodes = (
"326 227 OFFCURVE",
"347 218 OFFCURVE",
"365 212 CURVE",
"302 263 OFFCURVE",
"356 348 OFFCURVE",
"490 409 CURVE SMOOTH",
"633 474 OFFCURVE",
"656 564 OFFCURVE",
"550 627 CURVE SMOOTH",
"540 633 OFFCURVE",
"519 642 OFFCURVE",
"501 648 CURVE",
"563 597 OFFCURVE",
"510 512 OFFCURVE",
"376 452 CURVE SMOOTH",
"233 388 OFFCURVE",
"210 297 OFFCURVE",
"316 233 CURVE SMOOTH"
);
}
);
};
layerId = "EA4A3C90-BC2A-43B1-AFC3-03A46CC68B95";
paths = (
{
closed = 1;
nodes = (
"192 61 LINE",
"192 500 LINE",
"107 500 LINE",
"107 61 LINE"
);
},
{
closed = 1;
nodes = (
"32 390 LINE",
"146 390 LINE",
"166 450 LINE",
"52 450 LINE"
);
},
{
closed = 1;
nodes = (
"192 61 LINE",
"107 61 LINE",
"192 -10 LINE"
);
},
{
closed = 1;
nodes = (
"192 500 LINE",
"192 565 OFFCURVE",
"225 630 OFFCURVE",
"280 675 CURVE",
"189 642 OFFCURVE",
"107 576 OFFCURVE",
"107 500 CURVE"
);
},
{
closed = 1;
nodes = (
"519 610 LINE",
"492 656 OFFCURVE",
"424 691 OFFCURVE",
"362 691 CURVE SMOOTH",
"307 691 OFFCURVE",
"228 661 OFFCURVE",
"182 622 CURVE",
"205 631 OFFCURVE",
"245 638 OFFCURVE",
"270 638 CURVE SMOOTH",
"334 638 OFFCURVE",
"402 604 OFFCURVE",
"428 558 CURVE"
);
},
{
closed = 1;
nodes = (
"192 450 LINE",
"107 450 LINE",
"107 -34 LINE",
"192 15 LINE"
);
},
{
closed = 1;
nodes = (
"132 -163 OFFCURVE",
"192 -94 OFFCURVE",
"192 15 CURVE",
"107 -34 LINE",
"107 -96 OFFCURVE",
"80 -158 OFFCURVE",
"30 -200 CURVE"
);
},
{
closed = 1;
nodes = (
"233 85 LINE",
"293 -18 OFFCURVE",
"430 -48 OFFCURVE",
"550 20 CURVE SMOOTH",
"557 24 OFFCURVE",
"575 38 OFFCURVE",
"592 52 CURVE",
"488 14 OFFCURVE",
"373 51 OFFCURVE",
"324 137 CURVE"
);
},
{
closed = 1;
nodes = (
"213 268 OFFCURVE",
"376 195 CURVE SMOOTH",
"510 135 OFFCURVE",
"563 50 OFFCURVE",
"501 -1 CURVE",
"519 5 OFFCURVE",
"540 14 OFFCURVE",
"550 20 CURVE SMOOTH",
"656 83 OFFCURVE",
"633 173 OFFCURVE",
"490 238 CURVE SMOOTH",
"356 299 OFFCURVE",
"302 384 OFFCURVE",
"365 438 CURVE",
"208 383 OFFCURVE"
);
},
{
closed = 1;
nodes = (
"428 558 LINE",
"465 475 OFFCURVE",
"340 437 OFFCURVE",
"274 382 CURVE",
"525 474 OFFCURVE",
"566 526 OFFCURVE",
"519 610 CURVE"
);
}
);
width = 641;
},
{
layerId = "AEDC8121-3E5B-40FA-BC83-3F7147C1C4F3";
width = 600;
},
{
layerId = "71685E8E-84B4-4751-A208-735D4797FBD3";
width = 600;
}
);
leftMetricsKey = f;
rightMetricsKey = s;
unicode = 00DF;
},
{
glyphname = longs;
lastChange = "2017-08-30 14:33:38 +0000";
layers = (
{
layerId = "EA4A3C90-BC2A-43B1-AFC3-03A46CC68B95";
paths = (
{
closed = 1;
nodes = (
"190 61 LINE",
"190 500 LINE",
"105 500 LINE",
"105 61 LINE"
);
},
{
closed = 1;
nodes = (
"30 390 LINE",
"144 390 LINE",
"164 450 LINE",
"50 450 LINE"
);
},
{
closed = 1;
nodes = (
"190 61 LINE",
"105 61 LINE",
"190 -10 LINE"
);
},
{
closed = 1;
nodes = (
"190 500 LINE",
"190 565 OFFCURVE",
"220 631 OFFCURVE",
"275 676 CURVE",
"256 669 OFFCURVE",
"235 660 OFFCURVE",
"226 655 CURVE SMOOTH",
"161 619 OFFCURVE",
"105 563 OFFCURVE",
"105 500 CURVE"
);
},
{
closed = 1;
nodes = (
"543 590 LINE",
"505 655 OFFCURVE",
"436 691 OFFCURVE",
"360 691 CURVE SMOOTH",
"316 691 OFFCURVE",
"270 680 OFFCURVE",
"226 655 CURVE SMOOTH",
"219 651 OFFCURVE",
"201 637 OFFCURVE",
"184 623 CURVE",
"212 633 OFFCURVE",
"240 638 OFFCURVE",
"268 638 CURVE SMOOTH",
"344 638 OFFCURVE",
"416 601 OFFCURVE",
"452 538 CURVE"
);
},
{
closed = 1;
nodes = (
"190 450 LINE",
"105 450 LINE",
"105 -34 LINE",
"190 15 LINE"
);
},
{
closed = 1;
nodes = (
"130 -163 OFFCURVE",
"190 -94 OFFCURVE",
"190 15 CURVE",
"105 -34 LINE",
"105 -96 OFFCURVE",
"78 -158 OFFCURVE",
"28 -200 CURVE"
);
}
);
width = 323;
},
{
layerId = "AEDC8121-3E5B-40FA-BC83-3F7147C1C4F3";
width = 600;
},
{
layerId = "71685E8E-84B4-4751-A208-735D4797FBD3";
width = 600;
},
{
associatedMasterId = "EA4A3C90-BC2A-43B1-AFC3-03A46CC68B95";
layerId = "26D57B95-B466-47C3-96B0-A1CE9B2E419F";
name = "Aug 30 17, 10:33";
paths = (
{
closed = 1;
nodes = (
"190 61 LINE",
"190 500 LINE",
"105 500 LINE",
"105 61 LINE"
);
},
{
closed = 1;
nodes = (
"30 390 LINE",
"144 390 LINE",
"164 450 LINE",
"50 450 LINE"
);
},
{
closed = 1;
nodes = (
"190 61 LINE",
"105 61 LINE",
"190 -10 LINE"
);
},
{
closed = 1;
nodes = (
"190 500 LINE",
"190 565 OFFCURVE",
"220 631 OFFCURVE",
"275 676 CURVE",
"256 669 OFFCURVE",
"235 660 OFFCURVE",
"226 655 CURVE SMOOTH",
"161 619 OFFCURVE",
"105 563 OFFCURVE",
"105 500 CURVE"
);
},
{
closed = 1;
nodes = (
"543 590 LINE",
"505 655 OFFCURVE",
"436 691 OFFCURVE",
"360 691 CURVE SMOOTH",
"316 691 OFFCURVE",
"270 680 OFFCURVE",
"226 655 CURVE SMOOTH",
"219 651 OFFCURVE",
"201 637 OFFCURVE",
"184 623 CURVE",
"212 633 OFFCURVE",
"240 638 OFFCURVE",
"268 638 CURVE SMOOTH",
"344 638 OFFCURVE",
"416 601 OFFCURVE",
"452 538 CURVE"
);
}
);
width = 323;
}
);
leftMetricsKey = "=f-2";
rightMetricsKey = f;
unicode = 017F;
},
{
glyphname = t;
lastChange = "2017-08-29 20:43:48 +0000";
layers = (
{
layerId = "AEDC8121-3E5B-40FA-BC83-3F7147C1C4F3";
width = 600;
},
{
layerId = "71685E8E-84B4-4751-A208-735D4797FBD3";
width = 600;
},
{
associatedMasterId = "EA4A3C90-BC2A-43B1-AFC3-03A46CC68B95";
layerId = "2E2BDBCF-391D-4263-A0C2-279A8BAB8373";
name = "Aug 29 17, 16:07";
paths = (
{
closed = 1;
nodes = (
"129 0 LINE",
"214 0 LINE",
"214 416 LINE",
"129 416 LINE"
);
},
{
closed = 1;
nodes = (
"214 416 LINE",
"214 600 LINE",
"30 416 LINE"
);
},
{
closed = 1;
nodes = (
"271 0 LINE",
"171 100 LINE",
"171 0 LINE"
);
},
{
closed = 1;
nodes = (
"384 416 LINE",
"299 501 LINE",
"299 416 LINE"
);
},
{
closed = 1;
nodes = (
"214 416 LINE",
"299 416 LINE",
"299 501 LINE",
"214 501 LINE"
);
}
);
width = 414;
},
{
associatedMasterId = "EA4A3C90-BC2A-43B1-AFC3-03A46CC68B95";
background = {
paths = (
{
closed = 1;
nodes = (
"200 416 LINE",
"200 600 LINE",
"16 416 LINE"
);
},
{
closed = 1;
nodes = (
"370 416 LINE",
"285 501 LINE",
"285 416 LINE"
);
},
{
closed = 1;
nodes = (
"200 586 LINE",
"115 501 LINE",
"200 501 LINE"
);
}
);
};
layerId = "DCBE842F-21A2-4AFB-880A-ACAB9CD3DBB5";
name = "Aug 29 17, 16:10";
paths = (
{
closed = 1;
nodes = (
"115 0 LINE",
"200 0 LINE",
"200 416 LINE",
"115 416 LINE"
);
},
{
closed = 1;
nodes = (
"257 0 LINE",
"157 100 LINE",
"157 0 LINE"
);
},
{
closed = 1;
nodes = (
"200 416 LINE",
"285 416 LINE",
"285 501 LINE",
"200 501 LINE"
);
},
{
closed = 1;
nodes = (
"115 501 LINE",
"30 416 LINE",
"115 416 LINE"
);
},
{
closed = 1;
nodes = (
"115 416 LINE",
"200 416 LINE",
"200 501 LINE",
"115 501 LINE"
);
},
{
closed = 1;
nodes = (
"115 501 LINE",
"200 501 LINE",
"200 586 LINE"
);
}
);
width = 315;
},
{
associatedMasterId = "EA4A3C90-BC2A-43B1-AFC3-03A46CC68B95";
background = {
paths = (
{
closed = 1;
nodes = (
"200 416 LINE",
"200 600 LINE",
"16 416 LINE"
);
},
{
closed = 1;
nodes = (
"370 416 LINE",
"285 501 LINE",
"285 416 LINE"
);
},
{
closed = 1;
nodes = (
"200 586 LINE",
"115 501 LINE",
"200 501 LINE"
);
},
{
closed = 1;
nodes = (
"257 0 LINE",
"157 100 LINE",
"157 0 LINE"
);
}
);
};
layerId = "EBF3B72C-2350-41F3-9753-BDFF4E5A770B";
name = "Aug 29 17, 16:10";
paths = (
{
closed = 1;
nodes = (
"115 215 LINE",
"200 166 LINE",
"200 416 LINE",
"115 416 LINE"
);
},
{
closed = 1;
nodes = (
"200 416 LINE",
"285 416 LINE",
"285 501 LINE",
"200 501 LINE"
);
},
{
closed = 1;
nodes = (
"115 501 LINE",
"30 416 LINE",
"115 416 LINE"
);
},
{
closed = 1;
nodes = (
"115 416 LINE",
"200 416 LINE",
"200 501 LINE",
"115 501 LINE"
);
},
{
closed = 1;
nodes = (
"115 501 LINE",
"200 501 LINE",
"200 586 LINE"
);
},
{
closed = 1;
nodes = (
"227 42 OFFCURVE",
"200 104 OFFCURVE",
"200 166 CURVE",
"115 215 LINE",
"115 106 OFFCURVE",
"175 37 OFFCURVE",
"277 0 CURVE"
);
}
);
width = 315;
},
{
associatedMasterId = "EA4A3C90-BC2A-43B1-AFC3-03A46CC68B95";
background = {
paths = (
{
closed = 1;
nodes = (
"180 416 LINE",
"180 600 LINE",
"-4 416 LINE"
);
},
{
closed = 1;
nodes = (
"350 416 LINE",
"265 501 LINE",
"265 416 LINE"
);
},
{
closed = 1;
nodes = (
"180 586 LINE",
"95 501 LINE",
"180 501 LINE"
);
},
{
closed = 1;
nodes = (
"237 0 LINE",
"137 100 LINE",
"137 0 LINE"
);
}
);
};
guideLines = (
{
angle = 45;
position = "{180, 620}";
}
);
layerId = "9FD3E864-F0E7-4855-ADA0-DFCE609D3399";
name = "Aug 29 17, 16:28";
paths = (
{
closed = 1;
nodes = (
"95 75 LINE",
"180 -10 LINE",
"180 535 LINE",
"95 535 LINE"
);
},
{
closed = 1;
nodes = (
"30 385 LINE",
"265 385 LINE",
"265 450 LINE",
"30 450 LINE"
);
},
{
closed = 1;
nodes = (
"95 535 LINE",
"180 535 LINE",
"180 620 LINE"
);
}
);
width = 295;
},
{
associatedMasterId = "EA4A3C90-BC2A-43B1-AFC3-03A46CC68B95";
background = {
paths = (
{
closed = 1;
nodes = (
"180 416 LINE",
"180 600 LINE",
"-4 416 LINE"
);
},
{
closed = 1;
nodes = (
"350 416 LINE",
"265 501 LINE",
"265 416 LINE"
);
},
{
closed = 1;
nodes = (
"180 586 LINE",
"95 501 LINE",
"180 501 LINE"
);
},
{
closed = 1;
nodes = (
"237 0 LINE",
"137 100 LINE",
"137 0 LINE"
);
}
);
};
guideLines = (
{
angle = 45;
position = "{180, 600}";
}
);
layerId = "E88CBB95-B506-47EC-8309-318BDC7C0300";
name = "Aug 29 17, 16:28";
paths = (
{
closed = 1;
nodes = (
"95 85 LINE",
"180 0 LINE",
"180 515 LINE",
"95 515 LINE"
);
},
{
closed = 1;
nodes = (
"30 380 LINE",
"265 380 LINE",
"265 450 LINE",
"30 450 LINE"
);
},
{
closed = 1;
nodes = (
"95 515 LINE",
"180 515 LINE",
"180 600 LINE"
);
}
);
width = 295;
},
{
associatedMasterId = "EA4A3C90-BC2A-43B1-AFC3-03A46CC68B95";
background = {
paths = (
{
closed = 1;
nodes = (
"173 416 LINE",
"173 600 LINE",
"-11 416 LINE"
);
},
{
closed = 1;
nodes = (
"343 416 LINE",
"258 501 LINE",
"258 416 LINE"
);
},
{
closed = 1;
nodes = (
"173 586 LINE",
"88 501 LINE",
"173 501 LINE"
);
}
);
};
layerId = "519D03D8-7E03-4A29-9AD8-F7883C649E3A";
name = "Aug 29 17, 16:31";
paths = (
{
closed = 1;
nodes = (
"88 0 LINE",
"173 0 LINE",
"173 535 LINE",
"88 535 LINE"
);
},
{
closed = 1;
nodes = (
"230 0 LINE",
"130 100 LINE",
"130 0 LINE"
);
},
{
closed = 1;
nodes = (
"88 535 LINE",
"173 535 LINE",
"173 620 LINE"
);
},
{
closed = 1;
nodes = (
"130 350 LINE",
"230 450 LINE",
"130 450 LINE"
);
},
{
closed = 1;
nodes = (
"30 450 LINE",
"130 350 LINE",
"130 450 LINE"
);
}
);
width = 260;
},
{
associatedMasterId = "EA4A3C90-BC2A-43B1-AFC3-03A46CC68B95";
background = {
paths = (
{
closed = 1;
nodes = (
"170 416 LINE",
"170 600 LINE",
"-14 416 LINE"
);
},
{
closed = 1;
nodes = (
"340 416 LINE",
"255 501 LINE",
"255 416 LINE"
);
},
{
closed = 1;
nodes = (
"170 586 LINE",
"85 501 LINE",
"170 501 LINE"
);
},
{
closed = 1;
nodes = (
"227 0 LINE",
"127 100 LINE",
"127 0 LINE"
);
}
);
};
guideLines = (
{
angle = 45;
position = "{170, 600}";
}
);
layerId = "CCE60E1A-BC64-46C7-AFC7-FAEFFA65F232";
name = "Aug 29 17, 16:38";
paths = (
{
closed = 1;
nodes = (
"85 264 LINE",
"170 264 LINE",
"170 525 LINE",
"85 525 LINE"
);
},
{
closed = 1;
nodes = (
"20 390 LINE",
"255 390 LINE",
"255 450 LINE",
"20 450 LINE"
);
},
{
closed = 1;
nodes = (
"85 525 LINE",
"170 525 LINE",
"170 610 LINE"
);
},
{
closed = 1;
nodes = (
"85 264 LINE",
"85 53 OFFCURVE",
"110 -10 OFFCURVE",
"194 -10 CURVE SMOOTH",
"246 -10 OFFCURVE",
"274 7 OFFCURVE",
"314 60 CURVE",
"275 49 OFFCURVE",
"257 45 OFFCURVE",
"237 45 CURVE SMOOTH",
"175 45 OFFCURVE",
"170 85 OFFCURVE",
"170 264 CURVE"
);
}
);
width = 334;
},
{
associatedMasterId = "EA4A3C90-BC2A-43B1-AFC3-03A46CC68B95";
background = {
paths = (
{
closed = 1;
nodes = (
"180 416 LINE",
"180 600 LINE",
"-4 416 LINE"
);
},
{
closed = 1;
nodes = (
"350 416 LINE",
"265 501 LINE",
"265 416 LINE"
);
},
{
closed = 1;
nodes = (
"180 586 LINE",
"95 501 LINE",
"180 501 LINE"
);
},
{
closed = 1;
nodes = (
"237 0 LINE",
"137 100 LINE",
"137 0 LINE"
);
}
);
};
guideLines = (
{
angle = 45;
position = "{180, 600}";
}
);
layerId = "0123B1F8-C78D-45BF-9D0B-A3D2AB6BAA5C";
name = "Aug 29 17, 16:43";
paths = (
{
closed = 1;
nodes = (
"95 -30 LINE",
"180 55 LINE",
"180 525 LINE",
"95 525 LINE"
);
},
{
closed = 1;
nodes = (
"30 390 LINE",
"265 390 LINE",
"265 450 LINE",
"30 450 LINE"
);
},
{
closed = 1;
nodes = (
"95 525 LINE",
"180 525 LINE",
"180 610 LINE"
);
}
);
width = 295;
},
{
background = {
paths = (
{
closed = 1;
nodes = (
"185 416 LINE",
"185 600 LINE",
"1 416 LINE"
);
},
{
closed = 1;
nodes = (
"355 416 LINE",
"270 501 LINE",
"270 416 LINE"
);
},
{
closed = 1;
nodes = (
"185 586 LINE",
"100 501 LINE",
"185 501 LINE"
);
},
{
closed = 1;
nodes = (
"242 0 LINE",
"142 100 LINE",
"142 0 LINE"
);
},
{
closed = 1;
nodes = (
"100 -10 LINE",
"185 -10 LINE",
"185 75 LINE",
"100 75 LINE"
);
},
{
closed = 1;
nodes = (
"100 75 LINE",
"185 75 LINE",
"185 160 LINE",
"100 160 LINE"
);
}
);
};
guideLines = (
{
angle = 40;
position = "{185, 610}";
}
);
layerId = "EA4A3C90-BC2A-43B1-AFC3-03A46CC68B95";
paths = (
{
closed = 1;
nodes = (
"100 100 LINE",
"185 100 LINE",
"185 539 LINE",
"100 539 LINE"
);
},
{
closed = 1;
nodes = (
"25 390 LINE",
"260 390 LINE",
"280 450 LINE",
"45 450 LINE"
);
},
{
closed = 1;
nodes = (
"100 539 LINE",
"185 539 LINE",
"185 610 LINE"
);
},
{
closed = 1;
nodes = (
"100 100 LINE",
"100 53 OFFCURVE",
"115 -10 OFFCURVE",
"199 -10 CURVE SMOOTH",
"251 -10 OFFCURVE",
"279 12 OFFCURVE",
"319 65 CURVE",
"280 54 OFFCURVE",
"262 50 OFFCURVE",
"242 50 CURVE SMOOTH",
"180 50 OFFCURVE",
"185 85 OFFCURVE",
"185 100 CURVE"
);
}
);
width = 339;
}
);
leftMetricsKey = "=n-5";
rightMetricsKey = "=n-10";
unicode = 0074;
},
{
glyphname = v;
lastChange = "2017-08-30 14:05:38 +0000";
layers = (
{
layerId = "AEDC8121-3E5B-40FA-BC83-3F7147C1C4F3";
width = 600;
},
{
layerId = "71685E8E-84B4-4751-A208-735D4797FBD3";
width = 600;
},
{
associatedMasterId = "EA4A3C90-BC2A-43B1-AFC3-03A46CC68B95";
background = {
paths = (
{
closed = 1;
nodes = (
"427 100 LINE",
"427 0 LINE",
"527 0 LINE"
);
},
{
closed = 1;
nodes = (
"235 -10 LINE",
"321 -10 LINE",
"321 79 LINE",
"235 79 LINE"
);
}
);
};
guideLines = (
{
angle = 90;
position = "{172, 450}";
}
);
layerId = "1A394A85-07D1-4361-922B-C151AE61EC11";
name = "Aug 29 17, 17:29";
paths = (
{
closed = 1;
nodes = (
"469 450 LINE",
"384 450 LINE",
"236 0 LINE",
"321 0 LINE"
);
},
{
closed = 1;
nodes = (
"327 450 LINE",
"427 350 LINE",
"427 450 LINE"
);
},
{
closed = 1;
nodes = (
"172 450 LINE",
"87 450 LINE",
"236 0 LINE",
"321 0 LINE"
);
},
{
closed = 1;
nodes = (
"130 350 LINE",
"230 450 LINE",
"130 450 LINE"
);
}
);
width = 557;
},
{
associatedMasterId = "EA4A3C90-BC2A-43B1-AFC3-03A46CC68B95";
background = {
paths = (
{
closed = 1;
nodes = (
"427 100 LINE",
"427 0 LINE",
"527 0 LINE"
);
},
{
closed = 1;
nodes = (
"235 -10 LINE",
"321 -10 LINE",
"321 79 LINE",
"235 79 LINE"
);
}
);
};
guideLines = (
{
angle = 90;
position = "{172, 450}";
}
);
layerId = "58BA6577-C33A-4586-9382-1710E8F4C9BB";
name = "Aug 29 17, 17:29";
paths = (
{
closed = 1;
nodes = (
"469 450 LINE",
"384 450 LINE",
"236 0 LINE",
"321 0 LINE"
);
},
{
closed = 1;
nodes = (
"327 450 LINE",
"427 350 LINE",
"427 450 LINE"
);
},
{
closed = 1;
nodes = (
"172 450 LINE",
"87 450 LINE",
"236 0 LINE",
"321 0 LINE"
);
},
{
closed = 1;
nodes = (
"130 350 LINE",
"230 450 LINE",
"130 450 LINE"
);
},
{
closed = 1;
nodes = (
"30 450 LINE",
"130 350 LINE",
"130 450 LINE"
);
},
{
closed = 1;
nodes = (
"427 350 LINE",
"527 450 LINE",
"427 450 LINE"
);
}
);
width = 557;
},
{
background = {
paths = (
{
closed = 1;
nodes = (
"427 100 LINE",
"427 0 LINE",
"527 0 LINE"
);
},
{
closed = 1;
nodes = (
"235 -10 LINE",
"321 -10 LINE",
"321 79 LINE",
"235 79 LINE"
);
}
);
};
guideLines = (
{
angle = 90;
position = "{172, 450}";
}
);
layerId = "EA4A3C90-BC2A-43B1-AFC3-03A46CC68B95";
paths = (
{
closed = 1;
nodes = (
"469 450 LINE",
"384 450 LINE",
"236 0 LINE",
"321 0 LINE"
);
},
{
closed = 1;
nodes = (
"327 450 LINE",
"427 350 LINE",
"427 450 LINE"
);
},
{
closed = 1;
nodes = (
"172 450 LINE",
"87 450 LINE",
"236 0 LINE",
"321 0 LINE"
);
},
{
closed = 1;
nodes = (
"30 450 LINE",
"130 350 LINE",
"130 450 LINE"
);
}
);
width = 499;
}
);
leftMetricsKey = n;
rightMetricsKey = n;
unicode = 0076;
},
{
glyphname = x;
lastChange = "2017-08-30 14:05:43 +0000";
layers = (
{
layerId = "EA4A3C90-BC2A-43B1-AFC3-03A46CC68B95";
paths = (
{
closed = 1;
nodes = (
"435 450 LINE",
"350 450 LINE",
"202 225 LINE",
"287 225 LINE"
);
},
{
closed = 1;
nodes = (
"250 450 LINE",
"350 350 LINE",
"350 450 LINE"
);
},
{
closed = 1;
nodes = (
"138 450 LINE",
"53 450 LINE",
"202 225 LINE",
"287 225 LINE"
);
},
{
closed = 1;
nodes = (
"20 450 LINE",
"120 350 LINE",
"120 450 LINE"
);
},
{
closed = 1;
nodes = (
"202 225 LINE",
"350 0 LINE",
"435 0 LINE",
"287 225 LINE"
);
},
{
closed = 1;
nodes = (
"469 0 LINE",
"369 100 LINE",
"369 0 LINE"
);
},
{
closed = 1;
nodes = (
"202 225 LINE",
"53 0 LINE",
"138 0 LINE",
"287 225 LINE"
);
},
{
closed = 1;
nodes = (
"120 100 LINE",
"20 0 LINE",
"120 0 LINE"
);
}
);
width = 499;
},
{
layerId = "AEDC8121-3E5B-40FA-BC83-3F7147C1C4F3";
width = 600;
},
{
layerId = "71685E8E-84B4-4751-A208-735D4797FBD3";
width = 600;
},
{
associatedMasterId = "EA4A3C90-BC2A-43B1-AFC3-03A46CC68B95";
layerId = "BDE5739F-B7FE-433E-A3F2-0ABC4FADF5D1";
name = "Aug 30 17, 09:56";
paths = (
{
closed = 1;
nodes = (
"425 450 LINE",
"340 450 LINE",
"192 225 LINE",
"277 225 LINE"
);
},
{
closed = 1;
nodes = (
"259 450 LINE",
"359 350 LINE",
"359 450 LINE"
);
},
{
closed = 1;
nodes = (
"128 450 LINE",
"43 450 LINE",
"192 225 LINE",
"277 225 LINE"
);
},
{
closed = 1;
nodes = (
"20 450 LINE",
"120 350 LINE",
"120 450 LINE"
);
},
{
closed = 1;
nodes = (
"192 225 LINE",
"340 0 LINE",
"425 0 LINE",
"277 225 LINE"
);
},
{
closed = 1;
nodes = (
"192 225 LINE",
"43 0 LINE",
"128 0 LINE",
"277 225 LINE"
);
}
);
width = 455;
},
{
associatedMasterId = "EA4A3C90-BC2A-43B1-AFC3-03A46CC68B95";
layerId = "32187DCB-1213-48C3-AA75-BA7F4DC09C14";
name = "Aug 30 17, 09:57";
paths = (
{
closed = 1;
nodes = (
"469 450 LINE",
"384 450 LINE",
"236 225 LINE",
"321 225 LINE"
);
},
{
closed = 1;
nodes = (
"403 350 LINE",
"503 450 LINE",
"403 450 LINE"
);
},
{
closed = 1;
nodes = (
"172 450 LINE",
"87 450 LINE",
"236 225 LINE",
"321 225 LINE"
);
},
{
closed = 1;
nodes = (
"54 450 LINE",
"154 350 LINE",
"154 450 LINE"
);
},
{
closed = 1;
nodes = (
"236 225 LINE",
"384 0 LINE",
"469 0 LINE",
"321 225 LINE"
);
},
{
closed = 1;
nodes = (
"503 0 LINE",
"403 100 LINE",
"403 0 LINE"
);
},
{
closed = 1;
nodes = (
"236 225 LINE",
"87 0 LINE",
"172 0 LINE",
"321 225 LINE"
);
},
{
closed = 1;
nodes = (
"154 100 LINE",
"54 0 LINE",
"154 0 LINE"
);
}
);
width = 557;
},
{
associatedMasterId = "EA4A3C90-BC2A-43B1-AFC3-03A46CC68B95";
layerId = "9BDFCC11-FA29-4164-BDC9-92C93F67CC5B";
name = "Aug 30 17, 09:59";
paths = (
{
closed = 1;
nodes = (
"435 450 LINE",
"350 450 LINE",
"202 225 LINE",
"287 225 LINE"
);
},
{
closed = 1;
nodes = (
"250 450 LINE",
"350 350 LINE",
"350 450 LINE"
);
},
{
closed = 1;
nodes = (
"138 450 LINE",
"53 450 LINE",
"202 225 LINE",
"287 225 LINE"
);
},
{
closed = 1;
nodes = (
"20 450 LINE",
"120 350 LINE",
"120 450 LINE"
);
},
{
closed = 1;
nodes = (
"202 225 LINE",
"350 0 LINE",
"435 0 LINE",
"287 225 LINE"
);
},
{
closed = 1;
nodes = (
"350 100 LINE",
"250 0 LINE",
"350 0 LINE"
);
},
{
closed = 1;
nodes = (
"202 225 LINE",
"53 0 LINE",
"138 0 LINE",
"287 225 LINE"
);
},
{
closed = 1;
nodes = (
"120 100 LINE",
"20 0 LINE",
"120 0 LINE"
);
}
);
width = 465;
}
);
leftMetricsKey = "=n-10";
rightMetricsKey = n;
unicode = 0078;
},
{
glyphname = y;
lastChange = "2017-08-30 14:08:38 +0000";
layers = (
{
guideLines = (
{
angle = 70;
position = "{469, 450}";
}
);
layerId = "EA4A3C90-BC2A-43B1-AFC3-03A46CC68B95";
paths = (
{
closed = 1;
nodes = (
"321 43 LINE",
"241 72 LINE",
"209 -15 LINE",
"305 2 LINE"
);
},
{
closed = 1;
nodes = (
"188 -144 OFFCURVE",
"268 -100 OFFCURVE",
"305 2 CURVE",
"209 -15 LINE",
"188 -73 OFFCURVE",
"142 -122 OFFCURVE",
"79 -145 CURVE"
);
},
{
closed = 1;
nodes = (
"469 450 LINE",
"384 450 LINE",
"236 43 LINE",
"321 43 LINE"
);
},
{
closed = 1;
nodes = (
"327 450 LINE",
"427 350 LINE",
"427 450 LINE"
);
},
{
closed = 1;
nodes = (
"172 450 LINE",
"87 450 LINE",
"236 43 LINE",
"321 43 LINE"
);
},
{
closed = 1;
nodes = (
"30 450 LINE",
"130 350 LINE",
"130 450 LINE"
);
}
);
width = 499;
},
{
layerId = "AEDC8121-3E5B-40FA-BC83-3F7147C1C4F3";
width = 600;
},
{
layerId = "71685E8E-84B4-4751-A208-735D4797FBD3";
width = 600;
}
);
leftMetricsKey = v;
rightMetricsKey = v;
unicode = 0079;
},
{
glyphname = z;
lastChange = "2017-08-30 14:03:57 +0000";
layers = (
{
background = {
paths = (
{
closed = 1;
nodes = (
"332 450 LINE",
"432 350 LINE",
"432 450 LINE"
);
},
{
closed = 1;
nodes = (
"177 450 LINE",
"92 450 LINE",
"241 0 LINE",
"326 0 LINE"
);
},
{
closed = 1;
nodes = (
"35 450 LINE",
"135 350 LINE",
"135 450 LINE"
);
},
{
closed = 1;
nodes = (
"474 507 LINE",
"374 407 LINE",
"474 407 LINE"
);
},
{
closed = 1;
nodes = (
"135 42 LINE",
"35 42 LINE",
"35 -58 LINE"
);
}
);
};
guideLines = (
{
angle = 45;
position = "{130, 85}";
}
);
layerId = "EA4A3C90-BC2A-43B1-AFC3-03A46CC68B95";
paths = (
{
closed = 1;
nodes = (
"410 365 LINE",
"305 365 LINE",
"35 85 LINE",
"130 85 LINE"
);
},
{
closed = 1;
nodes = (
"410 365 LINE",
"410 450 LINE",
"35 450 LINE",
"35 365 LINE"
);
},
{
closed = 1;
nodes = (
"135 407 LINE",
"35 407 LINE",
"35 307 LINE"
);
},
{
closed = 1;
nodes = (
"410 0 LINE",
"410 85 LINE",
"35 85 LINE",
"35 0 LINE"
);
},
{
closed = 1;
nodes = (
"410 142 LINE",
"300 42 LINE",
"410 42 LINE"
);
}
);
width = 445;
},
{
layerId = "AEDC8121-3E5B-40FA-BC83-3F7147C1C4F3";
width = 600;
},
{
layerId = "71685E8E-84B4-4751-A208-735D4797FBD3";
width = 600;
}
);
leftMetricsKey = "=n+5";
rightMetricsKey = "=n+5";
unicode = 007A;
},
{
glyphname = a.001;
lastChange = "2017-08-24 18:21:57 +0000";
layers = (
{
background = {
paths = (
{
closed = 1;
nodes = (
"282 37 OFFCURVE",
"301 51 OFFCURVE",
"315 63 CURVE",
"218 28 OFFCURVE",
"106 66 OFFCURVE",
"56 152 CURVE SMOOTH",
"4 242 OFFCURVE",
"26 358 OFFCURVE",
"105 423 CURVE",
"89 417 OFFCURVE",
"67 408 OFFCURVE",
"56 402 CURVE SMOOTH",
"-57 336 OFFCURVE",
"-96 206 OFFCURVE",
"-35 100 CURVE SMOOTH",
"24 -3 OFFCURVE",
"156 -33 OFFCURVE",
"271 31 CURVE SMOOTH"
);
},
{
closed = 1;
nodes = (
"315 0 LINE",
"400 0 LINE",
"400 450 LINE",
"315 450 LINE"
);
},
{
closed = 1;
nodes = (
"357 450 LINE",
"357 350 LINE",
"457 450 LINE"
);
},
{
closed = 1;
nodes = (
"457 0 LINE",
"357 100 LINE",
"357 0 LINE"
);
},
{
closed = 1;
nodes = (
"367 364 LINE",
"300 448 OFFCURVE",
"172 465 OFFCURVE",
"56 402 CURVE SMOOTH",
"45 396 OFFCURVE",
"28 382 OFFCURVE",
"14 370 CURVE",
"123 410 OFFCURVE",
"242 376 OFFCURVE",
"292 288 CURVE SMOOTH",
"341 202 OFFCURVE",
"310 83 OFFCURVE",
"222 10 CURVE",
"238 16 OFFCURVE",
"260 25 OFFCURVE",
"271 31 CURVE SMOOTH",
"311 55 OFFCURVE",
"344 85 OFFCURVE",
"367 119 CURVE"
);
}
);
};
guideLines = (
{
angle = 209.9536;
position = "{-299, 152}";
},
{
angle = -59.8471;
position = "{-299, 152}";
}
);
layerId = "EA4A3C90-BC2A-43B1-AFC3-03A46CC68B95";
paths = (
{
closed = 1;
nodes = (
"381 167 LINE",
"381 354 OFFCURVE",
"334 441 OFFCURVE",
"232 441 CURVE SMOOTH",
"158 441 OFFCURVE",
"97 418 OFFCURVE",
"39 368 CURVE",
"73 380 OFFCURVE",
"105 386 OFFCURVE",
"139 386 CURVE SMOOTH",
"246 386 OFFCURVE",
"296 317 OFFCURVE",
"296 167 CURVE"
);
},
{
closed = 1;
nodes = (
"296 0 LINE",
"381 0 LINE",
"381 167 LINE",
"296 167 LINE"
);
},
{
closed = 1;
nodes = (
"438 0 LINE",
"338 100 LINE",
"338 0 LINE"
);
},
{
closed = 1;
nodes = (
"285 38 OFFCURVE",
"304 52 OFFCURVE",
"317 63 CURVE",
"235 34 OFFCURVE",
"163 60 OFFCURVE",
"133 112 CURVE SMOOTH",
"102 166 OFFCURVE",
"115 238 OFFCURVE",
"182 293 CURVE",
"163 286 OFFCURVE",
"142 277 OFFCURVE",
"133 272 CURVE SMOOTH",
"33 217 OFFCURVE",
"2 131 OFFCURVE",
"42 60 CURVE SMOOTH",
"82 -11 OFFCURVE",
"173 -27 OFFCURVE",
"273 31 CURVE SMOOTH"
);
},
{
closed = 1;
nodes = (
"243 17 OFFCURVE",
"264 26 OFFCURVE",
"273 31 CURVE SMOOTH",
"374 87 OFFCURVE",
"404 174 OFFCURVE",
"364 244 CURVE SMOOTH",
"328 307 OFFCURVE",
"233 332 OFFCURVE",
"133 272 CURVE SMOOTH",
"128 269 OFFCURVE",
"110 256 OFFCURVE",
"91 240 CURVE",
"174 271 OFFCURVE",
"243 244 OFFCURVE",
"273 192 CURVE SMOOTH",
"304 139 OFFCURVE",
"292 67 OFFCURVE",
"224 10 CURVE"
);
}
);
width = 468;
},
{
layerId = "71685E8E-84B4-4751-A208-735D4797FBD3";
width = 600;
},
{
layerId = "AEDC8121-3E5B-40FA-BC83-3F7147C1C4F3";
width = 600;
}
);
leftMetricsKey = o;
rightMetricsKey = l;
},
{
glyphname = fi;
lastChange = "2017-08-29 21:10:01 +0000";
layers = (
{
background = {
components = (
{
name = fl;
}
);
paths = (
{
closed = 1;
nodes = (
"393 600 LINE",
"464 515 LINE",
"534 600 LINE"
);
}
);
};
components = (
{
name = f;
}
);
layerId = "EA4A3C90-BC2A-43B1-AFC3-03A46CC68B95";
paths = (
{
closed = 1;
nodes = (
"431 0 LINE",
"516 0 LINE",
"516 450 LINE",
"431 450 LINE"
);
},
{
closed = 1;
nodes = (
"473 350 LINE",
"473 450 LINE",
"373 450 LINE"
);
},
{
closed = 1;
nodes = (
"573 0 LINE",
"473 100 LINE",
"473 0 LINE"
);
}
);
width = 583;
},
{
layerId = "AEDC8121-3E5B-40FA-BC83-3F7147C1C4F3";
width = 600;
},
{
layerId = "71685E8E-84B4-4751-A208-735D4797FBD3";
width = 600;
},
{
associatedMasterId = "EA4A3C90-BC2A-43B1-AFC3-03A46CC68B95";
background = {
components = (
{
name = fl;
}
);
};
components = (
{
name = f;
}
);
layerId = "358B176E-1B0F-42CD-B909-82C56F71AD70";
name = "Aug 29 17, 17:09";
paths = (
{
closed = 1;
nodes = (
"411 0 LINE",
"496 0 LINE",
"496 450 LINE",
"411 450 LINE"
);
},
{
closed = 1;
nodes = (
"453 350 LINE",
"453 450 LINE",
"353 450 LINE"
);
},
{
closed = 1;
nodes = (
"553 0 LINE",
"453 100 LINE",
"453 0 LINE"
);
},
{
closed = 1;
nodes = (
"373 600 LINE",
"444 515 LINE",
"514 600 LINE"
);
}
);
width = 583;
}
);
unicode = FB01;
},
{
glyphname = fl;
lastChange = "2017-08-29 21:08:10 +0000";
layers = (
{
background = {
paths = (
{
closed = 1;
nodes = (
"501 500 LINE",
"501 600 LINE",
"401 600 LINE"
);
},
{
closed = 1;
nodes = (
"477 441 LINE",
"477 376 OFFCURVE",
"447 309 OFFCURVE",
"392 263 CURVE",
"481 296 OFFCURVE",
"546 360 OFFCURVE",
"565 441 CURVE"
);
},
{
closed = 1;
nodes = (
"543 590 LINE",
"505 655 OFFCURVE",
"436 691 OFFCURVE",
"360 691 CURVE SMOOTH",
"316 691 OFFCURVE",
"270 680 OFFCURVE",
"226 655 CURVE SMOOTH",
"219 651 OFFCURVE",
"201 637 OFFCURVE",
"184 623 CURVE",
"212 633 OFFCURVE",
"240 638 OFFCURVE",
"268 638 CURVE SMOOTH",
"344 638 OFFCURVE",
"416 601 OFFCURVE",
"452 538 CURVE"
);
},
{
closed = 1;
nodes = (
"190 -10 LINE",
"411 -10 LINE",
"411 75 LINE",
"190 75 LINE"
);
}
);
};
layerId = "EA4A3C90-BC2A-43B1-AFC3-03A46CC68B95";
paths = (
{
closed = 1;
nodes = (
"431 0 LINE",
"516 0 LINE",
"516 441 LINE",
"431 441 LINE"
);
},
{
closed = 1;
nodes = (
"573 0 LINE",
"473 100 LINE",
"473 0 LINE"
);
},
{
closed = 1;
nodes = (
"516 441 LINE",
"516 584 OFFCURVE",
"448 692 OFFCURVE",
"359 692 CURVE SMOOTH",
"288 692 OFFCURVE",
"238 668 OFFCURVE",
"184 623 CURVE",
"212 633 OFFCURVE",
"240 638 OFFCURVE",
"268 638 CURVE SMOOTH",
"361 638 OFFCURVE",
"431 553 OFFCURVE",
"431 441 CURVE"
);
},
{
closed = 1;
nodes = (
"190 61 LINE",
"190 500 LINE",
"105 500 LINE",
"105 61 LINE"
);
},
{
closed = 1;
nodes = (
"30 390 LINE",
"265 390 LINE",
"285 450 LINE",
"50 450 LINE"
);
},
{
closed = 1;
nodes = (
"190 61 LINE",
"105 61 LINE",
"190 -10 LINE"
);
},
{
closed = 1;
nodes = (
"190 500 LINE",
"190 565 OFFCURVE",
"220 631 OFFCURVE",
"275 676 CURVE",
"184 643 OFFCURVE",
"105 576 OFFCURVE",
"105 500 CURVE"
);
}
);
width = 603;
},
{
layerId = "AEDC8121-3E5B-40FA-BC83-3F7147C1C4F3";
width = 600;
},
{
layerId = "71685E8E-84B4-4751-A208-735D4797FBD3";
width = 600;
}
);
leftMetricsKey = f;
rightMetricsKey = l;
unicode = FB02;
},
{
glyphname = zero;
lastChange = "2017-08-24 17:23:33 +0000";
layers = (
{
associatedMasterId = "EA4A3C90-BC2A-43B1-AFC3-03A46CC68B95";
layerId = "AAAD3B9B-D9F7-44DA-9F5B-B6C0283FDA5B";
name = "Aug 24 17, 11:31";
paths = (
{
closed = 1;
nodes = (
"447 62 CURVE",
"247 -12 OFFCURVE",
"129 59 OFFCURVE",
"130 250 CURVE SMOOTH",
"131 448 OFFCURVE",
"143 575 OFFCURVE",
"162 591 CURVE",
"146 585 OFFCURVE",
"126 576 OFFCURVE",
"114 569 CURVE SMOOTH",
"63 538 OFFCURVE",
"25 401 OFFCURVE",
"25 250 CURVE SMOOTH",
"26 2 OFFCURVE",
"198 -92 OFFCURVE",
"424 31 CURVE SMOOTH",
"403 20 OFFCURVE",
"413 33 OFFCURVE"
);
},
{
closed = 1;
nodes = (
"412 24 OFFCURVE",
"424 31 CURVE SMOOTH",
"473 61 OFFCURVE",
"510 199 OFFCURVE",
"510 352 CURVE SMOOTH",
"509 598 OFFCURVE",
"339 691 OFFCURVE",
"114 569 CURVE SMOOTH",
"135 580 OFFCURVE",
"125 567 OFFCURVE",
"91 538 CURVE",
"288 611 OFFCURVE",
"405 541 OFFCURVE",
"405 352 CURVE SMOOTH",
"404 152 OFFCURVE",
"393 24 OFFCURVE",
"376 9 CURVE",
"392 15 OFFCURVE"
);
}
);
width = 535;
},
{
layerId = "EA4A3C90-BC2A-43B1-AFC3-03A46CC68B95";
paths = (
{
closed = 1;
nodes = (
"447 62 CURVE",
"265 -5 OFFCURVE",
"129 76 OFFCURVE",
"130 250 CURVE SMOOTH",
"131 430 OFFCURVE",
"145 577 OFFCURVE",
"162 591 CURVE",
"148 586 OFFCURVE",
"127 576 OFFCURVE",
"114 569 CURVE SMOOTH",
"63 538 OFFCURVE",
"25 401 OFFCURVE",
"25 250 CURVE SMOOTH",
"26 2 OFFCURVE",
"198 -92 OFFCURVE",
"424 31 CURVE SMOOTH",
"405 22 OFFCURVE",
"415 35 OFFCURVE"
);
},
{
closed = 1;
nodes = (
"411 24 OFFCURVE",
"424 31 CURVE SMOOTH",
"473 61 OFFCURVE",
"510 199 OFFCURVE",
"510 352 CURVE SMOOTH",
"509 598 OFFCURVE",
"339 691 OFFCURVE",
"114 569 CURVE SMOOTH",
"133 578 OFFCURVE",
"123 565 OFFCURVE",
"91 538 CURVE",
"270 604 OFFCURVE",
"405 524 OFFCURVE",
"405 352 CURVE SMOOTH",
"404 170 OFFCURVE",
"392 23 OFFCURVE",
"376 9 CURVE",
"390 14 OFFCURVE"
);
}
);
width = 535;
},
{
layerId = "AEDC8121-3E5B-40FA-BC83-3F7147C1C4F3";
width = 600;
},
{
layerId = "71685E8E-84B4-4751-A208-735D4797FBD3";
width = 600;
}
);
leftMetricsKey = O;
rightMetricsKey = O;
unicode = 0030;
},
{
glyphname = two;
lastChange = "2017-08-24 17:23:33 +0000";
layers = (
{
background = {
components = (
{
name = C;
transform = "{-1, 0, 0, 1, 593, 0}";
}
);
paths = (
{
closed = 1;
nodes = (
"-2 168 LINE",
"-9 177 OFFCURVE",
"-15 187 OFFCURVE",
"-21 197 CURVE SMOOTH",
"-80 295 OFFCURVE",
"-74 412 OFFCURVE",
"-22 505 CURVE",
"-46 534 LINE",
"-155 438 OFFCURVE",
"-186 276 OFFCURVE",
"-112 145 CURVE SMOOTH",
"-103 129 OFFCURVE",
"-93 115 OFFCURVE",
"-81 101 CURVE"
);
},
{
closed = 1;
nodes = (
"22 139 LINE",
"14 148 OFFCURVE",
"5 158 OFFCURVE",
"-2 168 CURVE",
"-81 101 LINE",
"-69 87 OFFCURVE",
"-56 74 OFFCURVE",
"-42 62 CURVE"
);
},
{
closed = 1;
nodes = (
"334 33 OFFCURVE",
"352 46 OFFCURVE",
"366 58 CURVE",
"279 26 OFFCURVE",
"186 50 OFFCURVE",
"149 114 CURVE SMOOTH",
"116 171 OFFCURVE",
"145 259 OFFCURVE",
"216 318 CURVE",
"199 312 OFFCURVE",
"178 302 OFFCURVE",
"168 296 CURVE SMOOTH",
"64 234 OFFCURVE",
"17 133 OFFCURVE",
"58 62 CURVE SMOOTH",
"104 -17 OFFCURVE",
"217 -31 OFFCURVE",
"323 27 CURVE SMOOTH"
);
},
{
closed = 1;
nodes = (
"292 11 OFFCURVE",
"313 21 OFFCURVE",
"323 27 CURVE SMOOTH",
"427 89 OFFCURVE",
"470 195 OFFCURVE",
"425 273 CURVE SMOOTH",
"383 345 OFFCURVE",
"274 354 OFFCURVE",
"168 296 CURVE SMOOTH",
"157 290 OFFCURVE",
"139 277 OFFCURVE",
"125 265 CURVE",
"212 297 OFFCURVE",
"302 278 OFFCURVE",
"334 221 CURVE SMOOTH",
"370 157 OFFCURVE",
"345 64 OFFCURVE",
"275 5 CURVE"
);
},
{
closed = 1;
nodes = (
"316 0 LINE",
"438 0 LINE",
"438 73 LINE",
"316 72 LINE"
);
},
{
closed = 1;
nodes = (
"438 0 LINE",
"528 0 OFFCURVE",
"566 50 OFFCURVE",
"573 78 CURVE",
"588 135 LINE",
"581 107 OFFCURVE",
"538 74 OFFCURVE",
"438 73 CURVE"
);
},
{
closed = 1;
nodes = (
"86 543 LINE",
"21 468 LINE",
"111 405 LINE"
);
},
{
closed = 1;
nodes = (
"52 446 LINE",
"59 466 OFFCURVE",
"67 486 OFFCURVE",
"78 505 CURVE",
"54 534 LINE",
"35 518 OFFCURVE",
"19 499 OFFCURVE",
"5 480 CURVE"
);
},
{
closed = 1;
nodes = (
"108 569 LINE",
"54 534 LINE",
"99 480 LINE"
);
}
);
};
guideLines = (
{
angle = 129.8581;
position = "{154, 414}";
},
{
angle = 209.9447;
position = "{481, 429}";
},
{
angle = 230.1419;
position = "{257, 300}";
},
{
angle = 119.9509;
position = "{257, 300}";
},
{
angle = -60.0491;
position = "{-443, 300}";
},
{
angle = 209.9509;
position = "{-443, 300}";
},
{
angle = 209.9509;
position = "{-369, 172}";
},
{
angle = 90;
position = "{54, 534}";
},
{
angle = 90;
position = "{437, 452}";
},
{
angle = -35.5377;
position = "{257, 300}";
}
);
layerId = "EA4A3C90-BC2A-43B1-AFC3-03A46CC68B95";
paths = (
{
closed = 1;
nodes = (
"334 250 OFFCURVE",
"457 301 OFFCURVE",
"457 442 CURVE SMOOTH",
"457 538 OFFCURVE",
"359 610 OFFCURVE",
"256 610 CURVE SMOOTH",
"191 610 OFFCURVE",
"127 579 OFFCURVE",
"79 538 CURVE",
"106 549 OFFCURVE",
"152 557 OFFCURVE",
"187 557 CURVE SMOOTH",
"295 557 OFFCURVE",
"376 493 OFFCURVE",
"376 409 CURVE SMOOTH",
"376 309 OFFCURVE",
"288 273 OFFCURVE",
"187 210 CURVE"
);
},
{
closed = 1;
nodes = (
"54 0 LINE",
"337 0 LINE",
"337 73 LINE",
"112 72 LINE"
);
},
{
closed = 1;
nodes = (
"337 0 LINE",
"427 0 OFFCURVE",
"465 50 OFFCURVE",
"472 78 CURVE",
"487 135 LINE",
"480 107 OFFCURVE",
"437 74 OFFCURVE",
"337 73 CURVE"
);
},
{
closed = 1;
nodes = (
"139 0 LINE",
"143 161 OFFCURVE",
"204 225 OFFCURVE",
"327 271 CURVE",
"144 235 OFFCURVE",
"59 171 OFFCURVE",
"54 0 CURVE"
);
},
{
closed = 1;
nodes = (
"131 405 LINE",
"109.61 523.071 LINE",
"129 550 OFFCURVE",
"150 575 OFFCURVE",
"173 594 CURVE",
"115 572 OFFCURVE",
"64 533 OFFCURVE",
"25 480 CURVE"
);
}
);
width = 512;
},
{
associatedMasterId = "EA4A3C90-BC2A-43B1-AFC3-03A46CC68B95";
background = {
components = (
{
name = C;
transform = "{-1, 0, 0, 1, 575, 0}";
}
);
paths = (
{
closed = 1;
nodes = (
"-20 168 LINE",
"-27 177 OFFCURVE",
"-33 187 OFFCURVE",
"-39 197 CURVE SMOOTH",
"-98 295 OFFCURVE",
"-92 412 OFFCURVE",
"-40 505 CURVE",
"-64 534 LINE",
"-173 438 OFFCURVE",
"-204 276 OFFCURVE",
"-130 145 CURVE SMOOTH",
"-121 129 OFFCURVE",
"-111 115 OFFCURVE",
"-99 101 CURVE"
);
},
{
closed = 1;
nodes = (
"4 139 LINE",
"-4 148 OFFCURVE",
"-13 158 OFFCURVE",
"-20 168 CURVE",
"-99 101 LINE",
"-87 87 OFFCURVE",
"-74 74 OFFCURVE",
"-60 62 CURVE"
);
},
{
closed = 1;
nodes = (
"316 33 OFFCURVE",
"334 46 OFFCURVE",
"348 58 CURVE",
"261 26 OFFCURVE",
"168 50 OFFCURVE",
"131 114 CURVE SMOOTH",
"98 171 OFFCURVE",
"127 259 OFFCURVE",
"198 318 CURVE",
"181 312 OFFCURVE",
"160 302 OFFCURVE",
"150 296 CURVE SMOOTH",
"46 234 OFFCURVE",
"-1 133 OFFCURVE",
"40 62 CURVE SMOOTH",
"86 -17 OFFCURVE",
"199 -31 OFFCURVE",
"305 27 CURVE SMOOTH"
);
},
{
closed = 1;
nodes = (
"274 11 OFFCURVE",
"295 21 OFFCURVE",
"305 27 CURVE SMOOTH",
"409 89 OFFCURVE",
"452 195 OFFCURVE",
"407 273 CURVE SMOOTH",
"365 345 OFFCURVE",
"256 354 OFFCURVE",
"150 296 CURVE SMOOTH",
"139 290 OFFCURVE",
"121 277 OFFCURVE",
"107 265 CURVE",
"194 297 OFFCURVE",
"284 278 OFFCURVE",
"316 221 CURVE SMOOTH",
"352 157 OFFCURVE",
"327 64 OFFCURVE",
"257 5 CURVE"
);
},
{
closed = 1;
nodes = (
"298 0 LINE",
"420 0 LINE",
"420 73 LINE",
"298 72 LINE"
);
},
{
closed = 1;
nodes = (
"420 0 LINE",
"510 0 OFFCURVE",
"548 50 OFFCURVE",
"555 78 CURVE",
"570 135 LINE",
"563 107 OFFCURVE",
"520 74 OFFCURVE",
"420 73 CURVE"
);
}
);
};
guideLines = (
{
angle = 129.8581;
position = "{136, 414}";
},
{
angle = 209.9447;
position = "{463, 429}";
},
{
angle = 230.1419;
position = "{239, 300}";
},
{
angle = 119.9509;
position = "{239, 300}";
},
{
angle = -60.0491;
position = "{-461, 300}";
},
{
angle = 209.9509;
position = "{-461, 300}";
},
{
angle = 209.9509;
position = "{-387, 172}";
}
);
layerId = "5E767A19-6370-4F09-B6DA-56D5B70DB999";
name = "Aug 24 17, 11:48";
paths = (
{
closed = 1;
nodes = (
"40 62 LINE",
"137 -18 OFFCURVE",
"278 -34 OFFCURVE",
"394 31 CURVE SMOOTH",
"410 40 OFFCURVE",
"424 51 OFFCURVE",
"437 62 CURVE",
"321 19 OFFCURVE",
"188 49 OFFCURVE",
"104 139 CURVE"
);
},
{
closed = 1;
nodes = (
"362 15 OFFCURVE",
"379 22 OFFCURVE",
"394 31 CURVE SMOOTH",
"541 119 OFFCURVE",
"594 307 OFFCURVE",
"508 455 CURVE SMOOTH",
"422 603 OFFCURVE",
"233 653 OFFCURVE",
"84 569 CURVE SMOOTH",
"68 560 OFFCURVE",
"54 549 OFFCURVE",
"41 538 CURVE",
"180 589 OFFCURVE",
"341 536 OFFCURVE",
"417 403 CURVE SMOOTH",
"493 270 OFFCURVE",
"460 104 OFFCURVE",
"346 9 CURVE"
);
},
{
closed = 1;
nodes = (
"60 505 LINE",
"78 537 OFFCURVE",
"102 566 OFFCURVE",
"132 591 CURVE",
"116 585 OFFCURVE",
"99 578 OFFCURVE",
"84 569 CURVE SMOOTH",
"67 559 OFFCURVE",
"50 547 OFFCURVE",
"36 534 CURVE"
);
},
{
closed = 1;
nodes = (
"316 33 OFFCURVE",
"334 46 OFFCURVE",
"348 58 CURVE",
"261 26 OFFCURVE",
"168 50 OFFCURVE",
"131 114 CURVE SMOOTH",
"98 171 OFFCURVE",
"127 259 OFFCURVE",
"198 318 CURVE",
"181 312 OFFCURVE",
"160 302 OFFCURVE",
"150 296 CURVE SMOOTH",
"46 234 OFFCURVE",
"-1 133 OFFCURVE",
"40 62 CURVE SMOOTH",
"86 -17 OFFCURVE",
"199 -31 OFFCURVE",
"305 27 CURVE SMOOTH"
);
},
{
closed = 1;
nodes = (
"407 273 LINE",
"365 345 OFFCURVE",
"256 354 OFFCURVE",
"150 296 CURVE SMOOTH",
"139 290 OFFCURVE",
"121 277 OFFCURVE",
"107 265 CURVE",
"194 297 OFFCURVE",
"284 278 OFFCURVE",
"316 221 CURVE"
);
},
{
closed = 1;
nodes = (
"696 33 OFFCURVE",
"714 46 OFFCURVE",
"728 58 CURVE",
"641 26 OFFCURVE",
"548 50 OFFCURVE",
"511 114 CURVE",
"420 62 LINE",
"466 -17 OFFCURVE",
"579 -31 OFFCURVE",
"685 27 CURVE SMOOTH"
);
},
{
closed = 1;
nodes = (
"420 62 LINE",
"511 114 LINE",
"407 273 LINE",
"316 221 LINE"
);
}
);
width = 1065;
},
{
associatedMasterId = "EA4A3C90-BC2A-43B1-AFC3-03A46CC68B95";
background = {
components = (
{
name = C;
transform = "{-1, 0, 0, 1, 564, 0}";
}
);
paths = (
{
closed = 1;
nodes = (
"-31 168 LINE",
"-38 177 OFFCURVE",
"-44 187 OFFCURVE",
"-50 197 CURVE SMOOTH",
"-109 295 OFFCURVE",
"-103 412 OFFCURVE",
"-51 505 CURVE",
"-75 534 LINE",
"-184 438 OFFCURVE",
"-215 276 OFFCURVE",
"-141 145 CURVE SMOOTH",
"-132 129 OFFCURVE",
"-122 115 OFFCURVE",
"-110 101 CURVE"
);
},
{
closed = 1;
nodes = (
"-7 139 LINE",
"-15 148 OFFCURVE",
"-24 158 OFFCURVE",
"-31 168 CURVE",
"-110 101 LINE",
"-98 87 OFFCURVE",
"-85 74 OFFCURVE",
"-71 62 CURVE"
);
},
{
closed = 1;
nodes = (
"305 33 OFFCURVE",
"323 46 OFFCURVE",
"337 58 CURVE",
"250 26 OFFCURVE",
"157 50 OFFCURVE",
"120 114 CURVE SMOOTH",
"87 171 OFFCURVE",
"116 259 OFFCURVE",
"187 318 CURVE",
"170 312 OFFCURVE",
"149 302 OFFCURVE",
"139 296 CURVE SMOOTH",
"35 234 OFFCURVE",
"-12 133 OFFCURVE",
"29 62 CURVE SMOOTH",
"75 -17 OFFCURVE",
"188 -31 OFFCURVE",
"294 27 CURVE SMOOTH"
);
},
{
closed = 1;
nodes = (
"263 11 OFFCURVE",
"284 21 OFFCURVE",
"294 27 CURVE SMOOTH",
"398 89 OFFCURVE",
"441 195 OFFCURVE",
"396 273 CURVE SMOOTH",
"354 345 OFFCURVE",
"245 354 OFFCURVE",
"139 296 CURVE SMOOTH",
"128 290 OFFCURVE",
"110 277 OFFCURVE",
"96 265 CURVE",
"183 297 OFFCURVE",
"273 278 OFFCURVE",
"305 221 CURVE SMOOTH",
"341 157 OFFCURVE",
"316 64 OFFCURVE",
"246 5 CURVE"
);
},
{
closed = 1;
nodes = (
"287 0 LINE",
"409 0 LINE",
"409 73 LINE",
"287 72 LINE"
);
},
{
closed = 1;
nodes = (
"409 0 LINE",
"499 0 OFFCURVE",
"537 50 OFFCURVE",
"544 78 CURVE",
"559 135 LINE",
"552 107 OFFCURVE",
"509 74 OFFCURVE",
"409 73 CURVE"
);
},
{
closed = 1;
nodes = (
"57 543 LINE",
"-8 468 LINE",
"82 405 LINE"
);
},
{
closed = 1;
nodes = (
"23 446 LINE",
"30 466 OFFCURVE",
"38 486 OFFCURVE",
"49 505 CURVE",
"25 534 LINE",
"6 518 OFFCURVE",
"-10 499 OFFCURVE",
"-24 480 CURVE"
);
}
);
};
guideLines = (
{
angle = 129.8581;
position = "{125, 414}";
},
{
angle = 209.9447;
position = "{452, 429}";
},
{
angle = 230.1419;
position = "{228, 300}";
},
{
angle = 119.9509;
position = "{228, 300}";
},
{
angle = -60.0491;
position = "{-472, 300}";
},
{
angle = 209.9509;
position = "{-472, 300}";
},
{
angle = 209.9509;
position = "{-398, 172}";
},
{
angle = 90;
position = "{25, 534}";
},
{
angle = 90;
position = "{408, 452}";
},
{
angle = -35.5377;
position = "{228, 300}";
}
);
layerId = "9511B913-6C73-4FF3-BDFC-723B53A2EAE4";
name = "Aug 24 17, 12:21";
paths = (
{
closed = 1;
nodes = (
"305 240 OFFCURVE",
"408 332 OFFCURVE",
"408 442 CURVE SMOOTH",
"408 538 OFFCURVE",
"330 610 OFFCURVE",
"227 610 CURVE SMOOTH",
"188 610 OFFCURVE",
"122 592 OFFCURVE",
"73 569 CURVE SMOOTH",
"62 563 OFFCURVE",
"44 550 OFFCURVE",
"30 538 CURVE",
"59 549 OFFCURVE",
"105 557 OFFCURVE",
"138 557 CURVE SMOOTH",
"246 557 OFFCURVE",
"327 493 OFFCURVE",
"327 409 CURVE SMOOTH",
"327 344 OFFCURVE",
"259 267 OFFCURVE",
"169 229 CURVE"
);
},
{
closed = 1;
nodes = (
"49 505 LINE",
"67 537 OFFCURVE",
"95 563 OFFCURVE",
"125 588 CURVE",
"109 582 OFFCURVE",
"88 578 OFFCURVE",
"73 569 CURVE SMOOTH",
"56 559 OFFCURVE",
"39 547 OFFCURVE",
"25 534 CURVE"
);
},
{
closed = 1;
nodes = (
"25 0 LINE",
"293 0 LINE",
"293 73 LINE",
"83 72 LINE"
);
},
{
closed = 1;
nodes = (
"293 0 LINE",
"383 0 OFFCURVE",
"421 50 OFFCURVE",
"428 78 CURVE",
"443 135 LINE",
"436 107 OFFCURVE",
"393 74 OFFCURVE",
"293 73 CURVE"
);
},
{
closed = 1;
nodes = (
"110 0 LINE",
"114 145 OFFCURVE",
"157 237 OFFCURVE",
"273 284 CURVE",
"109 249 OFFCURVE",
"29 156 OFFCURVE",
"25 0 CURVE"
);
},
{
closed = 1;
nodes = (
"79 569 LINE",
"25 534 LINE",
"70 480 LINE"
);
}
);
width = 468;
},
{
associatedMasterId = "EA4A3C90-BC2A-43B1-AFC3-03A46CC68B95";
background = {
components = (
{
name = C;
transform = "{-1, 0, 0, 1, 564, 0}";
}
);
paths = (
{
closed = 1;
nodes = (
"-31 168 LINE",
"-38 177 OFFCURVE",
"-44 187 OFFCURVE",
"-50 197 CURVE SMOOTH",
"-109 295 OFFCURVE",
"-103 412 OFFCURVE",
"-51 505 CURVE",
"-75 534 LINE",
"-184 438 OFFCURVE",
"-215 276 OFFCURVE",
"-141 145 CURVE SMOOTH",
"-132 129 OFFCURVE",
"-122 115 OFFCURVE",
"-110 101 CURVE"
);
},
{
closed = 1;
nodes = (
"-7 139 LINE",
"-15 148 OFFCURVE",
"-24 158 OFFCURVE",
"-31 168 CURVE",
"-110 101 LINE",
"-98 87 OFFCURVE",
"-85 74 OFFCURVE",
"-71 62 CURVE"
);
},
{
closed = 1;
nodes = (
"305 33 OFFCURVE",
"323 46 OFFCURVE",
"337 58 CURVE",
"250 26 OFFCURVE",
"157 50 OFFCURVE",
"120 114 CURVE SMOOTH",
"87 171 OFFCURVE",
"116 259 OFFCURVE",
"187 318 CURVE",
"170 312 OFFCURVE",
"149 302 OFFCURVE",
"139 296 CURVE SMOOTH",
"35 234 OFFCURVE",
"-12 133 OFFCURVE",
"29 62 CURVE SMOOTH",
"75 -17 OFFCURVE",
"188 -31 OFFCURVE",
"294 27 CURVE SMOOTH"
);
},
{
closed = 1;
nodes = (
"263 11 OFFCURVE",
"284 21 OFFCURVE",
"294 27 CURVE SMOOTH",
"398 89 OFFCURVE",
"441 195 OFFCURVE",
"396 273 CURVE SMOOTH",
"354 345 OFFCURVE",
"245 354 OFFCURVE",
"139 296 CURVE SMOOTH",
"128 290 OFFCURVE",
"110 277 OFFCURVE",
"96 265 CURVE",
"183 297 OFFCURVE",
"273 278 OFFCURVE",
"305 221 CURVE SMOOTH",
"341 157 OFFCURVE",
"316 64 OFFCURVE",
"246 5 CURVE"
);
},
{
closed = 1;
nodes = (
"287 0 LINE",
"409 0 LINE",
"409 73 LINE",
"287 72 LINE"
);
},
{
closed = 1;
nodes = (
"409 0 LINE",
"499 0 OFFCURVE",
"537 50 OFFCURVE",
"544 78 CURVE",
"559 135 LINE",
"552 107 OFFCURVE",
"509 74 OFFCURVE",
"409 73 CURVE"
);
},
{
closed = 1;
nodes = (
"57 543 LINE",
"-8 468 LINE",
"82 405 LINE"
);
},
{
closed = 1;
nodes = (
"23 446 LINE",
"30 466 OFFCURVE",
"38 486 OFFCURVE",
"49 505 CURVE",
"25 534 LINE",
"6 518 OFFCURVE",
"-10 499 OFFCURVE",
"-24 480 CURVE"
);
}
);
};
guideLines = (
{
angle = 129.8581;
position = "{125, 414}";
},
{
angle = 209.9447;
position = "{452, 429}";
},
{
angle = 230.1419;
position = "{228, 300}";
},
{
angle = 119.9509;
position = "{228, 300}";
},
{
angle = -60.0491;
position = "{-472, 300}";
},
{
angle = 209.9509;
position = "{-472, 300}";
},
{
angle = 209.9509;
position = "{-398, 172}";
},
{
angle = 90;
position = "{25, 534}";
},
{
angle = 90;
position = "{408, 452}";
},
{
angle = -35.5377;
position = "{228, 300}";
}
);
layerId = "B0ED3A84-9CCA-4A73-8FAA-48EE79BC8E44";
name = "Aug 24 17, 12:27";
paths = (
{
closed = 1;
nodes = (
"292 238 OFFCURVE",
"408 338 OFFCURVE",
"408 442 CURVE SMOOTH",
"408 538 OFFCURVE",
"330 610 OFFCURVE",
"227 610 CURVE SMOOTH",
"189 610 OFFCURVE",
"122 592 OFFCURVE",
"73 569 CURVE SMOOTH",
"65 566 OFFCURVE",
"46 552 OFFCURVE",
"30 538 CURVE",
"57 549 OFFCURVE",
"104 557 OFFCURVE",
"138 557 CURVE SMOOTH",
"246 557 OFFCURVE",
"327 493 OFFCURVE",
"327 409 CURVE SMOOTH",
"327 346 OFFCURVE",
"246 261 OFFCURVE",
"138 210 CURVE"
);
},
{
closed = 1;
nodes = (
"49 505 LINE",
"67 537 OFFCURVE",
"95 563 OFFCURVE",
"125 588 CURVE",
"109 582 OFFCURVE",
"88 578 OFFCURVE",
"73 569 CURVE SMOOTH",
"56 559 OFFCURVE",
"39 547 OFFCURVE",
"25 534 CURVE"
);
},
{
closed = 1;
nodes = (
"25 0 LINE",
"293 0 LINE",
"293 73 LINE",
"83 72 LINE"
);
},
{
closed = 1;
nodes = (
"293 0 LINE",
"383 0 OFFCURVE",
"421 50 OFFCURVE",
"428 78 CURVE",
"443 135 LINE",
"436 107 OFFCURVE",
"393 74 OFFCURVE",
"293 73 CURVE"
);
},
{
closed = 1;
nodes = (
"110 0 LINE",
"115 158 OFFCURVE",
"167 241 OFFCURVE",
"293 290 CURVE",
"106 248 OFFCURVE",
"30 165 OFFCURVE",
"25 0 CURVE"
);
},
{
closed = 1;
nodes = (
"79 569 LINE",
"25 534 LINE",
"70 480 LINE"
);
}
);
width = 468;
},
{
layerId = "AEDC8121-3E5B-40FA-BC83-3F7147C1C4F3";
width = 600;
},
{
layerId = "71685E8E-84B4-4751-A208-735D4797FBD3";
width = 600;
}
);
leftMetricsKey = C;
rightMetricsKey = O;
unicode = 0032;
},
